SignikaNegative-Light.ufo
<glyph name="exclam" format="2">
  <advance width="550"/>
  <unicode hex="0021"/>
  <outline>
    <contour>
      <point x="218" y="370" type="curve"/>
      <point x="234" y="364"/>
      <point x="254" y="362"/>
      <point x="274" y="362" type="curve" smooth="yes"/>
      <point x="294" y="362"/>
      <point x="314" y="364"/>
      <point x="330" y="370" type="curve"/>
      <point x="342" y="640"/>
      <point x="354" y="910"/>
      <point x="354" y="1180" type="curve" smooth="yes"/>
      <point x="354" y="1364" type="line"/>
      <point x="314" y="1376"/>
      <point x="234" y="1376"/>
      <point x="194" y="1366" type="curve"/>
      <point x="194" y="1180" type="line" smooth="yes"/>
      <point x="194" y="910"/>
      <point x="208" y="642"/>
    </contour>
    <contour>
      <point x="274" y="182" type="curve" smooth="yes"/>
      <point x="240" y="182"/>
      <point x="204" y="174"/>
      <point x="184" y="162" type="curve"/>
      <point x="176" y="148"/>
      <point x="170" y="106"/>
      <point x="170" y="84" type="curve" smooth="yes"/>
      <point x="170" y="62"/>
      <point x="176" y="20"/>
      <point x="184" y="6" type="curve"/>
      <point x="204" y="-6"/>
      <point x="240" y="-14"/>
      <point x="274" y="-14" type="curve" smooth="yes"/>
      <point x="306" y="-14"/>
      <point x="344" y="-6"/>
      <point x="364" y="6" type="curve"/>
      <point x="372" y="20"/>
      <point x="378" y="62"/>
      <point x="378" y="84" type="curve" smooth="yes"/>
      <point x="378" y="106"/>
      <point x="372" y="148"/>
      <point x="364" y="162" type="curve"/>
      <point x="344" y="174"/>
      <point x="306" y="182"/>
    </contour>
  </outline>
</glyph>
<glyph name="percent" format="2">
  <advance width="1708"/>
  <unicode hex="0025"/>
  <outline>
    <contour>
      <point x="1608" y="372" type="curve" smooth="yes"/>
      <point x="1608" y="603"/>
      <point x="1525" y="766"/>
      <point x="1310" y="766" type="curve" smooth="yes"/>
      <point x="1099" y="766"/>
      <point x="1014" y="604"/>
      <point x="1014" y="372" type="curve" smooth="yes"/>
      <point x="1014" y="142"/>
      <point x="1098" y="-24"/>
      <point x="1310" y="-24" type="curve" smooth="yes"/>
      <point x="1522" y="-24"/>
      <point x="1608" y="138"/>
    </contour>
    <contour>
      <point x="1144" y="372" type="curve" smooth="yes"/>
      <point x="1144" y="520"/>
      <point x="1178" y="664"/>
      <point x="1312" y="664" type="curve" smooth="yes"/>
      <point x="1444" y="664"/>
      <point x="1478" y="520"/>
      <point x="1478" y="372" type="curve" smooth="yes"/>
      <point x="1478" y="222"/>
      <point x="1444" y="78"/>
      <point x="1312" y="78" type="curve" smooth="yes"/>
      <point x="1178" y="78"/>
      <point x="1144" y="222"/>
    </contour>
    <contour>
      <point x="696" y="894" type="curve" smooth="yes"/>
      <point x="696" y="1125"/>
      <point x="613" y="1288"/>
      <point x="398" y="1288" type="curve" smooth="yes"/>
      <point x="187" y="1288"/>
      <point x="102" y="1126"/>
      <point x="102" y="894" type="curve" smooth="yes"/>
      <point x="102" y="664"/>
      <point x="186" y="498"/>
      <point x="398" y="498" type="curve" smooth="yes"/>
      <point x="610" y="498"/>
      <point x="696" y="660"/>
    </contour>
    <contour>
      <point x="232" y="894" type="curve" smooth="yes"/>
      <point x="232" y="1042"/>
      <point x="266" y="1186"/>
      <point x="400" y="1186" type="curve" smooth="yes"/>
      <point x="532" y="1186"/>
      <point x="566" y="1042"/>
      <point x="566" y="894" type="curve" smooth="yes"/>
      <point x="566" y="744"/>
      <point x="532" y="600"/>
      <point x="400" y="600" type="curve" smooth="yes"/>
      <point x="266" y="600"/>
      <point x="232" y="744"/>
    </contour>
    <component base="fraction" xOffset="697"/>
  </outline>
</glyph>
<glyph name="quotesingle" format="2">
  <advance width="382"/>
  <unicode hex="0027"/>
  <outline>
    <contour>
      <point x="95" y="1388" type="curve" smooth="yes"/>
      <point x="95" y="1360"/>
      <point x="117" y="1182"/>
      <point x="147" y="986" type="curve"/>
      <point x="167" y="976"/>
      <point x="205" y="976"/>
      <point x="222" y="986" type="curve"/>
      <point x="252" y="1180"/>
      <point x="273" y="1360"/>
      <point x="273" y="1388" type="curve" smooth="yes"/>
      <point x="273" y="1414"/>
      <point x="270" y="1440"/>
      <point x="263" y="1468" type="curve"/>
      <point x="248" y="1478"/>
      <point x="215" y="1488"/>
      <point x="184" y="1488" type="curve" smooth="yes"/>
      <point x="149" y="1488"/>
      <point x="123" y="1478"/>
      <point x="105" y="1468" type="curve"/>
      <point x="98" y="1440"/>
      <point x="95" y="1414"/>
    </contour>
  </outline>
</glyph>
<glyph name="asterisk" format="2">
  <advance width="988"/>
  <unicode hex="002A"/>
  <outline>
    <contour>
      <point x="426" y="1462" type="curve"/>
      <point x="424" y="1362" type="line" smooth="yes"/>
      <point x="422" y="1270"/>
      <point x="444" y="1168"/>
      <point x="460" y="1092" type="curve"/>
      <point x="472" y="1076"/>
      <point x="484" y="1070"/>
      <point x="494" y="1070" type="curve" smooth="yes"/>
      <point x="504" y="1070"/>
      <point x="516" y="1078"/>
      <point x="528" y="1092" type="curve"/>
      <point x="542" y="1168"/>
      <point x="566" y="1270"/>
      <point x="564" y="1362" type="curve" smooth="yes"/>
      <point x="562" y="1462" type="line"/>
      <point x="526" y="1478"/>
      <point x="460" y="1478"/>
    </contour>
    <contour>
      <point x="100" y="1128" type="curve"/>
      <point x="194" y="1094" type="line" smooth="yes"/>
      <point x="282" y="1062"/>
      <point x="386" y="1054"/>
      <point x="462" y="1046" type="curve"/>
      <point x="482" y="1050"/>
      <point x="490" y="1060"/>
      <point x="494" y="1070" type="curve" smooth="yes"/>
      <point x="498" y="1080"/>
      <point x="494" y="1094"/>
      <point x="484" y="1110" type="curve"/>
      <point x="416" y="1144"/>
      <point x="326" y="1200"/>
      <point x="238" y="1228" type="curve" smooth="yes"/>
      <point x="144" y="1256" type="line"/>
      <point x="116" y="1226"/>
      <point x="96" y="1164"/>
    </contour>
    <contour>
      <point x="318" y="714" type="curve"/>
      <point x="378" y="792" type="line" smooth="yes"/>
      <point x="436" y="866"/>
      <point x="476" y="962"/>
      <point x="508" y="1034" type="curve"/>
      <point x="510" y="1052"/>
      <point x="502" y="1064"/>
      <point x="494" y="1070" type="curve" smooth="yes"/>
      <point x="486" y="1076"/>
      <point x="472" y="1078"/>
      <point x="452" y="1072" type="curve"/>
      <point x="398" y="1020"/>
      <point x="318" y="950"/>
      <point x="264" y="874" type="curve" smooth="yes"/>
      <point x="208" y="794" type="line"/>
      <point x="230" y="758"/>
      <point x="282" y="722"/>
    </contour>
    <contour>
      <point x="778" y="792" type="curve"/>
      <point x="724" y="874" type="line" smooth="yes"/>
      <point x="672" y="950"/>
      <point x="592" y="1020"/>
      <point x="534" y="1072" type="curve"/>
      <point x="516" y="1080"/>
      <point x="502" y="1076"/>
      <point x="494" y="1070" type="curve" smooth="yes"/>
      <point x="486" y="1064"/>
      <point x="480" y="1052"/>
      <point x="480" y="1032" type="curve"/>
      <point x="514" y="962"/>
      <point x="552" y="866"/>
      <point x="610" y="792" type="curve" smooth="yes"/>
      <point x="668" y="714" type="line"/>
      <point x="710" y="722"/>
      <point x="760" y="760"/>
    </contour>
    <contour>
      <point x="846" y="1254" type="curve"/>
      <point x="750" y="1228" type="line" smooth="yes"/>
      <point x="662" y="1202"/>
      <point x="572" y="1148"/>
      <point x="504" y="1108" type="curve"/>
      <point x="492" y="1094"/>
      <point x="490" y="1080"/>
      <point x="494" y="1070" type="curve" smooth="yes"/>
      <point x="498" y="1060"/>
      <point x="506" y="1052"/>
      <point x="528" y="1046" type="curve"/>
      <point x="602" y="1056"/>
      <point x="706" y="1064"/>
      <point x="794" y="1094" type="curve" smooth="yes"/>
      <point x="888" y="1126" type="line"/>
      <point x="892" y="1168"/>
      <point x="870" y="1230"/>
    </contour>
  </outline>
</glyph>
<glyph name="comma" format="2">
  <advance width="504"/>
  <unicode hex="002C"/>
  <outline>
    <contour>
      <point x="358" y="178" type="curve"/>
      <point x="342" y="190"/>
      <point x="292" y="198"/>
      <point x="260" y="198" type="curve" smooth="yes"/>
      <point x="226" y="198"/>
      <point x="174" y="186"/>
      <point x="158" y="178" type="curve"/>
      <point x="148" y="164"/>
      <point x="142" y="120"/>
      <point x="142" y="90" type="curve" smooth="yes"/>
      <point x="142" y="60"/>
      <point x="150" y="22"/>
      <point x="158" y="8" type="curve"/>
      <point x="174" y="-4"/>
      <point x="212" y="-14"/>
      <point x="234" y="-18" type="curve"/>
      <point x="234" y="-102"/>
      <point x="172" y="-176"/>
      <point x="82" y="-220" type="curve"/>
      <point x="80" y="-248"/>
      <point x="96" y="-284"/>
      <point x="122" y="-298" type="curve"/>
      <point x="294" y="-234"/>
      <point x="378" y="-92"/>
      <point x="378" y="62" type="curve" smooth="yes"/>
      <point x="378" y="104"/>
      <point x="370" y="154"/>
    </contour>
  </outline>
</glyph>
<glyph name="period" format="2">
  <advance width="496"/>
  <unicode hex="002E"/>
  <outline>
    <contour>
      <point x="132" y="92" type="curve" smooth="yes"/>
      <point x="132" y="68"/>
      <point x="138" y="22"/>
      <point x="148" y="6" type="curve"/>
      <point x="166" y="-4"/>
      <point x="212" y="-14"/>
      <point x="248" y="-14" type="curve" smooth="yes"/>
      <point x="280" y="-14"/>
      <point x="334" y="-4"/>
      <point x="348" y="6" type="curve"/>
      <point x="358" y="22"/>
      <point x="364" y="68"/>
      <point x="364" y="92" type="curve" smooth="yes"/>
      <point x="364" y="116"/>
      <point x="358" y="162"/>
      <point x="348" y="178" type="curve"/>
      <point x="332" y="188"/>
      <point x="280" y="198"/>
      <point x="248" y="198" type="curve" smooth="yes"/>
      <point x="212" y="198"/>
      <point x="166" y="188"/>
      <point x="148" y="178" type="curve"/>
      <point x="138" y="162"/>
      <point x="132" y="116"/>
    </contour>
  </outline>
</glyph>
<glyph name="four" format="2">
  <advance width="1080"/>
  <unicode hex="0034"/>
  <outline>
    <contour>
      <point x="144" y="306" type="curve"/>
      <point x="552" y="306" type="line" smooth="yes"/>
      <point x="572" y="306"/>
      <point x="612" y="308"/>
      <point x="632" y="308" type="curve" smooth="yes"/>
      <point x="766" y="308" type="line" smooth="yes"/>
      <point x="786" y="308"/>
      <point x="824" y="306"/>
      <point x="844" y="306" type="curve" smooth="yes"/>
      <point x="978" y="306" type="line"/>
      <point x="986" y="328"/>
      <point x="988" y="354"/>
      <point x="988" y="370" type="curve" smooth="yes"/>
      <point x="988" y="386"/>
      <point x="988" y="406"/>
      <point x="984" y="428" type="curve"/>
      <point x="844" y="428" type="line" smooth="yes"/>
      <point x="824" y="428"/>
      <point x="786" y="426"/>
      <point x="766" y="426" type="curve" smooth="yes"/>
      <point x="464" y="426" type="line" smooth="yes"/>
      <point x="416" y="426"/>
      <point x="332" y="426"/>
      <point x="258" y="422" type="curve"/>
      <point x="254" y="428" type="line"/>
      <point x="278" y="476"/>
      <point x="314" y="554"/>
      <point x="342" y="618" type="curve" smooth="yes"/>
      <point x="637" y="1254" type="line"/>
      <point x="605" y="1274"/>
      <point x="541" y="1286"/>
      <point x="503" y="1276" type="curve"/>
      <point x="152" y="510" type="line" smooth="yes"/>
      <point x="126" y="450"/>
      <point x="110" y="412"/>
      <point x="110" y="390" type="curve" smooth="yes"/>
      <point x="110" y="362"/>
      <point x="123" y="336"/>
    </contour>
    <contour>
      <point x="630" y="226" type="curve" smooth="yes"/>
      <point x="630" y="0" type="line"/>
      <point x="648" y="-4"/>
      <point x="672" y="-6"/>
      <point x="698" y="-6" type="curve" smooth="yes"/>
      <point x="726" y="-6"/>
      <point x="748" y="-4"/>
      <point x="768" y="0" type="curve"/>
      <point x="768" y="226" type="line" smooth="yes"/>
      <point x="768" y="246"/>
      <point x="766" y="288"/>
      <point x="766" y="308" type="curve" smooth="yes"/>
      <point x="766" y="426" type="line" smooth="yes"/>
      <point x="766" y="446"/>
      <point x="768" y="488"/>
      <point x="768" y="508" type="curve" smooth="yes"/>
      <point x="768" y="818" type="line"/>
      <point x="762" y="824" type="line"/>
      <point x="716" y="824" type="line" smooth="yes"/>
      <point x="666" y="824"/>
      <point x="630" y="790"/>
      <point x="630" y="724" type="curve" smooth="yes"/>
      <point x="630" y="508" type="line" smooth="yes"/>
      <point x="630" y="488"/>
      <point x="632" y="446"/>
      <point x="632" y="426" type="curve" smooth="yes"/>
      <point x="632" y="308" type="line" smooth="yes"/>
      <point x="632" y="288"/>
      <point x="630" y="246"/>
    </contour>
  </outline>
</glyph>
<glyph name="eight" format="2">
  <advance width="1080"/>
  <unicode hex="0038"/>
  <outline>
    <contour>
      <point x="122" y="316" type="curve" smooth="yes"/>
      <point x="122" y="97"/>
      <point x="290" y="-24"/>
      <point x="532" y="-24" type="curve" smooth="yes"/>
      <point x="760" y="-24"/>
      <point x="956" y="109"/>
      <point x="956" y="332" type="curve" smooth="yes"/>
      <point x="956" y="538"/>
      <point x="796" y="671"/>
      <point x="600" y="719" type="curve" smooth="yes"/>
      <point x="576" y="725" type="line" smooth="yes"/>
      <point x="412" y="765"/>
      <point x="304" y="835"/>
      <point x="304" y="965" type="curve" smooth="yes"/>
      <point x="304" y="1097"/>
      <point x="410" y="1180"/>
      <point x="538" y="1180" type="curve" smooth="yes"/>
      <point x="666" y="1180"/>
      <point x="774" y="1103"/>
      <point x="774" y="965" type="curve" smooth="yes"/>
      <point x="774" y="839"/>
      <point x="674" y="726"/>
      <point x="520" y="691" type="curve"/>
      <point x="644" y="647" type="line"/>
      <point x="794" y="690"/>
      <point x="920" y="811"/>
      <point x="920" y="973" type="curve" smooth="yes"/>
      <point x="920" y="1161"/>
      <point x="758" y="1290"/>
      <point x="538" y="1290" type="curve" smooth="yes"/>
      <point x="328" y="1290"/>
      <point x="158" y="1157"/>
      <point x="158" y="961" type="curve" smooth="yes"/>
      <point x="158" y="777"/>
      <point x="312" y="663"/>
      <point x="486" y="621" type="curve" smooth="yes"/>
      <point x="510" y="615" type="line" smooth="yes"/>
      <point x="652" y="579"/>
      <point x="808" y="500"/>
      <point x="808" y="334" type="curve" smooth="yes"/>
      <point x="808" y="175"/>
      <point x="678" y="86"/>
      <point x="536" y="86" type="curve" smooth="yes"/>
      <point x="392" y="86"/>
      <point x="268" y="165"/>
      <point x="268" y="328" type="curve" smooth="yes"/>
      <point x="268" y="471"/>
      <point x="380" y="608"/>
      <point x="568" y="647" type="curve"/>
      <point x="438" y="691" type="line"/>
      <point x="278" y="648"/>
      <point x="122" y="503"/>
    </contour>
  </outline>
</glyph>
<glyph name="nine" format="2">
  <advance width="1080"/>
  <unicode hex="0039"/>
  <outline>
    <contour>
      <point x="526" y="1290" type="curve" smooth="yes"/>
      <point x="276" y="1290"/>
      <point x="116" y="1098"/>
      <point x="116" y="846" type="curve" smooth="yes"/>
      <point x="116" y="563"/>
      <point x="264" y="424"/>
      <point x="482" y="424" type="curve" smooth="yes"/>
      <point x="648" y="424"/>
      <point x="814" y="534"/>
      <point x="872" y="668" type="curve"/>
      <point x="836" y="754" type="line"/>
      <point x="770" y="632"/>
      <point x="628" y="550"/>
      <point x="516" y="550" type="curve" smooth="yes"/>
      <point x="378" y="550"/>
      <point x="266" y="622"/>
      <point x="266" y="856" type="curve" smooth="yes"/>
      <point x="266" y="1050"/>
      <point x="360" y="1174"/>
      <point x="524" y="1174" type="curve" smooth="yes"/>
      <point x="602" y="1174"/>
      <point x="660" y="1138"/>
      <point x="700" y="1088" type="curve" smooth="yes"/>
      <point x="777" y="992"/>
      <point x="798" y="819"/>
      <point x="798" y="732" type="curve" smooth="yes"/>
      <point x="798" y="582" type="line" smooth="yes"/>
      <point x="798" y="315"/>
      <point x="700" y="94"/>
      <point x="448" y="94" type="curve" smooth="yes"/>
      <point x="358" y="94"/>
      <point x="292" y="118"/>
      <point x="244" y="140" type="curve"/>
      <point x="212" y="120"/>
      <point x="190" y="72"/>
      <point x="186" y="36" type="curve"/>
      <point x="248" y="-2"/>
      <point x="350" y="-24"/>
      <point x="452" y="-24" type="curve" smooth="yes"/>
      <point x="782" y="-24"/>
      <point x="946" y="234"/>
      <point x="946" y="620" type="curve" smooth="yes"/>
      <point x="946" y="1027"/>
      <point x="835" y="1135"/>
      <point x="800" y="1176" type="curve" smooth="yes"/>
      <point x="765" y="1217"/>
      <point x="680" y="1290"/>
    </contour>
  </outline>
</glyph>
<glyph name="less" format="2">
  <advance width="1080"/>
  <unicode hex="003C"/>
  <outline>
    <contour>
      <point x="878" y="1090" type="curve"/>
      <point x="120" y="678" type="line"/>
      <point x="106" y="640"/>
      <point x="110" y="596"/>
      <point x="120" y="558" type="curve"/>
      <point x="878" y="146" type="line"/>
      <point x="908" y="168"/>
      <point x="938" y="208"/>
      <point x="944" y="258" type="curve"/>
      <point x="400" y="546" type="line" smooth="yes"/>
      <point x="366" y="564"/>
      <point x="294" y="598"/>
      <point x="268" y="612" type="curve"/>
      <point x="268" y="624" type="line"/>
      <point x="294" y="638"/>
      <point x="366" y="672"/>
      <point x="400" y="690" type="curve" smooth="yes"/>
      <point x="944" y="978" type="line"/>
      <point x="938" y="1028"/>
      <point x="908" y="1068"/>
    </contour>
  </outline>
</glyph>
<glyph name="at" format="2">
  <advance width="1858"/>
  <unicode hex="0040"/>
  <outline>
    <contour>
      <point x="1282" y="306" type="curve" smooth="yes"/>
      <point x="1282" y="826" type="line"/>
      <point x="1200" y="900"/>
      <point x="1088" y="956"/>
      <point x="956" y="956" type="curve" smooth="yes"/>
      <point x="702" y="956"/>
      <point x="562" y="720"/>
      <point x="562" y="452" type="curve" smooth="yes"/>
      <point x="562" y="184"/>
      <point x="686" y="20"/>
      <point x="876" y="20" type="curve" smooth="yes"/>
      <point x="1028" y="20"/>
      <point x="1174" y="140"/>
      <point x="1222" y="258" type="curve"/>
      <point x="1166" y="338" type="line"/>
      <point x="1128" y="240"/>
      <point x="1002" y="138"/>
      <point x="902" y="138" type="curve" smooth="yes"/>
      <point x="762" y="138"/>
      <point x="702" y="276"/>
      <point x="702" y="452" type="curve" smooth="yes"/>
      <point x="702" y="668"/>
      <point x="794" y="848"/>
      <point x="956" y="848" type="curve" smooth="yes"/>
      <point x="1036" y="848"/>
      <point x="1110" y="810"/>
      <point x="1146" y="772" type="curve"/>
      <point x="1146" y="264" type="line" smooth="yes"/>
      <point x="1146" y="122"/>
      <point x="1228" y="30"/>
      <point x="1376" y="30" type="curve" smooth="yes"/>
      <point x="1576" y="30"/>
      <point x="1762" y="228"/>
      <point x="1762" y="572" type="curve" smooth="yes"/>
      <point x="1762" y="1032"/>
      <point x="1440" y="1344"/>
      <point x="962" y="1344" type="curve" smooth="yes"/>
      <point x="462" y="1344"/>
      <point x="116" y="958"/>
      <point x="116" y="456" type="curve" smooth="yes"/>
      <point x="116" y="-64"/>
      <point x="436" y="-358"/>
      <point x="874" y="-358" type="curve" smooth="yes"/>
      <point x="1034" y="-358"/>
      <point x="1186" y="-330"/>
      <point x="1336" y="-276" type="curve"/>
      <point x="1336" y="-238"/>
      <point x="1316" y="-192"/>
      <point x="1294" y="-174" type="curve"/>
      <point x="1174" y="-224"/>
      <point x="1034" y="-246"/>
      <point x="880" y="-246" type="curve" smooth="yes"/>
      <point x="514" y="-246"/>
      <point x="256" y="8"/>
      <point x="256" y="456" type="curve" smooth="yes"/>
      <point x="256" y="896"/>
      <point x="534" y="1238"/>
      <point x="962" y="1238" type="curve" smooth="yes"/>
      <point x="1364" y="1238"/>
      <point x="1624" y="970"/>
      <point x="1624" y="578" type="curve" smooth="yes"/>
      <point x="1624" y="256"/>
      <point x="1498" y="142"/>
      <point x="1386" y="142" type="curve" smooth="yes"/>
      <point x="1316" y="142"/>
      <point x="1282" y="186"/>
    </contour>
  </outline>
</glyph>
<glyph name="D" format="2">
  <advance width="1272"/>
  <unicode hex="0044"/>
  <guideline x="602" y="1410" angle="90"/>
  <anchor x="602" y="0" name="bottom"/>
  <anchor x="602" y="1464" name="top"/>
  <outline>
    <contour>
      <point x="1152" y="682" type="curve" smooth="yes"/>
      <point x="1152" y="914"/>
      <point x="1120" y="1122"/>
      <point x="948" y="1270" type="curve" smooth="yes"/>
      <point x="864" y="1342"/>
      <point x="714" y="1372"/>
      <point x="612" y="1372" type="curve" smooth="yes"/>
      <point x="456" y="1372"/>
      <point x="386" y="1372"/>
      <point x="212" y="1366" type="curve"/>
      <point x="200" y="1354" type="line"/>
      <point x="200" y="12" type="line"/>
      <point x="212" y="0" type="line"/>
      <point x="386" y="-4"/>
      <point x="456" y="-8"/>
      <point x="612" y="-8" type="curve" smooth="yes"/>
      <point x="714" y="-8"/>
      <point x="864" y="22"/>
      <point x="948" y="94" type="curve" smooth="yes"/>
      <point x="1122" y="242"/>
      <point x="1152" y="448"/>
    </contour>
    <contour>
      <point x="1000" y="682" type="curve" smooth="yes"/>
      <point x="1000" y="422"/>
      <point x="950" y="114"/>
      <point x="610" y="114" type="curve" smooth="yes"/>
      <point x="516" y="114"/>
      <point x="448" y="116"/>
      <point x="344" y="116" type="curve"/>
      <point x="344" y="1252" type="line"/>
      <point x="448" y="1252"/>
      <point x="516" y="1250"/>
      <point x="610" y="1250" type="curve" smooth="yes"/>
      <point x="950" y="1250"/>
      <point x="1000" y="944"/>
    </contour>
  </outline>
</glyph>
<glyph name="G" format="2">
  <advance width="1272"/>
  <unicode hex="0047"/>
  <anchor x="670" y="0" name="bottom"/>
  <anchor x="682" y="1464" name="top"/>
  <outline>
    <contour>
      <point x="1128" y="1240" type="curve"/>
      <point x="1020" y="1333"/>
      <point x="841" y="1390"/>
      <point x="687" y="1390" type="curve" smooth="yes"/>
      <point x="402" y="1390"/>
      <point x="116" y="1196"/>
      <point x="116" y="673" type="curve" smooth="yes"/>
      <point x="116" y="336"/>
      <point x="235" y="-24"/>
      <point x="677" y="-24" type="curve" smooth="yes"/>
      <point x="820" y="-24"/>
      <point x="1008" y="14"/>
      <point x="1130" y="62" type="curve"/>
      <point x="1058" y="182" type="line"/>
      <point x="996" y="150"/>
      <point x="851" y="104"/>
      <point x="703" y="104" type="curve" smooth="yes"/>
      <point x="408" y="104"/>
      <point x="268" y="288"/>
      <point x="268" y="670" type="curve" smooth="yes"/>
      <point x="268" y="1114"/>
      <point x="457" y="1260"/>
      <point x="680" y="1260" type="curve" smooth="yes"/>
      <point x="818" y="1260"/>
      <point x="957" y="1204"/>
      <point x="1050" y="1128" type="curve"/>
      <point x="1080" y="1148"/>
      <point x="1116" y="1190"/>
    </contour>
    <contour>
      <point x="988" y="432" type="curve" smooth="yes"/>
      <point x="988" y="60" type="line"/>
      <point x="1130" y="62" type="line"/>
      <point x="1130" y="582" type="line"/>
      <point x="1002" y="628" type="line"/>
      <point x="992" y="584"/>
      <point x="988" y="524"/>
    </contour>
    <contour>
      <point x="1016" y="682" type="curve" smooth="yes"/>
      <point x="712" y="682" type="line"/>
      <point x="706" y="664"/>
      <point x="700" y="639"/>
      <point x="700" y="617" type="curve" smooth="yes"/>
      <point x="700" y="552"/>
      <point x="755" y="552"/>
      <point x="775" y="552" type="curve" smooth="yes"/>
      <point x="1130" y="552" type="line"/>
      <point x="1130" y="582" type="line" smooth="yes"/>
      <point x="1130" y="652"/>
      <point x="1100" y="682"/>
    </contour>
  </outline>
</glyph>
<glyph name="J" format="2">
  <advance width="868"/>
  <unicode hex="004A"/>
  <anchor x="626" y="1464" name="top"/>
  <outline>
    <contour>
      <point x="80" y="172" type="curve"/>
      <point x="50" y="142"/>
      <point x="30" y="106"/>
      <point x="20" y="62" type="curve"/>
      <point x="102" y="12"/>
      <point x="220" y="-20"/>
      <point x="322" y="-20" type="curve" smooth="yes"/>
      <point x="650" y="-20"/>
      <point x="696" y="202"/>
      <point x="696" y="480" type="curve" smooth="yes"/>
      <point x="696" y="1366" type="line"/>
      <point x="678" y="1370"/>
      <point x="652" y="1372"/>
      <point x="626" y="1372" type="curve" smooth="yes"/>
      <point x="598" y="1372"/>
      <point x="572" y="1370"/>
      <point x="552" y="1366" type="curve"/>
      <point x="552" y="450" type="line" smooth="yes"/>
      <point x="552" y="200"/>
      <point x="492" y="104"/>
      <point x="316" y="104" type="curve" smooth="yes"/>
      <point x="236" y="104"/>
      <point x="142" y="134"/>
    </contour>
  </outline>
</glyph>
<glyph name="K" format="2">
  <advance width="1162"/>
  <unicode hex="004B"/>
  <anchor x="606" y="0" name="bottom"/>
  <anchor x="600" y="1464" name="top"/>
  <outline>
    <contour>
      <point x="200" y="1366" type="curve"/>
      <point x="200" y="0" type="line"/>
      <point x="218" y="-4"/>
      <point x="244" y="-6"/>
      <point x="270" y="-6" type="curve" smooth="yes"/>
      <point x="298" y="-6"/>
      <point x="324" y="-4"/>
      <point x="344" y="0" type="curve"/>
      <point x="344" y="1366" type="line"/>
      <point x="324" y="1370"/>
      <point x="298" y="1372"/>
      <point x="270" y="1372" type="curve" smooth="yes"/>
      <point x="244" y="1372"/>
      <point x="218" y="1370"/>
    </contour>
    <contour>
      <point x="1116" y="40" type="curve"/>
      <point x="1088" y="62"/>
      <point x="1062" y="94"/>
      <point x="1036" y="158" type="curve" smooth="yes"/>
      <point x="910" y="474" type="line" smooth="yes"/>
      <point x="837" y="658"/>
      <point x="768" y="738"/>
      <point x="576" y="738" type="curve" smooth="yes"/>
      <point x="268" y="738" type="line"/>
      <point x="268" y="634" type="line"/>
      <point x="402" y="640"/>
      <point x="480" y="640"/>
      <point x="510" y="640" type="curve" smooth="yes"/>
      <point x="644" y="640"/>
      <point x="714" y="584"/>
      <point x="780" y="416" type="curve" smooth="yes"/>
      <point x="910" y="86" type="line" smooth="yes"/>
      <point x="934" y="24"/>
      <point x="952" y="-10"/>
      <point x="1016" y="-10" type="curve" smooth="yes"/>
      <point x="1048" y="-10"/>
      <point x="1096" y="8"/>
    </contour>
    <contour>
      <point x="862" y="1298" type="curve" smooth="yes"/>
      <point x="562" y="816" type="line" smooth="yes"/>
      <point x="542" y="784"/>
      <point x="528" y="768"/>
      <point x="494" y="768" type="curve" smooth="yes"/>
      <point x="433" y="768"/>
      <point x="333" y="766"/>
      <point x="268" y="762" type="curve"/>
      <point x="268" y="676" type="line"/>
      <point x="500" y="676" type="line" smooth="yes"/>
      <point x="594" y="676"/>
      <point x="664" y="726"/>
      <point x="712" y="802" type="curve" smooth="yes"/>
      <point x="1054" y="1350" type="line"/>
      <point x="1042" y="1366" type="line"/>
      <point x="1014" y="1368"/>
      <point x="992" y="1370"/>
      <point x="966" y="1370" type="curve" smooth="yes"/>
      <point x="908" y="1370"/>
      <point x="890" y="1344"/>
    </contour>
  </outline>
</glyph>
<glyph name="U" format="2">
  <advance width="1332"/>
  <unicode hex="0055"/>
  <anchor x="666" y="0" name="bottom"/>
  <anchor x="860" y="8" name="ogonek"/>
  <anchor x="666" y="1464" name="top"/>
  <anchor x="1148" y="1366" name="topright"/>
  <outline>
    <contour>
      <point x="1148" y="464" type="curve" smooth="yes"/>
      <point x="1148" y="1366" type="line"/>
      <point x="1128" y="1370"/>
      <point x="1102" y="1372"/>
      <point x="1074" y="1372" type="curve" smooth="yes"/>
      <point x="1048" y="1372"/>
      <point x="1022" y="1370"/>
      <point x="1004" y="1366" type="curve"/>
      <point x="1004" y="466" type="line" smooth="yes"/>
      <point x="1004" y="224"/>
      <point x="878" y="96"/>
      <point x="666" y="96" type="curve" smooth="yes"/>
      <point x="454" y="96"/>
      <point x="328" y="224"/>
      <point x="328" y="466" type="curve" smooth="yes"/>
      <point x="328" y="1278" type="line" smooth="yes"/>
      <point x="328" y="1340"/>
      <point x="318" y="1372"/>
      <point x="254" y="1372" type="curve" smooth="yes"/>
      <point x="196" y="1372" type="line"/>
      <point x="184" y="1360" type="line"/>
      <point x="184" y="464" type="line" smooth="yes"/>
      <point x="184" y="138"/>
      <point x="386" y="-24"/>
      <point x="664" y="-24" type="curve" smooth="yes"/>
      <point x="946" y="-24"/>
      <point x="1148" y="138"/>
    </contour>
  </outline>
</glyph>
<glyph name="W" format="2">
  <advance width="1632"/>
  <unicode hex="0057"/>
  <anchor x="824" y="0" name="bottom"/>
  <anchor x="824" y="1464" name="top"/>
  <outline>
    <contour>
      <point x="80" y="1360" type="curve"/>
      <point x="340" y="72" type="line" smooth="yes"/>
      <point x="354" y="4"/>
      <point x="398" y="-8"/>
      <point x="442" y="-8" type="curve" smooth="yes"/>
      <point x="476" y="-8"/>
      <point x="534" y="-6"/>
      <point x="570" y="0" type="curve"/>
      <point x="714" y="672" type="line" smooth="yes"/>
      <point x="740" y="790"/>
      <point x="778" y="984"/>
      <point x="816" y="1184" type="curve"/>
      <point x="828" y="1184" type="line"/>
      <point x="864" y="984"/>
      <point x="902" y="786"/>
      <point x="924" y="672" type="curve" smooth="yes"/>
      <point x="1038" y="70" type="line" smooth="yes"/>
      <point x="1050" y="4"/>
      <point x="1084" y="-8"/>
      <point x="1128" y="-8" type="curve" smooth="yes"/>
      <point x="1164" y="-8"/>
      <point x="1228" y="-6"/>
      <point x="1266" y="2" type="curve"/>
      <point x="1566" y="1354" type="line"/>
      <point x="1558" y="1364" type="line"/>
      <point x="1536" y="1370"/>
      <point x="1510" y="1372"/>
      <point x="1488" y="1372" type="curve" smooth="yes"/>
      <point x="1466" y="1372"/>
      <point x="1440" y="1370"/>
      <point x="1422" y="1366" type="curve"/>
      <point x="1242" y="520" type="line" smooth="yes"/>
      <point x="1224" y="434"/>
      <point x="1186" y="248"/>
      <point x="1164" y="118" type="curve"/>
      <point x="1154" y="118"/>
      <point x="1152" y="120"/>
      <point x="1148" y="138" type="curve" smooth="yes"/>
      <point x="918" y="1336" type="line"/>
      <point x="898" y="1340"/>
      <point x="850" y="1342"/>
      <point x="824" y="1342" type="curve" smooth="yes"/>
      <point x="800" y="1342"/>
      <point x="756" y="1340"/>
      <point x="728" y="1336" type="curve"/>
      <point x="476" y="118" type="line"/>
      <point x="466" y="118"/>
      <point x="464" y="118"/>
      <point x="460" y="138" type="curve" smooth="yes"/>
      <point x="442" y="234"/>
      <point x="406" y="434"/>
      <point x="390" y="520" type="curve" smooth="yes"/>
      <point x="238" y="1302" type="line" smooth="yes"/>
      <point x="228" y="1356"/>
      <point x="208" y="1378"/>
      <point x="164" y="1378" type="curve" smooth="yes"/>
      <point x="138" y="1378"/>
      <point x="114" y="1376"/>
    </contour>
  </outline>
</glyph>
<glyph name="bracketleft" format="2">
  <advance width="622"/>
  <unicode hex="005B"/>
  <outline>
    <contour>
      <point x="200" y="1502" type="line"/>
      <point x="200" y="-368" type="line"/>
      <point x="344" y="-320" type="line"/>
      <point x="344" y="1450" type="line"/>
    </contour>
    <contour>
      <point x="212" y="-380" type="line"/>
      <point x="558" y="-366" type="line"/>
      <point x="562" y="-350"/>
      <point x="562" y="-336"/>
      <point x="562" y="-322" type="curve" smooth="yes"/>
      <point x="562" y="-302"/>
      <point x="556" y="-276"/>
      <point x="550" y="-258" type="curve"/>
      <point x="212" y="-250" type="line"/>
      <point x="200" y="-368" type="line"/>
    </contour>
    <contour>
      <point x="558" y="1500" type="curve"/>
      <point x="212" y="1514" type="line"/>
      <point x="200" y="1502" type="line"/>
      <point x="212" y="1384" type="line"/>
      <point x="550" y="1392" type="line"/>
      <point x="556" y="1410"/>
      <point x="562" y="1436"/>
      <point x="562" y="1456" type="curve" smooth="yes"/>
      <point x="562" y="1470"/>
      <point x="562" y="1484"/>
    </contour>
  </outline>
</glyph>
<glyph name="backslash" format="2">
  <advance width="808"/>
  <unicode hex="005C"/>
  <outline>
    <contour>
      <point x="662" y="-310" type="curve"/>
      <point x="28" y="1368" type="line"/>
      <point x="64" y="1396"/>
      <point x="112" y="1414"/>
      <point x="152" y="1414" type="curve"/>
      <point x="786" y="-264" type="line"/>
      <point x="752" y="-290"/>
      <point x="700" y="-308"/>
    </contour>
  </outline>
</glyph>
<glyph name="a" format="2">
  <advance width="1006"/>
  <unicode hex="0061"/>
  <anchor x="492" y="0" name="bottom"/>
  <anchor x="826" y="-14" name="ogonek"/>
  <anchor x="482" y="1084" name="top"/>
  <outline>
    <contour>
      <point x="104" y="266" type="curve" smooth="yes"/>
      <point x="104" y="124"/>
      <point x="198" y="-24"/>
      <point x="392" y="-24" type="curve" smooth="yes"/>
      <point x="564" y="-24"/>
      <point x="696" y="110"/>
      <point x="764" y="190" type="curve"/>
      <point x="740" y="322" type="line"/>
      <point x="654" y="170"/>
      <point x="516" y="96"/>
      <point x="408" y="96" type="curve" smooth="yes"/>
      <point x="302" y="96"/>
      <point x="246" y="176"/>
      <point x="246" y="276" type="curve" smooth="yes"/>
      <point x="246" y="406"/>
      <point x="336" y="480"/>
      <point x="478" y="480" type="curve" smooth="yes"/>
      <point x="570" y="480"/>
      <point x="670" y="474"/>
      <point x="750" y="456" type="curve"/>
      <point x="750" y="556" type="line"/>
      <point x="664" y="578"/>
      <point x="562" y="586"/>
      <point x="478" y="586" type="curve" smooth="yes"/>
      <point x="254" y="586"/>
      <point x="104" y="486"/>
    </contour>
    <contour>
      <point x="892" y="58" type="curve"/>
      <point x="842" y="106"/>
      <point x="836" y="170"/>
      <point x="836" y="256" type="curve" smooth="yes"/>
      <point x="836" y="668" type="line" smooth="yes"/>
      <point x="836" y="882"/>
      <point x="738" y="1000"/>
      <point x="528" y="1000" type="curve" smooth="yes"/>
      <point x="388" y="1000"/>
      <point x="238" y="950"/>
      <point x="140" y="906" type="curve"/>
      <point x="140" y="868"/>
      <point x="164" y="818"/>
      <point x="190" y="796" type="curve"/>
      <point x="296" y="844"/>
      <point x="408" y="880"/>
      <point x="518" y="880" type="curve" smooth="yes"/>
      <point x="630" y="880"/>
      <point x="702" y="824"/>
      <point x="702" y="672" type="curve" smooth="yes"/>
      <point x="702" y="206" type="line"/>
      <point x="702" y="102"/>
      <point x="732" y="24"/>
      <point x="826" y="-14" type="curve"/>
      <point x="856" y="0"/>
      <point x="882" y="32"/>
    </contour>
  </outline>
</glyph>
<glyph name="b" format="2">
  <advance width="1046"/>
  <unicode hex="0062"/>
  <anchor x="522" y="0" name="bottom"/>
  <anchor x="551" y="1520" name="top"/>
  <outline>
    <contour>
      <point x="316" y="50" type="line"/>
      <point x="316" y="1374" type="line" smooth="yes"/>
      <point x="316" y="1436"/>
      <point x="306" y="1470"/>
      <point x="242" y="1470" type="curve" smooth="yes"/>
      <point x="192" y="1470" type="line"/>
      <point x="180" y="1458" type="line"/>
      <point x="180" y="50" type="line"/>
    </contour>
    <contour>
      <point x="942" y="502" type="curve" smooth="yes"/>
      <point x="942" y="792"/>
      <point x="826" y="996"/>
      <point x="602" y="996" type="curve" smooth="yes"/>
      <point x="432" y="996"/>
      <point x="306" y="876"/>
      <point x="258" y="800" type="curve"/>
      <point x="280" y="674" type="line"/>
      <point x="338" y="782"/>
      <point x="460" y="874"/>
      <point x="584" y="874" type="curve" smooth="yes"/>
      <point x="698" y="874"/>
      <point x="802" y="766"/>
      <point x="802" y="502" type="curve" smooth="yes"/>
      <point x="802" y="222"/>
      <point x="672" y="94"/>
      <point x="524" y="94" type="curve" smooth="yes"/>
      <point x="416" y="94"/>
      <point x="340" y="114"/>
      <point x="252" y="164" type="curve"/>
      <point x="180" y="50" type="line"/>
      <point x="294" y="8"/>
      <point x="408" y="-14"/>
      <point x="526" y="-14" type="curve" smooth="yes"/>
      <point x="732" y="-14"/>
      <point x="942" y="136"/>
    </contour>
  </outline>
</glyph>
<glyph name="c" format="2">
  <advance width="938"/>
  <unicode hex="0063"/>
  <anchor x="494" y="0" name="bottom"/>
  <anchor x="502" y="1084" name="top"/>
  <outline>
    <contour>
      <point x="716" y="638" type="curve"/>
      <point x="738" y="634"/>
      <point x="756" y="632"/>
      <point x="776" y="632" type="curve" smooth="yes"/>
      <point x="840" y="632"/>
      <point x="850" y="674"/>
      <point x="850" y="722" type="curve" smooth="yes"/>
      <point x="850" y="822"/>
      <point x="762" y="1004"/>
      <point x="506" y="1004" type="curve" smooth="yes"/>
      <point x="300" y="1004"/>
      <point x="106" y="842"/>
      <point x="106" y="482" type="curve" smooth="yes"/>
      <point x="106" y="234"/>
      <point x="208" y="-24"/>
      <point x="494" y="-24" type="curve" smooth="yes"/>
      <point x="634" y="-24"/>
      <point x="746" y="34"/>
      <point x="838" y="120" type="curve"/>
      <point x="830" y="154"/>
      <point x="798" y="192"/>
      <point x="770" y="210" type="curve"/>
      <point x="696" y="154"/>
      <point x="612" y="98"/>
      <point x="512" y="98" type="curve" smooth="yes"/>
      <point x="350" y="98"/>
      <point x="252" y="224"/>
      <point x="252" y="482" type="curve" smooth="yes"/>
      <point x="252" y="750"/>
      <point x="354" y="892"/>
      <point x="502" y="892" type="curve" smooth="yes"/>
      <point x="674" y="892"/>
      <point x="724" y="752"/>
    </contour>
  </outline>
</glyph>
<glyph name="e" format="2">
  <advance width="1006"/>
  <unicode hex="0065"/>
  <anchor x="516" y="0" name="bottom"/>
  <anchor x="667" y="0" name="ogonek"/>
  <anchor x="510" y="1084" name="top"/>
  <outline>
    <contour>
      <point x="190" y="448" type="line"/>
      <point x="880" y="448" type="line"/>
      <point x="886" y="496"/>
      <point x="888" y="528"/>
      <point x="888" y="576" type="curve" smooth="yes"/>
      <point x="888" y="812"/>
      <point x="760" y="1004"/>
      <point x="504" y="1004" type="curve" smooth="yes"/>
      <point x="252" y="1004"/>
      <point x="106" y="788"/>
      <point x="106" y="492" type="curve" smooth="yes"/>
      <point x="106" y="218"/>
      <point x="202" y="-24"/>
      <point x="498" y="-24" type="curve" smooth="yes"/>
      <point x="634" y="-24"/>
      <point x="768" y="24"/>
      <point x="860" y="88" type="curve"/>
      <point x="856" y="118"/>
      <point x="834" y="162"/>
      <point x="808" y="186" type="curve"/>
      <point x="720" y="136"/>
      <point x="624" y="100"/>
      <point x="516" y="100" type="curve" smooth="yes"/>
      <point x="318" y="100"/>
      <point x="254" y="258"/>
      <point x="254" y="480" type="curve" smooth="yes"/>
      <point x="254" y="524" type="line" smooth="yes"/>
      <point x="254" y="746"/>
      <point x="342" y="896"/>
      <point x="504" y="896" type="curve" smooth="yes"/>
      <point x="678" y="896"/>
      <point x="746" y="754"/>
      <point x="746" y="584" type="curve" smooth="yes"/>
      <point x="746" y="556" type="line"/>
      <point x="190" y="556" type="line"/>
    </contour>
  </outline>
</glyph>
<glyph name="n" format="2">
  <advance width="1090"/>
  <unicode hex="006E"/>
  <anchor x="552" y="0" name="bottom"/>
  <anchor x="554" y="1084" name="top"/>
  <outline>
    <contour>
      <point x="244" y="986" type="curve" smooth="yes"/>
      <point x="192" y="986" type="line"/>
      <point x="180" y="974" type="line"/>
      <point x="180" y="0" type="line"/>
      <point x="198" y="-4"/>
      <point x="222" y="-6"/>
      <point x="250" y="-6" type="curve" smooth="yes"/>
      <point x="276" y="-6"/>
      <point x="300" y="-4"/>
      <point x="318" y="0" type="curve"/>
      <point x="318" y="890" type="line" smooth="yes"/>
      <point x="318" y="952"/>
      <point x="308" y="986"/>
    </contour>
    <contour>
      <point x="922" y="186" type="curve" smooth="yes"/>
      <point x="922" y="688" type="line" smooth="yes"/>
      <point x="922" y="856"/>
      <point x="856" y="998"/>
      <point x="666" y="998" type="curve" smooth="yes"/>
      <point x="520" y="998"/>
      <point x="366" y="920"/>
      <point x="280" y="810" type="curve"/>
      <point x="280" y="660" type="line"/>
      <point x="346" y="776"/>
      <point x="508" y="872"/>
      <point x="634" y="872" type="curve" smooth="yes"/>
      <point x="752" y="872"/>
      <point x="784" y="804"/>
      <point x="784" y="642" type="curve" smooth="yes"/>
      <point x="784" y="80" type="line" smooth="yes"/>
      <point x="784" y="18"/>
      <point x="804" y="-12"/>
      <point x="856" y="-12" type="curve" smooth="yes"/>
      <point x="888" y="-12"/>
      <point x="924" y="0"/>
      <point x="944" y="18" type="curve"/>
      <point x="926" y="62"/>
      <point x="922" y="122"/>
    </contour>
  </outline>
</glyph>
<glyph name="o" format="2">
  <advance width="1038"/>
  <unicode hex="006F"/>
  <anchor x="518" y="0" name="bottom"/>
  <anchor x="662" y="0" name="ogonek"/>
  <anchor x="518" y="1084" name="top"/>
  <anchor x="773" y="960" name="topright"/>
  <outline>
    <contour>
      <point x="932" y="490" type="curve" smooth="yes"/>
      <point x="932" y="784"/>
      <point x="793" y="1004"/>
      <point x="518" y="1004" type="curve" smooth="yes"/>
      <point x="247" y="1004"/>
      <point x="106" y="785"/>
      <point x="106" y="490" type="curve" smooth="yes"/>
      <point x="106" y="197"/>
      <point x="244" y="-24"/>
      <point x="518" y="-24" type="curve" smooth="yes"/>
      <point x="791" y="-24"/>
      <point x="932" y="193"/>
    </contour>
    <contour>
      <point x="250" y="490" type="curve" smooth="yes"/>
      <point x="250" y="688"/>
      <point x="316" y="896"/>
      <point x="520" y="896" type="curve" smooth="yes"/>
      <point x="722" y="896"/>
      <point x="788" y="688"/>
      <point x="788" y="490" type="curve" smooth="yes"/>
      <point x="788" y="290"/>
      <point x="722" y="86"/>
      <point x="520" y="86" type="curve" smooth="yes"/>
      <point x="316" y="86"/>
      <point x="250" y="290"/>
    </contour>
  </outline>
</glyph>
<glyph name="q" format="2">
  <advance width="1046"/>
  <unicode hex="0071"/>
  <outline>
    <contour>
      <point x="104" y="488" type="curve" smooth="yes"/>
      <point x="104" y="184"/>
      <point x="220" y="-16"/>
      <point x="444" y="-16" type="curve" smooth="yes"/>
      <point x="614" y="-16"/>
      <point x="740" y="104"/>
      <point x="788" y="180" type="curve"/>
      <point x="766" y="306" type="line"/>
      <point x="708" y="198"/>
      <point x="586" y="106"/>
      <point x="462" y="106" type="curve" smooth="yes"/>
      <point x="348" y="106"/>
      <point x="244" y="216"/>
      <point x="244" y="488" type="curve" smooth="yes"/>
      <point x="244" y="768"/>
      <point x="366" y="882"/>
      <point x="492" y="882" type="curve" smooth="yes"/>
      <point x="610" y="882"/>
      <point x="730" y="806"/>
      <point x="796" y="720" type="curve"/>
      <point x="810" y="850" type="line"/>
      <point x="732" y="932"/>
      <point x="636" y="1004"/>
      <point x="474" y="1004" type="curve" smooth="yes"/>
      <point x="304" y="1004"/>
      <point x="104" y="850"/>
    </contour>
    <contour>
      <point x="732" y="754" type="curve" smooth="yes"/>
      <point x="732" y="-334" type="line" smooth="yes"/>
      <point x="732" y="-396"/>
      <point x="742" y="-430"/>
      <point x="806" y="-430" type="curve" smooth="yes"/>
      <point x="856" y="-430" type="line"/>
      <point x="868" y="-418" type="line"/>
      <point x="868" y="704" type="line" smooth="yes"/>
      <point x="868" y="790"/>
      <point x="874" y="874"/>
      <point x="924" y="922" type="curve"/>
      <point x="914" y="948"/>
      <point x="888" y="980"/>
      <point x="858" y="994" type="curve"/>
      <point x="756" y="954"/>
      <point x="732" y="858"/>
    </contour>
  </outline>
</glyph>
<glyph name="r" format="2">
  <advance width="700"/>
  <unicode hex="0072"/>
  <anchor x="268" y="0" name="bottom"/>
  <anchor x="394" y="1084" name="top"/>
  <outline>
    <contour>
      <point x="684" y="986" type="curve"/>
      <point x="646" y="992"/>
      <point x="614" y="994"/>
      <point x="594" y="994" type="curve" smooth="yes"/>
      <point x="370" y="994"/>
      <point x="280" y="778"/>
      <point x="280" y="610" type="curve"/>
      <point x="306" y="578" type="line"/>
      <point x="330" y="676"/>
      <point x="402" y="856"/>
      <point x="584" y="856" type="curve"/>
      <point x="606" y="856"/>
      <point x="630" y="856"/>
      <point x="652" y="854" type="curve"/>
      <point x="676" y="890"/>
      <point x="684" y="942"/>
    </contour>
    <contour>
      <point x="126" y="916" type="curve"/>
      <point x="162" y="880"/>
      <point x="198" y="810"/>
      <point x="198" y="712" type="curve" smooth="yes"/>
      <point x="198" y="0" type="line"/>
      <point x="216" y="-4"/>
      <point x="240" y="-6"/>
      <point x="268" y="-6" type="curve" smooth="yes"/>
      <point x="294" y="-6"/>
      <point x="318" y="-4"/>
      <point x="336" y="0" type="curve"/>
      <point x="336" y="726" type="line"/>
      <point x="332" y="858"/>
      <point x="288" y="956"/>
      <point x="188" y="994" type="curve"/>
      <point x="160" y="978"/>
      <point x="134" y="942"/>
    </contour>
  </outline>
</glyph>
<glyph name="t" format="2">
  <advance width="670"/>
  <unicode hex="0074"/>
  <anchor x="387" y="0" name="bottom"/>
  <anchor x="313" y="1360" name="top"/>
  <anchor x="350" y="980" name="topright"/>
  <outline>
    <contour>
      <point x="214" y="1194" type="curve" smooth="yes"/>
      <point x="214" y="152" type="line" smooth="yes"/>
      <point x="214" y="48"/>
      <point x="284" y="-8"/>
      <point x="392" y="-8" type="curve" smooth="yes"/>
      <point x="470" y="-8"/>
      <point x="530" y="-4"/>
      <point x="592" y="4" type="curve"/>
      <point x="594" y="12"/>
      <point x="594" y="22"/>
      <point x="594" y="32" type="curve" smooth="yes"/>
      <point x="594" y="60"/>
      <point x="590" y="88"/>
      <point x="582" y="108" type="curve"/>
      <point x="428" y="108" type="line" smooth="yes"/>
      <point x="370" y="108"/>
      <point x="350" y="142"/>
      <point x="350" y="190" type="curve" smooth="yes"/>
      <point x="350" y="1278" type="line"/>
      <point x="338" y="1290" type="line"/>
      <point x="288" y="1290" type="line" smooth="yes"/>
      <point x="224" y="1290"/>
      <point x="214" y="1256"/>
    </contour>
    <contour>
      <point x="604" y="982" type="curve"/>
      <point x="304" y="978" type="line"/>
      <point x="74" y="982" type="line"/>
      <point x="70" y="962"/>
      <point x="68" y="948"/>
      <point x="68" y="928" type="curve" smooth="yes"/>
      <point x="68" y="908"/>
      <point x="70" y="892"/>
      <point x="74" y="874" type="curve"/>
      <point x="306" y="878" type="line"/>
      <point x="604" y="874" type="line"/>
      <point x="608" y="892"/>
      <point x="610" y="908"/>
      <point x="610" y="928" type="curve" smooth="yes"/>
      <point x="610" y="948"/>
      <point x="608" y="962"/>
    </contour>
  </outline>
</glyph>
<glyph name="u" format="2">
  <advance width="1092"/>
  <unicode hex="0075"/>
  <anchor x="536" y="0" name="bottom"/>
  <anchor x="900" y="-14" name="ogonek"/>
  <anchor x="538" y="1084" name="top"/>
  <anchor x="910" y="980" name="topright"/>
  <outline>
    <contour>
      <point x="910" y="276" type="curve" smooth="yes"/>
      <point x="910" y="980" type="line"/>
      <point x="892" y="984"/>
      <point x="868" y="986"/>
      <point x="840" y="986" type="curve" smooth="yes"/>
      <point x="814" y="986"/>
      <point x="790" y="984"/>
      <point x="772" y="980" type="curve"/>
      <point x="772" y="226" type="line" smooth="yes"/>
      <point x="772" y="122"/>
      <point x="798" y="26"/>
      <point x="900" y="-14" type="curve"/>
      <point x="930" y="0"/>
      <point x="956" y="32"/>
      <point x="966" y="58" type="curve"/>
      <point x="916" y="106"/>
      <point x="910" y="190"/>
    </contour>
    <contour>
      <point x="168" y="794" type="curve" smooth="yes"/>
      <point x="168" y="292" type="line" smooth="yes"/>
      <point x="168" y="124"/>
      <point x="234" y="-18"/>
      <point x="424" y="-18" type="curve" smooth="yes"/>
      <point x="570" y="-18"/>
      <point x="724" y="60"/>
      <point x="810" y="170" type="curve"/>
      <point x="810" y="320" type="line"/>
      <point x="744" y="204"/>
      <point x="582" y="108"/>
      <point x="456" y="108" type="curve" smooth="yes"/>
      <point x="338" y="108"/>
      <point x="306" y="176"/>
      <point x="306" y="338" type="curve" smooth="yes"/>
      <point x="306" y="900" type="line" smooth="yes"/>
      <point x="306" y="962"/>
      <point x="286" y="992"/>
      <point x="234" y="992" type="curve" smooth="yes"/>
      <point x="202" y="992"/>
      <point x="166" y="980"/>
      <point x="146" y="962" type="curve"/>
      <point x="164" y="918"/>
      <point x="168" y="858"/>
    </contour>
  </outline>
</glyph>
<glyph name="w" format="2">
  <advance width="1402"/>
  <unicode hex="0077"/>
  <anchor x="708" y="0" name="bottom"/>
  <anchor x="708" y="1084" name="top"/>
  <outline>
    <contour>
      <point x="68" y="972" type="curve"/>
      <point x="284" y="84" type="line" smooth="yes"/>
      <point x="304" y="2"/>
      <point x="344" y="-8"/>
      <point x="384" y="-8" type="curve" smooth="yes"/>
      <point x="420" y="-8"/>
      <point x="472" y="-6"/>
      <point x="504" y="0" type="curve"/>
      <point x="602" y="402" type="line" smooth="yes"/>
      <point x="628" y="512"/>
      <point x="670" y="696"/>
      <point x="702" y="842" type="curve"/>
      <point x="710" y="842" type="line"/>
      <point x="744" y="696"/>
      <point x="780" y="512"/>
      <point x="804" y="402" type="curve" smooth="yes"/>
      <point x="876" y="84" type="line" smooth="yes"/>
      <point x="894" y="2"/>
      <point x="934" y="-8"/>
      <point x="986" y="-8" type="curve" smooth="yes"/>
      <point x="1020" y="-8"/>
      <point x="1068" y="-6"/>
      <point x="1094" y="-2" type="curve"/>
      <point x="1344" y="972" type="line"/>
      <point x="1340" y="978" type="line"/>
      <point x="1324" y="984"/>
      <point x="1302" y="988"/>
      <point x="1276" y="988" type="curve" smooth="yes"/>
      <point x="1250" y="988"/>
      <point x="1224" y="986"/>
      <point x="1208" y="982" type="curve"/>
      <point x="1086" y="466" type="line" smooth="yes"/>
      <point x="1058" y="350"/>
      <point x="1032" y="236"/>
      <point x="1002" y="104" type="curve"/>
      <point x="992" y="104"/>
      <point x="990" y="106"/>
      <point x="986" y="122" type="curve" smooth="yes"/>
      <point x="792" y="980" type="line"/>
      <point x="774" y="984"/>
      <point x="732" y="986"/>
      <point x="708" y="986" type="curve" smooth="yes"/>
      <point x="686" y="986"/>
      <point x="642" y="984"/>
      <point x="622" y="980" type="curve"/>
      <point x="416" y="104" type="line"/>
      <point x="408" y="104"/>
      <point x="404" y="106"/>
      <point x="400" y="122" type="curve" smooth="yes"/>
      <point x="382" y="202"/>
      <point x="354" y="344"/>
      <point x="326" y="466" type="curve" smooth="yes"/>
      <point x="218" y="940" type="line" smooth="yes"/>
      <point x="208" y="986"/>
      <point x="180" y="994"/>
      <point x="154" y="994" type="curve" smooth="yes"/>
      <point x="132" y="994"/>
      <point x="106" y="990"/>
    </contour>
  </outline>
</glyph>
<glyph name="braceleft" format="2">
  <advance width="626"/>
  <unicode hex="007B"/>
  <outline>
    <contour>
      <point x="82" y="596" type="curve"/>
      <point x="72" y="574"/>
      <point x="72" y="522"/>
      <point x="82" y="500" type="curve"/>
      <point x="170" y="464"/>
      <point x="242" y="380"/>
      <point x="242" y="254" type="curve" smooth="yes"/>
      <point x="242" y="-100" type="line" smooth="yes"/>
      <point x="242" y="-280"/>
      <point x="352" y="-382"/>
      <point x="502" y="-408" type="curve" smooth="yes"/>
      <point x="584" y="-422" type="line"/>
      <point x="604" y="-400"/>
      <point x="616" y="-354"/>
      <point x="608" y="-318" type="curve"/>
      <point x="522" y="-292" type="line" smooth="yes"/>
      <point x="430" y="-264"/>
      <point x="386" y="-198"/>
      <point x="386" y="-98" type="curve" smooth="yes"/>
      <point x="386" y="250" type="line" smooth="yes"/>
      <point x="386" y="370"/>
      <point x="324" y="492"/>
      <point x="226" y="540" type="curve"/>
      <point x="226" y="556" type="line"/>
      <point x="324" y="604"/>
      <point x="386" y="726"/>
      <point x="386" y="846" type="curve" smooth="yes"/>
      <point x="386" y="1192" type="line" smooth="yes"/>
      <point x="386" y="1292"/>
      <point x="430" y="1358"/>
      <point x="522" y="1386" type="curve" smooth="yes"/>
      <point x="608" y="1412" type="line"/>
      <point x="616" y="1448"/>
      <point x="604" y="1494"/>
      <point x="584" y="1516" type="curve"/>
      <point x="502" y="1502" type="line" smooth="yes"/>
      <point x="352" y="1476"/>
      <point x="242" y="1374"/>
      <point x="242" y="1194" type="curve" smooth="yes"/>
      <point x="242" y="842" type="line" smooth="yes"/>
      <point x="242" y="714"/>
      <point x="170" y="632"/>
    </contour>
  </outline>
</glyph>
<glyph name="bar" format="2">
  <advance width="492"/>
  <unicode hex="007C"/>
  <outline>
    <contour>
      <point x="180" y="1550" type="curve"/>
      <point x="180" y="-280" type="line"/>
      <point x="198" y="-284"/>
      <point x="222" y="-286"/>
      <point x="244" y="-286" type="curve" smooth="yes"/>
      <point x="270" y="-286"/>
      <point x="292" y="-284"/>
      <point x="312" y="-280" type="curve"/>
      <point x="312" y="1550" type="line"/>
      <point x="292" y="1554"/>
      <point x="270" y="1556"/>
      <point x="244" y="1556" type="curve" smooth="yes"/>
      <point x="222" y="1556"/>
      <point x="198" y="1554"/>
    </contour>
  </outline>
</glyph>
<glyph name="cent" format="2">
  <advance width="1080"/>
  <unicode hex="00A2"/>
  <outline>
    <contour>
      <point x="566" y="-47" type="curve" smooth="yes"/>
      <point x="585" y="-47"/>
      <point x="612" y="-45"/>
      <point x="630" y="-41" type="curve"/>
      <point x="630" y="215" type="line"/>
      <point x="502" y="215" type="line"/>
      <point x="502" y="-41" type="line"/>
      <point x="520" y="-45"/>
      <point x="547" y="-47"/>
    </contour>
    <contour>
      <point x="508" y="1040" type="line"/>
      <point x="636" y="1040" type="line"/>
      <point x="636" y="1307" type="line"/>
      <point x="618" y="1311"/>
      <point x="593" y="1313"/>
      <point x="572" y="1313" type="curve" smooth="yes"/>
      <point x="551" y="1313"/>
      <point x="526" y="1311"/>
      <point x="508" y="1307" type="curve"/>
    </contour>
    <contour>
      <point x="562" y="137" type="curve" smooth="yes"/>
      <point x="712" y="137"/>
      <point x="846" y="195"/>
      <point x="935" y="289" type="curve"/>
      <point x="923" y="323"/>
      <point x="889" y="361"/>
      <point x="859" y="375" type="curve"/>
      <point x="784" y="311"/>
      <point x="690" y="259"/>
      <point x="580" y="259" type="curve" smooth="yes"/>
      <point x="393" y="259"/>
      <point x="289" y="387"/>
      <point x="289" y="626" type="curve" smooth="yes"/>
      <point x="289" y="874"/>
      <point x="397" y="1015"/>
      <point x="570" y="1015" type="curve" smooth="yes"/>
      <point x="762" y="1015"/>
      <point x="817" y="877"/>
      <point x="809" y="763" type="curve"/>
      <point x="827" y="759"/>
      <point x="845" y="756"/>
      <point x="869" y="756" type="curve" smooth="yes"/>
      <point x="933" y="756"/>
      <point x="943" y="799"/>
      <point x="943" y="847" type="curve" smooth="yes"/>
      <point x="943" y="947"/>
      <point x="848" y="1129"/>
      <point x="574" y="1129" type="curve" smooth="yes"/>
      <point x="345" y="1129"/>
      <point x="139" y="966"/>
      <point x="139" y="626" type="curve" smooth="yes"/>
      <point x="139" y="398"/>
      <point x="248" y="137"/>
    </contour>
  </outline>
</glyph>
<glyph name="sterling" format="2">
  <advance width="1080"/>
  <unicode hex="00A3"/>
  <guideline x="161" y="94" angle="90"/>
  <guideline x="821" y="644" angle="90"/>
  <outline>
    <contour>
      <point x="183" y="0" type="curve"/>
      <point x="872" y="0" type="line" smooth="yes"/>
      <point x="930" y="0"/>
      <point x="965" y="17"/>
      <point x="965" y="126" type="curve"/>
      <point x="604" y="126" type="line" smooth="yes"/>
      <point x="495" y="126"/>
      <point x="387" y="120"/>
      <point x="311" y="118" type="curve"/>
      <point x="306" y="123" type="line"/>
      <point x="399" y="206"/>
      <point x="491" y="322"/>
      <point x="491" y="480" type="curve" smooth="yes"/>
      <point x="491" y="648"/>
      <point x="409" y="794"/>
      <point x="409" y="938" type="curve" smooth="yes"/>
      <point x="409" y="1089"/>
      <point x="507" y="1168"/>
      <point x="625" y="1168" type="curve" smooth="yes"/>
      <point x="710" y="1168"/>
      <point x="796" y="1132"/>
      <point x="872" y="1060" type="curve"/>
      <point x="912" y="1080"/>
      <point x="941" y="1125"/>
      <point x="948" y="1164" type="curve"/>
      <point x="886" y="1221"/>
      <point x="779" y="1293"/>
      <point x="624" y="1293" type="curve" smooth="yes"/>
      <point x="377" y="1293"/>
      <point x="256" y="1108"/>
      <point x="256" y="939" type="curve" smooth="yes"/>
      <point x="256" y="785"/>
      <point x="351" y="628"/>
      <point x="351" y="471" type="curve" smooth="yes"/>
      <point x="351" y="363"/>
      <point x="301" y="291"/>
      <point x="233" y="214" type="curve" smooth="yes"/>
      <point x="208" y="186" type="line" smooth="yes"/>
      <point x="186" y="162"/>
      <point x="161" y="134"/>
      <point x="161" y="96" type="curve" smooth="yes"/>
      <point x="161" y="79"/>
      <point x="164" y="58"/>
    </contour>
    <contour>
      <point x="167" y="549" type="curve"/>
      <point x="391" y="550" type="line"/>
      <point x="795" y="549" type="line"/>
      <point x="799" y="564"/>
      <point x="801" y="585"/>
      <point x="801" y="604" type="curve" smooth="yes"/>
      <point x="801" y="625"/>
      <point x="799" y="642"/>
      <point x="795" y="658" type="curve"/>
      <point x="391" y="656" type="line"/>
      <point x="167" y="658" type="line"/>
      <point x="163" y="638"/>
      <point x="161" y="620"/>
      <point x="161" y="601" type="curve" smooth="yes"/>
      <point x="161" y="581"/>
      <point x="163" y="565"/>
    </contour>
  </outline>
</glyph>
<glyph name="currency" format="2">
  <advance width="1080"/>
  <unicode hex="00A4"/>
  <outline>
    <contour>
      <point x="539" y="257" type="curve" smooth="yes"/>
      <point x="759" y="257"/>
      <point x="916" y="419"/>
      <point x="916" y="632" type="curve" smooth="yes"/>
      <point x="916" y="847"/>
      <point x="759" y="1009"/>
      <point x="539" y="1009" type="curve" smooth="yes"/>
      <point x="321" y="1009"/>
      <point x="164" y="847"/>
      <point x="164" y="632" type="curve" smooth="yes"/>
      <point x="164" y="419"/>
      <point x="321" y="257"/>
    </contour>
    <contour>
      <point x="539" y="367" type="curve" smooth="yes"/>
      <point x="394" y="367"/>
      <point x="303" y="487"/>
      <point x="303" y="632" type="curve" smooth="yes"/>
      <point x="303" y="777"/>
      <point x="394" y="899"/>
      <point x="539" y="899" type="curve" smooth="yes"/>
      <point x="686" y="899"/>
      <point x="777" y="777"/>
      <point x="777" y="632" type="curve" smooth="yes"/>
      <point x="777" y="487"/>
      <point x="686" y="367"/>
    </contour>
    <contour>
      <point x="150" y="161" type="curve"/>
      <point x="356" y="353" type="line"/>
      <point x="260" y="451" type="line"/>
      <point x="66" y="245" type="line"/>
      <point x="83" y="210"/>
      <point x="115" y="178"/>
    </contour>
    <contour>
      <point x="260" y="815" type="line"/>
      <point x="356" y="913" type="line"/>
      <point x="150" y="1105" type="line"/>
      <point x="115" y="1088"/>
      <point x="83" y="1056"/>
      <point x="66" y="1021" type="curve"/>
    </contour>
    <contour>
      <point x="820" y="815" type="line"/>
      <point x="1014" y="1021" type="line"/>
      <point x="997" y="1056"/>
      <point x="965" y="1088"/>
      <point x="930" y="1105" type="curve"/>
      <point x="724" y="913" type="line"/>
    </contour>
    <contour>
      <point x="930" y="161" type="line"/>
      <point x="965" y="178"/>
      <point x="997" y="210"/>
      <point x="1014" y="245" type="curve"/>
      <point x="820" y="451" type="line"/>
      <point x="724" y="353" type="line"/>
    </contour>
  </outline>
</glyph>
<glyph name="brokenbar" format="2">
  <advance width="480"/>
  <unicode hex="00A6"/>
  <outline>
    <contour>
      <point x="174" y="494" type="curve"/>
      <point x="174" y="-280" type="line"/>
      <point x="192" y="-284"/>
      <point x="216" y="-286"/>
      <point x="238" y="-286" type="curve" smooth="yes"/>
      <point x="264" y="-286"/>
      <point x="286" y="-284"/>
      <point x="306" y="-280" type="curve"/>
      <point x="306" y="494" type="line"/>
      <point x="286" y="498"/>
      <point x="264" y="500"/>
      <point x="238" y="500" type="curve" smooth="yes"/>
      <point x="216" y="500"/>
      <point x="192" y="498"/>
    </contour>
    <contour>
      <point x="174" y="1550" type="curve"/>
      <point x="174" y="776" type="line"/>
      <point x="192" y="772"/>
      <point x="216" y="770"/>
      <point x="238" y="770" type="curve" smooth="yes"/>
      <point x="264" y="770"/>
      <point x="286" y="772"/>
      <point x="306" y="776" type="curve"/>
      <point x="306" y="1550" type="line"/>
      <point x="286" y="1554"/>
      <point x="264" y="1556"/>
      <point x="238" y="1556" type="curve" smooth="yes"/>
      <point x="216" y="1556"/>
      <point x="192" y="1554"/>
    </contour>
  </outline>
</glyph>
<glyph name="section" format="2">
  <advance width="952"/>
  <unicode hex="00A7"/>
  <outline>
    <contour>
      <point x="506" y="342" type="curve"/>
      <point x="562" y="266" type="line"/>
      <point x="724" y="310"/>
      <point x="884" y="432"/>
      <point x="884" y="600" type="curve" smooth="yes"/>
      <point x="884" y="776"/>
      <point x="728" y="858"/>
      <point x="566" y="922" type="curve" smooth="yes"/>
      <point x="448" y="968" type="line" smooth="yes"/>
      <point x="352" y="1006"/>
      <point x="294" y="1052"/>
      <point x="294" y="1126" type="curve" smooth="yes"/>
      <point x="294" y="1218"/>
      <point x="372" y="1276"/>
      <point x="480" y="1276" type="curve" smooth="yes"/>
      <point x="578" y="1276"/>
      <point x="676" y="1240"/>
      <point x="738" y="1212" type="curve"/>
      <point x="766" y="1238"/>
      <point x="782" y="1284"/>
      <point x="782" y="1322" type="curve"/>
      <point x="702" y="1360"/>
      <point x="582" y="1390"/>
      <point x="484" y="1390" type="curve" smooth="yes"/>
      <point x="304" y="1390"/>
      <point x="150" y="1288"/>
      <point x="150" y="1118" type="curve" smooth="yes"/>
      <point x="150" y="962"/>
      <point x="274" y="878"/>
      <point x="406" y="826" type="curve" smooth="yes"/>
      <point x="520" y="782" type="line" smooth="yes"/>
      <point x="628" y="740"/>
      <point x="738" y="688"/>
      <point x="738" y="584" type="curve" smooth="yes"/>
      <point x="738" y="464"/>
      <point x="624" y="386"/>
    </contour>
    <contour>
      <point x="448" y="844" type="curve"/>
      <point x="392" y="920" type="line"/>
      <point x="230" y="876"/>
      <point x="70" y="754"/>
      <point x="70" y="586" type="curve" smooth="yes"/>
      <point x="70" y="410"/>
      <point x="226" y="328"/>
      <point x="388" y="264" type="curve" smooth="yes"/>
      <point x="506" y="218" type="line" smooth="yes"/>
      <point x="602" y="180"/>
      <point x="660" y="134"/>
      <point x="660" y="60" type="curve" smooth="yes"/>
      <point x="660" y="-32"/>
      <point x="584" y="-90"/>
      <point x="462" y="-90" type="curve" smooth="yes"/>
      <point x="344" y="-90"/>
      <point x="254" y="-48"/>
      <point x="192" y="-14" type="curve"/>
      <point x="166" y="-34"/>
      <point x="138" y="-82"/>
      <point x="138" y="-120" type="curve"/>
      <point x="214" y="-170"/>
      <point x="346" y="-204"/>
      <point x="454" y="-204" type="curve" smooth="yes"/>
      <point x="652" y="-204"/>
      <point x="804" y="-102"/>
      <point x="804" y="68" type="curve" smooth="yes"/>
      <point x="804" y="224"/>
      <point x="680" y="308"/>
      <point x="548" y="360" type="curve" smooth="yes"/>
      <point x="434" y="404" type="line" smooth="yes"/>
      <point x="326" y="446"/>
      <point x="216" y="498"/>
      <point x="216" y="602" type="curve" smooth="yes"/>
      <point x="216" y="722"/>
      <point x="330" y="800"/>
    </contour>
  </outline>
</glyph>
<glyph name="degree" format="2">
  <advance width="704"/>
  <unicode hex="00B0"/>
  <outline>
    <contour>
      <point x="60" y="994" type="curve" smooth="yes"/>
      <point x="60" y="827"/>
      <point x="187" y="698"/>
      <point x="352" y="698" type="curve" smooth="yes"/>
      <point x="517" y="698"/>
      <point x="644" y="827"/>
      <point x="644" y="994" type="curve" smooth="yes"/>
      <point x="644" y="1161"/>
      <point x="517" y="1290"/>
      <point x="352" y="1290" type="curve" smooth="yes"/>
      <point x="187" y="1290"/>
      <point x="60" y="1161"/>
    </contour>
    <contour>
      <point x="180" y="994" type="curve" smooth="yes"/>
      <point x="180" y="1099"/>
      <point x="246" y="1182"/>
      <point x="352" y="1182" type="curve" smooth="yes"/>
      <point x="456" y="1182"/>
      <point x="522" y="1099"/>
      <point x="522" y="994" type="curve" smooth="yes"/>
      <point x="522" y="887"/>
      <point x="456" y="806"/>
      <point x="352" y="806" type="curve" smooth="yes"/>
      <point x="246" y="806"/>
      <point x="180" y="887"/>
    </contour>
  </outline>
</glyph>
<glyph name="plusminus" format="2">
  <advance width="1080"/>
  <unicode hex="00B1"/>
  <outline>
    <contour>
      <point x="148" y="730" type="curve"/>
      <point x="400" y="730" type="line" smooth="yes"/>
      <point x="420" y="730"/>
      <point x="460" y="728"/>
      <point x="480" y="728" type="curve" smooth="yes"/>
      <point x="600" y="728" type="line" smooth="yes"/>
      <point x="620" y="728"/>
      <point x="660" y="730"/>
      <point x="680" y="730" type="curve" smooth="yes"/>
      <point x="932" y="730" type="line"/>
      <point x="936" y="710"/>
      <point x="938" y="692"/>
      <point x="938" y="664" type="curve" smooth="yes"/>
      <point x="938" y="638"/>
      <point x="936" y="616"/>
      <point x="932" y="598" type="curve"/>
      <point x="680" y="598" type="line" smooth="yes"/>
      <point x="660" y="598"/>
      <point x="620" y="600"/>
      <point x="600" y="600" type="curve" smooth="yes"/>
      <point x="480" y="600" type="line" smooth="yes"/>
      <point x="460" y="600"/>
      <point x="420" y="598"/>
      <point x="400" y="598" type="curve" smooth="yes"/>
      <point x="148" y="598" type="line"/>
      <point x="144" y="616"/>
      <point x="142" y="638"/>
      <point x="142" y="664" type="curve" smooth="yes"/>
      <point x="142" y="692"/>
      <point x="144" y="710"/>
    </contour>
    <contour>
      <point x="470" y="800" type="curve" smooth="yes"/>
      <point x="470" y="1058" type="line"/>
      <point x="490" y="1062"/>
      <point x="512" y="1064"/>
      <point x="540" y="1064" type="curve" smooth="yes"/>
      <point x="566" y="1064"/>
      <point x="592" y="1062"/>
      <point x="610" y="1058" type="curve"/>
      <point x="610" y="800" type="line" smooth="yes"/>
      <point x="610" y="780"/>
      <point x="608" y="740"/>
      <point x="608" y="720" type="curve" smooth="yes"/>
      <point x="608" y="608" type="line" smooth="yes"/>
      <point x="608" y="588"/>
      <point x="610" y="548"/>
      <point x="610" y="528" type="curve" smooth="yes"/>
      <point x="610" y="268" type="line"/>
      <point x="592" y="264"/>
      <point x="566" y="262"/>
      <point x="540" y="262" type="curve" smooth="yes"/>
      <point x="512" y="262"/>
      <point x="490" y="264"/>
      <point x="470" y="268" type="curve"/>
      <point x="470" y="528" type="line" smooth="yes"/>
      <point x="470" y="548"/>
      <point x="472" y="588"/>
      <point x="472" y="608" type="curve" smooth="yes"/>
      <point x="472" y="720" type="line" smooth="yes"/>
      <point x="472" y="740"/>
      <point x="470" y="780"/>
    </contour>
    <contour>
      <point x="148" y="0" type="curve"/>
      <point x="932" y="0" type="line"/>
      <point x="936" y="22"/>
      <point x="938" y="40"/>
      <point x="938" y="66" type="curve" smooth="yes"/>
      <point x="938" y="94"/>
      <point x="936" y="108"/>
      <point x="932" y="132" type="curve"/>
      <point x="148" y="132" type="line"/>
      <point x="144" y="108"/>
      <point x="142" y="94"/>
      <point x="142" y="66" type="curve" smooth="yes"/>
      <point x="142" y="40"/>
      <point x="144" y="22"/>
    </contour>
  </outline>
</glyph>
<glyph name="twosuperior" format="2">
  <advance width="840"/>
  <unicode hex="00B2"/>
  <guideline x="500" y="1032" angle="218.8845"/>
  <outline>
    <contour>
      <point x="146" y="1298" type="curve"/>
      <point x="162" y="1276"/>
      <point x="204" y="1254"/>
      <point x="240" y="1248" type="curve"/>
      <point x="274" y="1322"/>
      <point x="330" y="1374"/>
      <point x="403" y="1374" type="curve" smooth="yes"/>
      <point x="478" y="1374"/>
      <point x="532" y="1319"/>
      <point x="532" y="1241" type="curve" smooth="yes"/>
      <point x="532" y="1167"/>
      <point x="475" y="1111"/>
      <point x="420" y="1068" type="curve" smooth="yes"/>
      <point x="296" y="972" type="line" smooth="yes"/>
      <point x="203" y="900"/>
      <point x="132" y="800"/>
      <point x="132" y="732" type="curve" smooth="yes"/>
      <point x="132" y="703"/>
      <point x="144" y="683"/>
      <point x="174" y="652" type="curve"/>
      <point x="264" y="652" type="line"/>
      <point x="264" y="726" type="line" smooth="yes"/>
      <point x="264" y="775"/>
      <point x="301" y="828"/>
      <point x="394" y="897" type="curve" smooth="yes"/>
      <point x="500" y="976" type="line" smooth="yes"/>
      <point x="580" y="1035"/>
      <point x="664" y="1115"/>
      <point x="664" y="1240" type="curve" smooth="yes"/>
      <point x="664" y="1373"/>
      <point x="565" y="1484"/>
      <point x="411" y="1484" type="curve" smooth="yes"/>
      <point x="274" y="1484"/>
      <point x="184" y="1396"/>
    </contour>
    <contour>
      <point x="686" y="766" type="curve"/>
      <point x="404" y="766" type="line" smooth="yes"/>
      <point x="344" y="766"/>
      <point x="228" y="762"/>
      <point x="166" y="736" type="curve"/>
      <point x="184" y="652" type="line"/>
      <point x="620" y="652" type="line" smooth="yes"/>
      <point x="666" y="652"/>
      <point x="686" y="676"/>
    </contour>
  </outline>
</glyph>
<glyph name="ordmasculine" format="2">
  <advance width="770"/>
  <unicode hex="00BA"/>
  <outline>
    <contour>
      <point x="706" y="902" type="curve" smooth="yes"/>
      <point x="706" y="1020"/>
      <point x="674" y="1130"/>
      <point x="598" y="1212" type="curve" smooth="yes"/>
      <point x="548" y="1266"/>
      <point x="470" y="1290"/>
      <point x="384" y="1290" type="curve" smooth="yes"/>
      <point x="300" y="1290"/>
      <point x="226" y="1262"/>
      <point x="172" y="1212" type="curve" smooth="yes"/>
      <point x="90" y="1136"/>
      <point x="64" y="1020"/>
      <point x="64" y="902" type="curve" smooth="yes"/>
      <point x="64" y="780"/>
      <point x="95" y="670"/>
      <point x="172" y="590" type="curve" smooth="yes"/>
      <point x="223" y="537"/>
      <point x="300" y="512"/>
      <point x="384" y="512" type="curve" smooth="yes"/>
      <point x="470" y="512"/>
      <point x="544" y="540"/>
      <point x="598" y="590" type="curve" smooth="yes"/>
      <point x="679" y="665"/>
      <point x="706" y="780"/>
    </contour>
    <contour>
      <point x="194" y="902" type="curve" smooth="yes"/>
      <point x="194" y="1046"/>
      <point x="242" y="1188"/>
      <point x="386" y="1188" type="curve" smooth="yes"/>
      <point x="528" y="1188"/>
      <point x="576" y="1046"/>
      <point x="576" y="902" type="curve" smooth="yes"/>
      <point x="576" y="756"/>
      <point x="528" y="616"/>
      <point x="386" y="616" type="curve" smooth="yes"/>
      <point x="242" y="616"/>
      <point x="194" y="756"/>
    </contour>
  </outline>
</glyph>
<glyph name="Aring" format="2">
  <advance width="1189"/>
  <unicode hex="00C5"/>
  <anchor x="595" y="0" name="bottom"/>
  <anchor x="1134" y="8" name="ogonek"/>
  <anchor x="594" y="1803" name="top"/>
  <outline>
    <contour>
      <point x="512" y="1366" type="line"/>
      <point x="54" y="8" type="line"/>
      <point x="58" y="2" type="line"/>
      <point x="80" y="-4"/>
      <point x="98" y="-8"/>
      <point x="128" y="-8" type="curve" smooth="yes"/>
      <point x="150" y="-8"/>
      <point x="174" y="-6"/>
      <point x="192" y="-2" type="curve"/>
      <point x="514" y="978" type="line" smooth="yes"/>
      <point x="530" y="1028"/>
      <point x="560" y="1132"/>
      <point x="580" y="1208" type="curve"/>
      <point x="590" y="1208" type="line"/>
      <point x="614" y="1120"/>
      <point x="652" y="996"/>
      <point x="692" y="878" type="curve" smooth="yes"/>
      <point x="962" y="62" type="line" smooth="yes"/>
      <point x="982" y="4"/>
      <point x="1002" y="-12"/>
      <point x="1048" y="-12" type="curve" smooth="yes"/>
      <point x="1084" y="-12"/>
      <point x="1112" y="-6"/>
      <point x="1134" y="8" type="curve"/>
      <point x="674" y="1366" type="line"/>
    </contour>
    <contour>
      <point x="452" y="358" type="curve" smooth="yes"/>
      <point x="720" y="358" type="line" smooth="yes"/>
      <point x="732" y="358"/>
      <point x="862" y="360"/>
      <point x="876" y="360" type="curve" smooth="yes"/>
      <point x="930" y="360" type="line"/>
      <point x="888" y="484" type="line"/>
      <point x="840" y="484" type="line" smooth="yes"/>
      <point x="826" y="484"/>
      <point x="716" y="486"/>
      <point x="704" y="486" type="curve" smooth="yes"/>
      <point x="470" y="486" type="line" smooth="yes"/>
      <point x="458" y="486"/>
      <point x="352" y="484"/>
      <point x="338" y="484" type="curve" smooth="yes"/>
      <point x="290" y="484" type="line"/>
      <point x="244" y="360" type="line"/>
      <point x="298" y="360" type="line" smooth="yes"/>
      <point x="312" y="360"/>
      <point x="440" y="358"/>
    </contour>
    <contour>
      <point x="378" y="1552" type="curve" smooth="yes"/>
      <point x="378" y="1438"/>
      <point x="470" y="1344"/>
      <point x="594" y="1344" type="curve" smooth="yes"/>
      <point x="718" y="1344"/>
      <point x="810" y="1438"/>
      <point x="810" y="1552" type="curve" smooth="yes"/>
      <point x="810" y="1666"/>
      <point x="718" y="1760"/>
      <point x="594" y="1760" type="curve" smooth="yes"/>
      <point x="470" y="1760"/>
      <point x="378" y="1666"/>
    </contour>
    <contour>
      <point x="492" y="1552" type="curve" smooth="yes"/>
      <point x="492" y="1618"/>
      <point x="536" y="1666"/>
      <point x="594" y="1666" type="curve" smooth="yes"/>
      <point x="652" y="1666"/>
      <point x="696" y="1618"/>
      <point x="696" y="1552" type="curve" smooth="yes"/>
      <point x="696" y="1486"/>
      <point x="652" y="1438"/>
      <point x="594" y="1438" type="curve" smooth="yes"/>
      <point x="536" y="1438"/>
      <point x="492" y="1486"/>
    </contour>
  </outline>
</glyph>
<glyph name="Eth" format="2">
  <advance width="1304"/>
  <unicode hex="00D0"/>
  <outline>
    <contour>
      <point x="1184" y="684" type="curve" smooth="yes"/>
      <point x="1184" y="916"/>
      <point x="1152" y="1122"/>
      <point x="980" y="1270" type="curve" smooth="yes"/>
      <point x="896" y="1342"/>
      <point x="746" y="1372"/>
      <point x="644" y="1372" type="curve" smooth="yes"/>
      <point x="488" y="1372"/>
      <point x="418" y="1372"/>
      <point x="244" y="1366" type="curve"/>
      <point x="232" y="1354" type="line"/>
      <point x="232" y="12" type="line"/>
      <point x="244" y="0" type="line"/>
      <point x="418" y="-4"/>
      <point x="488" y="-8"/>
      <point x="644" y="-8" type="curve" smooth="yes"/>
      <point x="746" y="-8"/>
      <point x="896" y="22"/>
      <point x="980" y="94" type="curve" smooth="yes"/>
      <point x="1154" y="242"/>
      <point x="1184" y="450"/>
    </contour>
    <contour>
      <point x="1032" y="684" type="curve" smooth="yes"/>
      <point x="1032" y="424"/>
      <point x="982" y="114"/>
      <point x="642" y="114" type="curve" smooth="yes"/>
      <point x="548" y="114"/>
      <point x="480" y="116"/>
      <point x="376" y="116" type="curve"/>
      <point x="376" y="1252" type="line"/>
      <point x="480" y="1252"/>
      <point x="548" y="1250"/>
      <point x="642" y="1250" type="curve" smooth="yes"/>
      <point x="982" y="1250"/>
      <point x="1032" y="946"/>
    </contour>
    <contour>
      <point x="66" y="630" type="curve"/>
      <point x="720" y="630" type="line"/>
      <point x="724" y="648"/>
      <point x="726" y="664"/>
      <point x="726" y="690" type="curve" smooth="yes"/>
      <point x="726" y="718"/>
      <point x="724" y="734"/>
      <point x="720" y="754" type="curve"/>
      <point x="66" y="754" type="line"/>
      <point x="62" y="734"/>
      <point x="60" y="718"/>
      <point x="60" y="690" type="curve" smooth="yes"/>
      <point x="60" y="664"/>
      <point x="62" y="648"/>
    </contour>
  </outline>
</glyph>
<glyph name="multiply" format="2">
  <advance width="1080"/>
  <unicode hex="00D7"/>
  <outline>
    <contour>
      <point x="402" y="664" type="curve" smooth="yes"/>
      <point x="172" y="892" type="line"/>
      <point x="182" y="914"/>
      <point x="192" y="930"/>
      <point x="210" y="950" type="curve" smooth="yes"/>
      <point x="226" y="968"/>
      <point x="246" y="980"/>
      <point x="268" y="988" type="curve"/>
      <point x="496" y="758" type="line" smooth="yes"/>
      <point x="510" y="744"/>
      <point x="536" y="716"/>
      <point x="550" y="702" type="curve" smooth="yes"/>
      <point x="622" y="630" type="line" smooth="yes"/>
      <point x="636" y="616"/>
      <point x="664" y="590"/>
      <point x="678" y="576" type="curve" smooth="yes"/>
      <point x="908" y="348" type="line"/>
      <point x="898" y="324"/>
      <point x="886" y="306"/>
      <point x="870" y="290" type="curve" smooth="yes"/>
      <point x="854" y="274"/>
      <point x="834" y="260"/>
      <point x="812" y="252" type="curve"/>
      <point x="584" y="482" type="line" smooth="yes"/>
      <point x="570" y="496"/>
      <point x="544" y="524"/>
      <point x="530" y="538" type="curve" smooth="yes"/>
      <point x="458" y="610" type="line" smooth="yes"/>
      <point x="444" y="624"/>
      <point x="416" y="650"/>
    </contour>
    <contour>
      <point x="496" y="482" type="curve" smooth="yes"/>
      <point x="268" y="252" type="line"/>
      <point x="244" y="262"/>
      <point x="226" y="276"/>
      <point x="212" y="290" type="curve" smooth="yes"/>
      <point x="198" y="304"/>
      <point x="182" y="324"/>
      <point x="172" y="348" type="curve"/>
      <point x="402" y="576" type="line" smooth="yes"/>
      <point x="416" y="590"/>
      <point x="444" y="616"/>
      <point x="458" y="630" type="curve" smooth="yes"/>
      <point x="530" y="702" type="line" smooth="yes"/>
      <point x="544" y="716"/>
      <point x="570" y="744"/>
      <point x="584" y="758" type="curve" smooth="yes"/>
      <point x="812" y="988" type="line"/>
      <point x="832" y="980"/>
      <point x="852" y="968"/>
      <point x="868" y="952" type="curve" smooth="yes"/>
      <point x="884" y="936"/>
      <point x="898" y="916"/>
      <point x="908" y="892" type="curve"/>
      <point x="678" y="664" type="line" smooth="yes"/>
      <point x="664" y="650"/>
      <point x="636" y="624"/>
      <point x="622" y="610" type="curve" smooth="yes"/>
      <point x="550" y="538" type="line" smooth="yes"/>
      <point x="536" y="524"/>
      <point x="510" y="496"/>
    </contour>
  </outline>
</glyph>
<glyph name="Oslash" format="2">
  <advance width="1304"/>
  <unicode hex="00D8"/>
  <anchor x="652" y="1464" name="top"/>
  <outline>
    <contour>
      <point x="882" y="1252" type="line"/>
      <point x="338" y="210" type="line"/>
      <point x="208" y="-24" type="line"/>
      <point x="228" y="-50"/>
      <point x="276" y="-76"/>
      <point x="312" y="-80" type="curve"/>
      <point x="422" y="114" type="line"/>
      <point x="966" y="1156" type="line"/>
      <point x="1096" y="1390" type="line"/>
      <point x="1076" y="1416"/>
      <point x="1028" y="1442"/>
      <point x="992" y="1446" type="curve"/>
    </contour>
    <contour>
      <point x="268" y="684" type="curve" smooth="yes"/>
      <point x="268" y="946"/>
      <point x="342" y="1268"/>
      <point x="652" y="1268" type="curve" smooth="yes"/>
      <point x="962" y="1268"/>
      <point x="1034" y="946"/>
      <point x="1034" y="684" type="curve" smooth="yes"/>
      <point x="1034" y="422"/>
      <point x="962" y="98"/>
      <point x="652" y="98" type="curve" smooth="yes"/>
      <point x="342" y="98"/>
      <point x="268" y="422"/>
    </contour>
    <contour>
      <point x="116" y="684" type="curve" smooth="yes"/>
      <point x="116" y="297"/>
      <point x="285" y="-24"/>
      <point x="652" y="-24" type="curve" smooth="yes"/>
      <point x="1017" y="-24"/>
      <point x="1188" y="294"/>
      <point x="1188" y="684" type="curve" smooth="yes"/>
      <point x="1188" y="1070"/>
      <point x="1018" y="1390"/>
      <point x="652" y="1390" type="curve" smooth="yes"/>
      <point x="288" y="1390"/>
      <point x="116" y="1072"/>
    </contour>
  </outline>
</glyph>
<glyph name="ae" format="2">
  <advance width="1596"/>
  <unicode hex="00E6"/>
  <anchor x="811" y="1084" name="top"/>
  <outline>
    <contour>
      <point x="104" y="268" type="curve" smooth="yes"/>
      <point x="104" y="122"/>
      <point x="198" y="-24"/>
      <point x="392" y="-24" type="curve" smooth="yes"/>
      <point x="574" y="-24"/>
      <point x="720" y="98"/>
      <point x="792" y="200" type="curve"/>
      <point x="762" y="346" type="line"/>
      <point x="678" y="168"/>
      <point x="524" y="96"/>
      <point x="408" y="96" type="curve" smooth="yes"/>
      <point x="302" y="96"/>
      <point x="246" y="178"/>
      <point x="246" y="278" type="curve" smooth="yes"/>
      <point x="246" y="408"/>
      <point x="336" y="480"/>
      <point x="478" y="480" type="curve" smooth="yes"/>
      <point x="570" y="480"/>
      <point x="666" y="468"/>
      <point x="750" y="450" type="curve"/>
      <point x="750" y="556" type="line"/>
      <point x="664" y="574"/>
      <point x="576" y="586"/>
      <point x="478" y="586" type="curve" smooth="yes"/>
      <point x="254" y="586"/>
      <point x="104" y="488"/>
    </contour>
    <contour>
      <point x="702" y="496" type="line"/>
      <point x="836" y="496" type="line"/>
      <point x="836" y="662" type="line" smooth="yes"/>
      <point x="836" y="876"/>
      <point x="738" y="1000"/>
      <point x="528" y="1000" type="curve" smooth="yes"/>
      <point x="388" y="1000"/>
      <point x="238" y="950"/>
      <point x="140" y="906" type="curve"/>
      <point x="140" y="868"/>
      <point x="164" y="818"/>
      <point x="190" y="796" type="curve"/>
      <point x="296" y="844"/>
      <point x="408" y="880"/>
      <point x="518" y="880" type="curve" smooth="yes"/>
      <point x="630" y="880"/>
      <point x="702" y="824"/>
      <point x="702" y="672" type="curve" smooth="yes"/>
    </contour>
    <contour>
      <point x="780" y="448" type="line"/>
      <point x="1470" y="448" type="line"/>
      <point x="1476" y="496"/>
      <point x="1478" y="528"/>
      <point x="1478" y="576" type="curve" smooth="yes"/>
      <point x="1478" y="812"/>
      <point x="1350" y="1004"/>
      <point x="1094" y="1004" type="curve" smooth="yes"/>
      <point x="798" y="1004"/>
      <point x="698" y="706"/>
      <point x="700" y="496" type="curve" smooth="yes"/>
      <point x="704" y="128"/>
      <point x="850" y="-24"/>
      <point x="1088" y="-24" type="curve" smooth="yes"/>
      <point x="1224" y="-24"/>
      <point x="1358" y="24"/>
      <point x="1450" y="88" type="curve"/>
      <point x="1446" y="118"/>
      <point x="1424" y="164"/>
      <point x="1398" y="188" type="curve"/>
      <point x="1310" y="138"/>
      <point x="1214" y="100"/>
      <point x="1106" y="100" type="curve" smooth="yes"/>
      <point x="908" y="100"/>
      <point x="844" y="258"/>
      <point x="844" y="480" type="curve" smooth="yes"/>
      <point x="844" y="514" type="line" smooth="yes"/>
      <point x="844" y="746"/>
      <point x="932" y="896"/>
      <point x="1094" y="896" type="curve" smooth="yes"/>
      <point x="1268" y="896"/>
      <point x="1334" y="750"/>
      <point x="1334" y="580" type="curve" smooth="yes"/>
      <point x="1334" y="556" type="line"/>
      <point x="780" y="556" type="line"/>
    </contour>
  </outline>
</glyph>
<glyph name="eth" format="2">
  <advance width="1032"/>
  <unicode hex="00F0"/>
  <outline>
    <contour>
      <point x="930" y="484" type="curve" smooth="yes"/>
      <point x="930" y="944"/>
      <point x="714" y="1318"/>
      <point x="324" y="1488" type="curve"/>
      <point x="296" y="1472"/>
      <point x="274" y="1430"/>
      <point x="266" y="1394" type="curve"/>
      <point x="490" y="1294"/>
      <point x="684" y="1064"/>
      <point x="724" y="862" type="curve"/>
      <point x="754" y="778"/>
      <point x="786" y="662"/>
      <point x="786" y="484" type="curve" smooth="yes"/>
      <point x="786" y="288"/>
      <point x="720" y="86"/>
      <point x="518" y="86" type="curve" smooth="yes"/>
      <point x="314" y="86"/>
      <point x="248" y="284"/>
      <point x="248" y="480" type="curve" smooth="yes"/>
      <point x="248" y="678"/>
      <point x="314" y="862"/>
      <point x="518" y="862" type="curve" smooth="yes"/>
      <point x="650" y="862"/>
      <point x="758" y="796"/>
      <point x="814" y="718" type="curve"/>
      <point x="814" y="852" type="line"/>
      <point x="748" y="916"/>
      <point x="630" y="974"/>
      <point x="516" y="974" type="curve" smooth="yes"/>
      <point x="254" y="974"/>
      <point x="104" y="765"/>
      <point x="104" y="480" type="curve" smooth="yes"/>
      <point x="104" y="192"/>
      <point x="247" y="-24"/>
      <point x="516" y="-24" type="curve" smooth="yes"/>
      <point x="786" y="-24"/>
      <point x="930" y="190"/>
    </contour>
    <contour>
      <point x="732" y="1470" type="curve"/>
      <point x="260" y="1144" type="line"/>
      <point x="262" y="1116"/>
      <point x="296" y="1072"/>
      <point x="320" y="1058" type="curve"/>
      <point x="792" y="1384" type="line"/>
      <point x="790" y="1412"/>
      <point x="754" y="1456"/>
    </contour>
  </outline>
</glyph>
<glyph name="divide" format="2">
  <advance width="1080"/>
  <unicode hex="00F7"/>
  <outline>
    <contour>
      <point x="440" y="974" type="curve" smooth="yes"/>
      <point x="440" y="950"/>
      <point x="446" y="918"/>
      <point x="454" y="902" type="curve"/>
      <point x="472" y="890"/>
      <point x="510" y="882"/>
      <point x="540" y="882" type="curve" smooth="yes"/>
      <point x="566" y="882"/>
      <point x="612" y="890"/>
      <point x="626" y="902" type="curve"/>
      <point x="634" y="918"/>
      <point x="640" y="950"/>
      <point x="640" y="974" type="curve" smooth="yes"/>
      <point x="640" y="998"/>
      <point x="634" y="1030"/>
      <point x="626" y="1046" type="curve"/>
      <point x="610" y="1058"/>
      <point x="566" y="1066"/>
      <point x="540" y="1066" type="curve" smooth="yes"/>
      <point x="510" y="1066"/>
      <point x="472" y="1058"/>
      <point x="454" y="1046" type="curve"/>
      <point x="446" y="1030"/>
      <point x="440" y="998"/>
    </contour>
    <contour>
      <point x="440" y="262" type="curve" smooth="yes"/>
      <point x="440" y="238"/>
      <point x="446" y="206"/>
      <point x="454" y="190" type="curve"/>
      <point x="472" y="178"/>
      <point x="510" y="170"/>
      <point x="540" y="170" type="curve" smooth="yes"/>
      <point x="566" y="170"/>
      <point x="612" y="178"/>
      <point x="626" y="190" type="curve"/>
      <point x="634" y="206"/>
      <point x="640" y="238"/>
      <point x="640" y="262" type="curve" smooth="yes"/>
      <point x="640" y="286"/>
      <point x="634" y="318"/>
      <point x="626" y="334" type="curve"/>
      <point x="610" y="346"/>
      <point x="566" y="354"/>
      <point x="540" y="354" type="curve" smooth="yes"/>
      <point x="510" y="354"/>
      <point x="472" y="346"/>
      <point x="454" y="334" type="curve"/>
      <point x="446" y="318"/>
      <point x="440" y="286"/>
    </contour>
    <contour>
      <point x="128" y="556" type="curve"/>
      <point x="952" y="556" type="line"/>
      <point x="956" y="574"/>
      <point x="958" y="594"/>
      <point x="958" y="620" type="curve" smooth="yes"/>
      <point x="958" y="648"/>
      <point x="956" y="668"/>
      <point x="952" y="688" type="curve"/>
      <point x="128" y="688" type="line"/>
      <point x="124" y="668"/>
      <point x="122" y="648"/>
      <point x="122" y="620" type="curve" smooth="yes"/>
      <point x="122" y="594"/>
      <point x="124" y="574"/>
    </contour>
  </outline>
</glyph>
<glyph name="oslash" format="2">
  <advance width="1038"/>
  <unicode hex="00F8"/>
  <anchor x="518" y="1084" name="top"/>
  <outline>
    <contour>
      <point x="932" y="490" type="curve" smooth="yes"/>
      <point x="932" y="648"/>
      <point x="896" y="794"/>
      <point x="792" y="898" type="curve" smooth="yes"/>
      <point x="722" y="968"/>
      <point x="632" y="1004"/>
      <point x="518" y="1004" type="curve" smooth="yes"/>
      <point x="406" y="1004"/>
      <point x="316" y="968"/>
      <point x="246" y="898" type="curve" smooth="yes"/>
      <point x="142" y="794"/>
      <point x="106" y="648"/>
      <point x="106" y="490" type="curve" smooth="yes"/>
      <point x="106" y="332"/>
      <point x="142" y="186"/>
      <point x="246" y="82" type="curve" smooth="yes"/>
      <point x="316" y="12"/>
      <point x="406" y="-24"/>
      <point x="518" y="-24" type="curve" smooth="yes"/>
      <point x="632" y="-24"/>
      <point x="722" y="12"/>
      <point x="792" y="82" type="curve" smooth="yes"/>
      <point x="896" y="186"/>
      <point x="932" y="332"/>
    </contour>
    <contour>
      <point x="244" y="490" type="curve" smooth="yes"/>
      <point x="244" y="688"/>
      <point x="312" y="898"/>
      <point x="520" y="898" type="curve" smooth="yes"/>
      <point x="726" y="898"/>
      <point x="794" y="688"/>
      <point x="794" y="490" type="curve" smooth="yes"/>
      <point x="794" y="292"/>
      <point x="726" y="84"/>
      <point x="520" y="84" type="curve" smooth="yes"/>
      <point x="312" y="84"/>
      <point x="244" y="292"/>
    </contour>
    <contour>
      <point x="666" y="894" type="line"/>
      <point x="290" y="180" type="line"/>
      <point x="158" y="-52" type="line"/>
      <point x="174" y="-78"/>
      <point x="222" y="-104"/>
      <point x="254" y="-106" type="curve"/>
      <point x="366" y="88" type="line"/>
      <point x="742" y="802" type="line"/>
      <point x="874" y="1034" type="line"/>
      <point x="858" y="1060"/>
      <point x="810" y="1086"/>
      <point x="778" y="1088" type="curve"/>
    </contour>
  </outline>
</glyph>
<glyph name="thorn" format="2">
  <advance width="1048"/>
  <unicode hex="00FE"/>
  <outline>
    <contour>
      <point x="314" y="-334" type="curve" smooth="yes"/>
      <point x="314" y="1374" type="line" smooth="yes"/>
      <point x="314" y="1436"/>
      <point x="304" y="1470"/>
      <point x="240" y="1470" type="curve" smooth="yes"/>
      <point x="192" y="1470" type="line"/>
      <point x="180" y="1458" type="line"/>
      <point x="180" y="-418" type="line"/>
      <point x="192" y="-430" type="line"/>
      <point x="240" y="-430" type="line" smooth="yes"/>
      <point x="304" y="-430"/>
      <point x="314" y="-396"/>
    </contour>
    <contour>
      <point x="944" y="500" type="curve" smooth="yes"/>
      <point x="944" y="794"/>
      <point x="828" y="996"/>
      <point x="610" y="996" type="curve" smooth="yes"/>
      <point x="428" y="996"/>
      <point x="294" y="868"/>
      <point x="244" y="750" type="curve"/>
      <point x="268" y="612" type="line"/>
      <point x="318" y="772"/>
      <point x="460" y="874"/>
      <point x="584" y="874" type="curve" smooth="yes"/>
      <point x="698" y="874"/>
      <point x="804" y="768"/>
      <point x="804" y="500" type="curve" smooth="yes"/>
      <point x="804" y="218"/>
      <point x="682" y="106"/>
      <point x="560" y="106" type="curve" smooth="yes"/>
      <point x="438" y="106"/>
      <point x="332" y="184"/>
      <point x="256" y="242" type="curve"/>
      <point x="250" y="116" type="line"/>
      <point x="346" y="40"/>
      <point x="452" y="-16"/>
      <point x="572" y="-16" type="curve" smooth="yes"/>
      <point x="744" y="-16"/>
      <point x="944" y="134"/>
    </contour>
  </outline>
</glyph>
<glyph name="aogonek" format="2">
  <advance width="1016"/>
  <unicode hex="0105"/>
  <outline>
    <contour>
      <point x="104" y="266" type="curve" smooth="yes"/>
      <point x="104" y="124"/>
      <point x="198" y="-24"/>
      <point x="392" y="-24" type="curve" smooth="yes"/>
      <point x="564" y="-24"/>
      <point x="696" y="110"/>
      <point x="764" y="190" type="curve"/>
      <point x="740" y="322" type="line"/>
      <point x="654" y="170"/>
      <point x="516" y="96"/>
      <point x="408" y="96" type="curve" smooth="yes"/>
      <point x="302" y="96"/>
      <point x="246" y="176"/>
      <point x="246" y="276" type="curve" smooth="yes"/>
      <point x="246" y="406"/>
      <point x="336" y="480"/>
      <point x="478" y="480" type="curve" smooth="yes"/>
      <point x="570" y="480"/>
      <point x="670" y="474"/>
      <point x="750" y="456" type="curve"/>
      <point x="750" y="556" type="line"/>
      <point x="664" y="578"/>
      <point x="562" y="586"/>
      <point x="478" y="586" type="curve" smooth="yes"/>
      <point x="254" y="586"/>
      <point x="104" y="486"/>
    </contour>
    <contour>
      <point x="782" y="16" type="curve"/>
      <point x="904" y="62" type="line"/>
      <point x="852" y="110"/>
      <point x="836" y="170"/>
      <point x="836" y="256" type="curve" smooth="yes"/>
      <point x="836" y="668" type="line" smooth="yes"/>
      <point x="836" y="882"/>
      <point x="738" y="1000"/>
      <point x="528" y="1000" type="curve" smooth="yes"/>
      <point x="388" y="1000"/>
      <point x="238" y="950"/>
      <point x="140" y="906" type="curve"/>
      <point x="140" y="868"/>
      <point x="164" y="818"/>
      <point x="190" y="796" type="curve"/>
      <point x="296" y="844"/>
      <point x="408" y="880"/>
      <point x="518" y="880" type="curve" smooth="yes"/>
      <point x="630" y="880"/>
      <point x="702" y="824"/>
      <point x="702" y="672" type="curve" smooth="yes"/>
      <point x="702" y="206" type="line" smooth="yes"/>
      <point x="702" y="124"/>
      <point x="728" y="58"/>
    </contour>
    <contour>
      <point x="916" y="-294" type="curve"/>
      <point x="882" y="-312"/>
      <point x="836" y="-330"/>
      <point x="790" y="-330" type="curve" smooth="yes"/>
      <point x="726" y="-330"/>
      <point x="682" y="-295"/>
      <point x="682" y="-226" type="curve" smooth="yes"/>
      <point x="682" y="-147"/>
      <point x="742" y="-82"/>
      <point x="828" y="-17" type="curve" smooth="yes"/>
      <point x="860" y="7"/>
      <point x="888" y="34"/>
      <point x="904" y="62" type="curve"/>
      <point x="776" y="56" type="line"/>
      <point x="646" y="-28"/>
      <point x="556" y="-134"/>
      <point x="556" y="-254" type="curve" smooth="yes"/>
      <point x="556" y="-370"/>
      <point x="642" y="-434"/>
      <point x="756" y="-434" type="curve" smooth="yes"/>
      <point x="830" y="-434"/>
      <point x="908" y="-406"/>
      <point x="952" y="-370" type="curve"/>
      <point x="952" y="-336"/>
      <point x="936" y="-310"/>
    </contour>
  </outline>
</glyph>
<glyph name="Eogonek" format="2">
  <advance width="1136"/>
  <unicode hex="0118"/>
  <outline>
    <contour>
      <point x="988" y="-294" type="curve"/>
      <point x="954" y="-312"/>
      <point x="908" y="-330"/>
      <point x="860" y="-330" type="curve" smooth="yes"/>
      <point x="798" y="-330"/>
      <point x="754" y="-294"/>
      <point x="754" y="-228" type="curve" smooth="yes"/>
      <point x="754" y="-144"/>
      <point x="838" y="-46"/>
      <point x="960" y="6" type="curve"/>
      <point x="940" y="26"/>
      <point x="882" y="42"/>
      <point x="844" y="34" type="curve"/>
      <point x="720" y="-26"/>
      <point x="628" y="-138"/>
      <point x="628" y="-254" type="curve" smooth="yes"/>
      <point x="628" y="-370"/>
      <point x="714" y="-434"/>
      <point x="828" y="-434" type="curve" smooth="yes"/>
      <point x="902" y="-434"/>
      <point x="980" y="-406"/>
      <point x="1024" y="-370" type="curve"/>
      <point x="1024" y="-336"/>
      <point x="1008" y="-310"/>
    </contour>
    <contour>
      <point x="200" y="1354" type="line"/>
      <point x="200" y="96" type="line" smooth="yes"/>
      <point x="200" y="36"/>
      <point x="232" y="0"/>
      <point x="282" y="0" type="curve" smooth="yes"/>
      <point x="338" y="0" type="line"/>
      <point x="338" y="120" type="line" smooth="yes"/>
      <point x="338" y="148"/>
      <point x="340" y="168"/>
      <point x="340" y="194" type="curve" smooth="yes"/>
      <point x="340" y="1120" type="line" smooth="yes"/>
      <point x="340" y="1174"/>
      <point x="338" y="1192"/>
      <point x="338" y="1248" type="curve" smooth="yes"/>
      <point x="338" y="1366" type="line"/>
      <point x="212" y="1366" type="line"/>
    </contour>
    <contour>
      <point x="878" y="754" type="curve"/>
      <point x="458" y="754" type="line" smooth="yes"/>
      <point x="414" y="754"/>
      <point x="348" y="752"/>
      <point x="290" y="752" type="curve"/>
      <point x="290" y="632" type="line"/>
      <point x="348" y="632"/>
      <point x="414" y="630"/>
      <point x="458" y="630" type="curve" smooth="yes"/>
      <point x="878" y="630" type="line"/>
      <point x="882" y="652"/>
      <point x="884" y="676"/>
      <point x="884" y="692" type="curve" smooth="yes"/>
      <point x="884" y="708"/>
      <point x="882" y="732"/>
    </contour>
    <contour>
      <point x="980" y="1366" type="curve"/>
      <point x="290" y="1366" type="line"/>
      <point x="290" y="1244" type="line"/>
      <point x="348" y="1242"/>
      <point x="414" y="1242"/>
      <point x="458" y="1242" type="curve" smooth="yes"/>
      <point x="974" y="1242" type="line"/>
      <point x="982" y="1264"/>
      <point x="984" y="1292"/>
      <point x="984" y="1308" type="curve" smooth="yes"/>
      <point x="984" y="1324"/>
      <point x="984" y="1344"/>
    </contour>
    <contour>
      <point x="1012" y="126" type="curve"/>
      <point x="460" y="126" type="line" smooth="yes"/>
      <point x="388" y="126"/>
      <point x="340" y="122"/>
      <point x="290" y="118" type="curve"/>
      <point x="290" y="0" type="line"/>
      <point x="916" y="0" type="line" smooth="yes"/>
      <point x="932" y="0"/>
      <point x="948" y="2"/>
      <point x="960" y="6" type="curve" smooth="yes"/>
      <point x="995" y="20"/>
      <point x="1012" y="45"/>
    </contour>
  </outline>
</glyph>
<glyph name="eogonek" format="2">
  <advance width="1006"/>
  <unicode hex="0119"/>
  <anchor x="506" y="-40" name="bottom"/>
  <anchor x="510" y="1084" name="top"/>
  <outline>
    <contour>
      <point x="796" y="-294" type="curve"/>
      <point x="764" y="-312"/>
      <point x="716" y="-330"/>
      <point x="668" y="-330" type="curve" smooth="yes"/>
      <point x="606" y="-330"/>
      <point x="562" y="-294"/>
      <point x="562" y="-228" type="curve" smooth="yes"/>
      <point x="562" y="-135"/>
      <point x="623" y="-57"/>
      <point x="738" y="12" type="curve" smooth="yes"/>
      <point x="783" y="39"/>
      <point x="819" y="58"/>
      <point x="860" y="88" type="curve"/>
      <point x="662" y="56" type="line"/>
      <point x="507" y="-35"/>
      <point x="436" y="-145"/>
      <point x="436" y="-254" type="curve" smooth="yes"/>
      <point x="436" y="-370"/>
      <point x="522" y="-434"/>
      <point x="636" y="-434" type="curve" smooth="yes"/>
      <point x="710" y="-434"/>
      <point x="788" y="-406"/>
      <point x="832" y="-370" type="curve"/>
      <point x="832" y="-336"/>
      <point x="816" y="-310"/>
    </contour>
    <contour>
      <point x="190" y="448" type="line"/>
      <point x="880" y="448" type="line"/>
      <point x="886" y="496"/>
      <point x="888" y="528"/>
      <point x="888" y="576" type="curve" smooth="yes"/>
      <point x="888" y="812"/>
      <point x="760" y="1004"/>
      <point x="504" y="1004" type="curve" smooth="yes"/>
      <point x="252" y="1004"/>
      <point x="106" y="788"/>
      <point x="106" y="492" type="curve" smooth="yes"/>
      <point x="106" y="218"/>
      <point x="202" y="-24"/>
      <point x="498" y="-24" type="curve" smooth="yes"/>
      <point x="634" y="-24"/>
      <point x="767" y="37"/>
      <point x="860" y="88" type="curve"/>
      <point x="856" y="118"/>
      <point x="834" y="162"/>
      <point x="808" y="186" type="curve"/>
      <point x="720" y="136"/>
      <point x="624" y="100"/>
      <point x="516" y="100" type="curve" smooth="yes"/>
      <point x="318" y="100"/>
      <point x="254" y="258"/>
      <point x="254" y="480" type="curve" smooth="yes"/>
      <point x="254" y="524" type="line" smooth="yes"/>
      <point x="254" y="746"/>
      <point x="342" y="896"/>
      <point x="504" y="896" type="curve" smooth="yes"/>
      <point x="678" y="896"/>
      <point x="746" y="754"/>
      <point x="746" y="584" type="curve" smooth="yes"/>
      <point x="746" y="556" type="line"/>
      <point x="190" y="556" type="line"/>
    </contour>
  </outline>
</glyph>
<glyph name="hbar" format="2">
  <advance width="1094"/>
  <unicode hex="0127"/>
  <anchor x="558" y="0" name="bottom"/>
  <anchor x="556" y="1520" name="top"/>
  <outline>
    <contour>
      <point x="660" y="1258" type="curve"/>
      <point x="280" y="1254" type="line"/>
      <point x="50" y="1258" type="line"/>
      <point x="46" y="1238"/>
      <point x="44" y="1224"/>
      <point x="44" y="1204" type="curve" smooth="yes"/>
      <point x="44" y="1184"/>
      <point x="46" y="1168"/>
      <point x="50" y="1150" type="curve"/>
      <point x="282" y="1154" type="line"/>
      <point x="660" y="1150" type="line"/>
      <point x="664" y="1168"/>
      <point x="666" y="1184"/>
      <point x="666" y="1204" type="curve" smooth="yes"/>
      <point x="666" y="1224"/>
      <point x="664" y="1238"/>
    </contour>
    <contour>
      <point x="322" y="0" type="curve"/>
      <point x="322" y="1374" type="line" smooth="yes"/>
      <point x="322" y="1436"/>
      <point x="312" y="1470"/>
      <point x="248" y="1470" type="curve" smooth="yes"/>
      <point x="198" y="1470" type="line"/>
      <point x="186" y="1458" type="line"/>
      <point x="186" y="0" type="line"/>
      <point x="204" y="-4"/>
      <point x="226" y="-6"/>
      <point x="254" y="-6" type="curve" smooth="yes"/>
      <point x="280" y="-6"/>
      <point x="304" y="-4"/>
    </contour>
    <contour>
      <point x="926" y="186" type="curve" smooth="yes"/>
      <point x="926" y="686" type="line" smooth="yes"/>
      <point x="926" y="854"/>
      <point x="860" y="996"/>
      <point x="670" y="996" type="curve" smooth="yes"/>
      <point x="524" y="996"/>
      <point x="370" y="918"/>
      <point x="284" y="808" type="curve"/>
      <point x="284" y="658" type="line"/>
      <point x="350" y="774"/>
      <point x="512" y="870"/>
      <point x="638" y="870" type="curve" smooth="yes"/>
      <point x="756" y="870"/>
      <point x="788" y="802"/>
      <point x="788" y="640" type="curve" smooth="yes"/>
      <point x="788" y="80" type="line" smooth="yes"/>
      <point x="788" y="18"/>
      <point x="808" y="-12"/>
      <point x="860" y="-12" type="curve" smooth="yes"/>
      <point x="892" y="-12"/>
      <point x="928" y="0"/>
      <point x="948" y="18" type="curve"/>
      <point x="930" y="62"/>
      <point x="926" y="122"/>
    </contour>
  </outline>
</glyph>
<glyph name="kgreenlandic" format="2">
  <advance width="976"/>
  <unicode hex="0138"/>
  <outline>
    <contour>
      <point x="316" y="0" type="curve"/>
      <point x="316" y="890" type="line" smooth="yes"/>
      <point x="316" y="952"/>
      <point x="306" y="986"/>
      <point x="242" y="986" type="curve" smooth="yes"/>
      <point x="192" y="986" type="line"/>
      <point x="180" y="974" type="line"/>
      <point x="180" y="0" type="line"/>
      <point x="198" y="-4"/>
      <point x="220" y="-6"/>
      <point x="248" y="-6" type="curve" smooth="yes"/>
      <point x="274" y="-6"/>
      <point x="298" y="-4"/>
    </contour>
    <contour>
      <point x="834" y="178" type="curve" smooth="yes"/>
      <point x="754" y="356" type="line" smooth="yes"/>
      <point x="692" y="492"/>
      <point x="628" y="546"/>
      <point x="484" y="546" type="curve" smooth="yes"/>
      <point x="246" y="546" type="line"/>
      <point x="246" y="438" type="line"/>
      <point x="312" y="444" type="line" smooth="yes"/>
      <point x="360" y="448"/>
      <point x="400" y="450"/>
      <point x="426" y="450" type="curve" smooth="yes"/>
      <point x="542" y="450"/>
      <point x="580" y="416"/>
      <point x="632" y="300" type="curve" smooth="yes"/>
      <point x="726" y="90" type="line" smooth="yes"/>
      <point x="754" y="28"/>
      <point x="774" y="-12"/>
      <point x="838" y="-12" type="curve" smooth="yes"/>
      <point x="874" y="-12"/>
      <point x="914" y="8"/>
      <point x="930" y="30" type="curve"/>
      <point x="896" y="54"/>
      <point x="864" y="110"/>
    </contour>
    <contour>
      <point x="600" y="592" type="curve" smooth="yes"/>
      <point x="860" y="968" type="line"/>
      <point x="848" y="984" type="line"/>
      <point x="822" y="986"/>
      <point x="806" y="986"/>
      <point x="780" y="986" type="curve" smooth="yes"/>
      <point x="720" y="986"/>
      <point x="700" y="960"/>
      <point x="670" y="916" type="curve" smooth="yes"/>
      <point x="450" y="592" type="line" smooth="yes"/>
      <point x="438" y="576"/>
      <point x="424" y="566"/>
      <point x="406" y="566" type="curve" smooth="yes"/>
      <point x="256" y="558" type="line"/>
      <point x="256" y="494" type="line"/>
      <point x="418" y="494" type="line" smooth="yes"/>
      <point x="494" y="494"/>
      <point x="550" y="518"/>
    </contour>
  </outline>
</glyph>
<glyph name="Eng" format="2">
  <advance width="1340"/>
  <unicode hex="014A"/>
  <anchor x="674" y="1464" name="top"/>
  <outline>
    <contour>
      <point x="658" y="-294" type="curve"/>
      <point x="634" y="-326"/>
      <point x="620" y="-360"/>
      <point x="612" y="-404" type="curve"/>
      <point x="672" y="-432"/>
      <point x="754" y="-448"/>
      <point x="804" y="-448" type="curve" smooth="yes"/>
      <point x="1030" y="-448"/>
      <point x="1140" y="-294"/>
      <point x="1140" y="0" type="curve" smooth="yes"/>
      <point x="1140" y="30" type="line"/>
      <point x="1010" y="30" type="line"/>
      <point x="1010" y="-30" type="line" smooth="yes"/>
      <point x="1010" y="-224"/>
      <point x="946" y="-328"/>
      <point x="806" y="-328" type="curve" smooth="yes"/>
      <point x="762" y="-328"/>
      <point x="710" y="-316"/>
    </contour>
    <contour>
      <point x="200" y="1366" type="curve"/>
      <point x="200" y="0" type="line"/>
      <point x="221" y="-4"/>
      <point x="243" y="-6"/>
      <point x="266" y="-6" type="curve" smooth="yes"/>
      <point x="289" y="-6"/>
      <point x="311" y="-4"/>
      <point x="334" y="0" type="curve"/>
      <point x="334" y="770" type="line" smooth="yes"/>
      <point x="334" y="908"/>
      <point x="326" y="1072"/>
      <point x="322" y="1192" type="curve"/>
      <point x="336" y="1192" type="line"/>
      <point x="376" y="1366" type="line"/>
      <point x="352" y="1370"/>
      <point x="316" y="1372"/>
      <point x="286" y="1372" type="curve" smooth="yes"/>
      <point x="260" y="1372"/>
      <point x="224" y="1370"/>
    </contour>
    <contour>
      <point x="466" y="918" type="curve" smooth="yes"/>
      <point x="962" y="0" type="line"/>
      <point x="1065" y="115" type="line"/>
      <point x="1012" y="168" type="line"/>
      <point x="968" y="256"/>
      <point x="924" y="352"/>
      <point x="872" y="448" type="curve" smooth="yes"/>
      <point x="376" y="1366" type="line"/>
      <point x="257" y="1278" type="line"/>
      <point x="328" y="1192" type="line"/>
      <point x="372" y="1102"/>
      <point x="414" y="1014"/>
    </contour>
    <contour>
      <point x="1140" y="1362" type="line"/>
      <point x="1128" y="1372" type="line"/>
      <point x="1080" y="1372" type="line" smooth="yes"/>
      <point x="1016" y="1372"/>
      <point x="1006" y="1340"/>
      <point x="1006" y="1278" type="curve" smooth="yes"/>
      <point x="1006" y="616" type="line" smooth="yes"/>
      <point x="1006" y="478"/>
      <point x="1012" y="312"/>
      <point x="1018" y="168" type="curve"/>
      <point x="1004" y="168" type="line"/>
      <point x="962" y="0" type="line"/>
      <point x="986" y="-4"/>
      <point x="1024" y="-6"/>
      <point x="1052" y="-6" type="curve" smooth="yes"/>
      <point x="1080" y="-6"/>
      <point x="1116" y="-4"/>
      <point x="1140" y="0" type="curve"/>
    </contour>
  </outline>
</glyph>
<glyph name="OE" format="2">
  <advance width="1766"/>
  <unicode hex="0152"/>
  <outline>
    <contour>
      <point x="932" y="4" type="curve"/>
      <point x="932" y="140" type="line"/>
      <point x="872" y="122"/>
      <point x="758" y="98"/>
      <point x="652" y="98" type="curve" smooth="yes"/>
      <point x="342" y="98"/>
      <point x="268" y="422"/>
      <point x="268" y="684" type="curve" smooth="yes"/>
      <point x="268" y="946"/>
      <point x="342" y="1268"/>
      <point x="654" y="1268" type="curve" smooth="yes"/>
      <point x="752" y="1268"/>
      <point x="872" y="1244"/>
      <point x="932" y="1226" type="curve"/>
      <point x="932" y="1362" type="line"/>
      <point x="858" y="1368"/>
      <point x="756" y="1390"/>
      <point x="654" y="1390" type="curve" smooth="yes"/>
      <point x="288" y="1390"/>
      <point x="116" y="1074"/>
      <point x="116" y="684" type="curve" smooth="yes"/>
      <point x="116" y="295"/>
      <point x="286" y="-24"/>
      <point x="654" y="-24" type="curve" smooth="yes"/>
      <point x="762" y="-24"/>
      <point x="858" y="-2"/>
    </contour>
    <contour>
      <point x="842" y="1366" type="line"/>
      <point x="842" y="0" type="line"/>
      <point x="980" y="0" type="line"/>
      <point x="980" y="120" type="line" smooth="yes"/>
      <point x="980" y="148"/>
      <point x="982" y="168"/>
      <point x="982" y="194" type="curve" smooth="yes"/>
      <point x="982" y="1120" type="line" smooth="yes"/>
      <point x="982" y="1174"/>
      <point x="980" y="1192"/>
      <point x="980" y="1248" type="curve" smooth="yes"/>
      <point x="980" y="1366" type="line"/>
    </contour>
    <contour>
      <point x="1520" y="754" type="curve"/>
      <point x="1100" y="754" type="line" smooth="yes"/>
      <point x="1056" y="754"/>
      <point x="990" y="752"/>
      <point x="932" y="752" type="curve"/>
      <point x="932" y="632" type="line"/>
      <point x="990" y="632"/>
      <point x="1056" y="630"/>
      <point x="1100" y="630" type="curve" smooth="yes"/>
      <point x="1520" y="630" type="line"/>
      <point x="1524" y="652"/>
      <point x="1526" y="676"/>
      <point x="1526" y="692" type="curve" smooth="yes"/>
      <point x="1526" y="708"/>
      <point x="1524" y="732"/>
    </contour>
    <contour>
      <point x="1622" y="1366" type="curve"/>
      <point x="932" y="1366" type="line"/>
      <point x="932" y="1244" type="line"/>
      <point x="990" y="1242"/>
      <point x="1056" y="1242"/>
      <point x="1100" y="1242" type="curve" smooth="yes"/>
      <point x="1616" y="1242" type="line"/>
      <point x="1624" y="1264"/>
      <point x="1626" y="1292"/>
      <point x="1626" y="1308" type="curve" smooth="yes"/>
      <point x="1626" y="1324"/>
      <point x="1626" y="1344"/>
    </contour>
    <contour>
      <point x="1654" y="126" type="curve"/>
      <point x="1102" y="126" type="line" smooth="yes"/>
      <point x="1030" y="126"/>
      <point x="982" y="122"/>
      <point x="932" y="118" type="curve"/>
      <point x="932" y="0" type="line"/>
      <point x="1558" y="0" type="line" smooth="yes"/>
      <point x="1625" y="0"/>
      <point x="1654" y="27"/>
    </contour>
  </outline>
</glyph>
<glyph name="oe" format="2">
  <advance width="1694"/>
  <unicode hex="0153"/>
  <outline>
    <contour>
      <point x="916" y="490" type="curve" smooth="yes"/>
      <point x="916" y="764"/>
      <point x="822" y="1004"/>
      <point x="518" y="1004" type="curve" smooth="yes"/>
      <point x="406" y="1004"/>
      <point x="316" y="968"/>
      <point x="246" y="898" type="curve" smooth="yes"/>
      <point x="142" y="794"/>
      <point x="106" y="648"/>
      <point x="106" y="490" type="curve" smooth="yes"/>
      <point x="106" y="332"/>
      <point x="142" y="186"/>
      <point x="246" y="82" type="curve" smooth="yes"/>
      <point x="316" y="12"/>
      <point x="406" y="-24"/>
      <point x="518" y="-24" type="curve" smooth="yes"/>
      <point x="832" y="-24"/>
      <point x="916" y="236"/>
    </contour>
    <contour>
      <point x="250" y="490" type="curve" smooth="yes"/>
      <point x="250" y="688"/>
      <point x="316" y="896"/>
      <point x="520" y="896" type="curve" smooth="yes"/>
      <point x="722" y="896"/>
      <point x="788" y="688"/>
      <point x="788" y="490" type="curve" smooth="yes"/>
      <point x="788" y="292"/>
      <point x="722" y="86"/>
      <point x="520" y="86" type="curve" smooth="yes"/>
      <point x="316" y="86"/>
      <point x="250" y="292"/>
    </contour>
    <contour>
      <point x="878" y="448" type="line"/>
      <point x="1568" y="448" type="line"/>
      <point x="1574" y="496"/>
      <point x="1576" y="528"/>
      <point x="1576" y="576" type="curve" smooth="yes"/>
      <point x="1576" y="812"/>
      <point x="1448" y="1004"/>
      <point x="1192" y="1004" type="curve" smooth="yes"/>
      <point x="940" y="1004"/>
      <point x="806" y="788"/>
      <point x="806" y="494" type="curve" smooth="yes"/>
      <point x="806" y="222"/>
      <point x="890" y="-24"/>
      <point x="1186" y="-24" type="curve" smooth="yes"/>
      <point x="1322" y="-24"/>
      <point x="1456" y="24"/>
      <point x="1548" y="88" type="curve"/>
      <point x="1544" y="118"/>
      <point x="1522" y="162"/>
      <point x="1496" y="186" type="curve"/>
      <point x="1408" y="136"/>
      <point x="1312" y="100"/>
      <point x="1204" y="100" type="curve" smooth="yes"/>
      <point x="1006" y="100"/>
      <point x="942" y="258"/>
      <point x="942" y="480" type="curve" smooth="yes"/>
      <point x="942" y="514" type="line" smooth="yes"/>
      <point x="942" y="746"/>
      <point x="1030" y="896"/>
      <point x="1192" y="896" type="curve" smooth="yes"/>
      <point x="1366" y="896"/>
      <point x="1432" y="754"/>
      <point x="1432" y="580" type="curve" smooth="yes"/>
      <point x="1432" y="556" type="line"/>
      <point x="878" y="556" type="line"/>
    </contour>
  </outline>
</glyph>
<glyph name="tcaron" format="2">
  <advance width="670"/>
  <unicode hex="0165"/>
  <outline>
    <contour>
      <point x="506" y="1534" type="curve"/>
      <point x="480" y="1132" type="line"/>
      <point x="492" y="1125"/>
      <point x="512" y="1119"/>
      <point x="532" y="1119" type="curve" smooth="yes"/>
      <point x="544" y="1119"/>
      <point x="557" y="1121"/>
      <point x="568" y="1126" type="curve"/>
      <point x="654" y="1512" type="line"/>
      <point x="625" y="1530"/>
      <point x="581" y="1536"/>
      <point x="544" y="1536" type="curve" smooth="yes"/>
      <point x="530" y="1536"/>
      <point x="517" y="1536"/>
    </contour>
    <component base="t"/>
  </outline>
</glyph>
<glyph name="tbar" format="2">
  <advance width="708"/>
  <unicode hex="0167"/>
  <anchor x="393" y="0" name="bottom"/>
  <anchor x="319" y="1360" name="top"/>
  <outline>
    <contour>
      <point x="570" y="612" type="curve"/>
      <point x="310" y="608" type="line"/>
      <point x="100" y="612" type="line"/>
      <point x="96" y="592"/>
      <point x="94" y="582"/>
      <point x="94" y="562" type="curve" smooth="yes"/>
      <point x="94" y="542"/>
      <point x="96" y="530"/>
      <point x="100" y="512" type="curve"/>
      <point x="312" y="516" type="line"/>
      <point x="570" y="512" type="line"/>
      <point x="574" y="530"/>
      <point x="576" y="542"/>
      <point x="576" y="562" type="curve" smooth="yes"/>
      <point x="576" y="582"/>
      <point x="574" y="592"/>
    </contour>
    <contour>
      <point x="220" y="1194" type="curve" smooth="yes"/>
      <point x="220" y="152" type="line" smooth="yes"/>
      <point x="220" y="48"/>
      <point x="290" y="-8"/>
      <point x="398" y="-8" type="curve" smooth="yes"/>
      <point x="476" y="-8"/>
      <point x="536" y="-4"/>
      <point x="598" y="4" type="curve"/>
      <point x="600" y="12"/>
      <point x="600" y="22"/>
      <point x="600" y="32" type="curve" smooth="yes"/>
      <point x="600" y="60"/>
      <point x="596" y="88"/>
      <point x="588" y="108" type="curve"/>
      <point x="434" y="108" type="line" smooth="yes"/>
      <point x="376" y="108"/>
      <point x="356" y="142"/>
      <point x="356" y="190" type="curve" smooth="yes"/>
      <point x="356" y="1278" type="line"/>
      <point x="344" y="1290" type="line"/>
      <point x="294" y="1290" type="line" smooth="yes"/>
      <point x="230" y="1290"/>
      <point x="220" y="1256"/>
    </contour>
    <contour>
      <point x="610" y="982" type="curve"/>
      <point x="310" y="978" type="line"/>
      <point x="80" y="982" type="line"/>
      <point x="76" y="962"/>
      <point x="74" y="948"/>
      <point x="74" y="928" type="curve" smooth="yes"/>
      <point x="74" y="908"/>
      <point x="76" y="892"/>
      <point x="80" y="874" type="curve"/>
      <point x="312" y="878" type="line"/>
      <point x="610" y="874" type="line"/>
      <point x="614" y="892"/>
      <point x="616" y="908"/>
      <point x="616" y="928" type="curve" smooth="yes"/>
      <point x="616" y="948"/>
      <point x="614" y="962"/>
    </contour>
  </outline>
</glyph>
<glyph name="uogonek" format="2">
  <advance width="1092"/>
  <unicode hex="0173"/>
  <outline>
    <contour>
      <point x="910" y="276" type="curve" smooth="yes"/>
      <point x="910" y="980" type="line"/>
      <point x="892" y="984"/>
      <point x="868" y="986"/>
      <point x="840" y="986" type="curve" smooth="yes"/>
      <point x="814" y="986"/>
      <point x="790" y="984"/>
      <point x="772" y="980" type="curve"/>
      <point x="772" y="226" type="line" smooth="yes"/>
      <point x="772" y="146"/>
      <point x="794" y="68"/>
      <point x="850" y="20" type="curve"/>
      <point x="980" y="62" type="line"/>
      <point x="928" y="114"/>
      <point x="910" y="190"/>
    </contour>
    <contour>
      <point x="168" y="794" type="curve" smooth="yes"/>
      <point x="168" y="292" type="line" smooth="yes"/>
      <point x="168" y="124"/>
      <point x="234" y="-18"/>
      <point x="424" y="-18" type="curve" smooth="yes"/>
      <point x="570" y="-18"/>
      <point x="724" y="60"/>
      <point x="810" y="170" type="curve"/>
      <point x="810" y="320" type="line"/>
      <point x="744" y="204"/>
      <point x="582" y="108"/>
      <point x="456" y="108" type="curve" smooth="yes"/>
      <point x="338" y="108"/>
      <point x="306" y="176"/>
      <point x="306" y="338" type="curve" smooth="yes"/>
      <point x="306" y="900" type="line" smooth="yes"/>
      <point x="306" y="962"/>
      <point x="286" y="992"/>
      <point x="234" y="992" type="curve" smooth="yes"/>
      <point x="202" y="992"/>
      <point x="166" y="980"/>
      <point x="146" y="962" type="curve"/>
      <point x="164" y="918"/>
      <point x="168" y="858"/>
    </contour>
    <contour>
      <point x="988" y="-294" type="curve"/>
      <point x="954" y="-312"/>
      <point x="908" y="-330"/>
      <point x="860" y="-330" type="curve" smooth="yes"/>
      <point x="798" y="-330"/>
      <point x="754" y="-294"/>
      <point x="754" y="-228" type="curve" smooth="yes"/>
      <point x="754" y="-146"/>
      <point x="818" y="-82"/>
      <point x="900" y="-18" type="curve" smooth="yes"/>
      <point x="938" y="12"/>
      <point x="963" y="34"/>
      <point x="980" y="62" type="curve"/>
      <point x="848" y="56" type="line"/>
      <point x="718" y="-28"/>
      <point x="628" y="-134"/>
      <point x="628" y="-254" type="curve" smooth="yes"/>
      <point x="628" y="-370"/>
      <point x="714" y="-434"/>
      <point x="828" y="-434" type="curve" smooth="yes"/>
      <point x="902" y="-434"/>
      <point x="980" y="-406"/>
      <point x="1024" y="-370" type="curve"/>
      <point x="1024" y="-336"/>
      <point x="1008" y="-310"/>
    </contour>
  </outline>
</glyph>
<glyph name="florin" format="2">
  <advance width="1080"/>
  <unicode hex="0192"/>
  <guideline x="437" y="612" angle="258.1957"/>
  <guideline x="578" y="582" angle="78.5769"/>
  <outline>
    <contour>
      <point x="502" y="724" type="line"/>
      <point x="246" y="728" type="line"/>
      <point x="242" y="708"/>
      <point x="240" y="694"/>
      <point x="240" y="674" type="curve" smooth="yes"/>
      <point x="240" y="654"/>
      <point x="242" y="638"/>
      <point x="246" y="620" type="curve"/>
      <point x="504" y="624" type="line"/>
      <point x="880" y="620" type="line"/>
      <point x="884" y="638"/>
      <point x="886" y="654"/>
      <point x="886" y="674" type="curve" smooth="yes"/>
      <point x="886" y="694"/>
      <point x="884" y="708"/>
      <point x="880" y="728" type="curve"/>
    </contour>
    <contour>
      <point x="513" y="952" type="curve" smooth="yes"/>
      <point x="349" y="167" type="line" smooth="yes"/>
      <point x="296" y="-86"/>
      <point x="212" y="-145"/>
      <point x="110" y="-145" type="curve" smooth="yes"/>
      <point x="51" y="-145"/>
      <point x="1" y="-128"/>
      <point x="-40" y="-108" type="curve"/>
      <point x="-64" y="-130"/>
      <point x="-86" y="-175"/>
      <point x="-90" y="-209" type="curve"/>
      <point x="-36" y="-241"/>
      <point x="39" y="-260"/>
      <point x="114" y="-260" type="curve" smooth="yes"/>
      <point x="303" y="-260"/>
      <point x="436" y="-144"/>
      <point x="494" y="144" type="curve" smooth="yes"/>
      <point x="650" y="915" type="line" smooth="yes"/>
      <point x="688" y="1103"/>
      <point x="738" y="1169"/>
      <point x="843" y="1169" type="curve" smooth="yes"/>
      <point x="896" y="1169"/>
      <point x="946" y="1154"/>
      <point x="994" y="1126" type="curve"/>
      <point x="1021" y="1148"/>
      <point x="1042" y="1188"/>
      <point x="1049" y="1222" type="curve"/>
      <point x="995" y="1260"/>
      <point x="907" y="1285"/>
      <point x="835" y="1285" type="curve" smooth="yes"/>
      <point x="657" y="1285"/>
      <point x="560" y="1179"/>
    </contour>
  </outline>
</glyph>
<glyph name="Uhorn" format="2">
  <advance width="1342"/>
  <unicode hex="01AF"/>
  <anchor x="666" y="0" name="bottom"/>
  <anchor x="860" y="8" name="ogonek"/>
  <anchor x="666" y="1464" name="top"/>
  <outline>
    <contour>
      <point x="184" y="464" type="line" smooth="yes"/>
      <point x="184" y="138"/>
      <point x="386" y="-24"/>
      <point x="664" y="-24" type="curve" smooth="yes"/>
      <point x="946" y="-24"/>
      <point x="1148" y="138"/>
      <point x="1148" y="464" type="curve" smooth="yes"/>
      <point x="1148" y="1271" type="line"/>
      <point x="1283" y="1287"/>
      <point x="1362" y="1362"/>
      <point x="1362" y="1476" type="curve" smooth="yes"/>
      <point x="1362" y="1535"/>
      <point x="1339" y="1600"/>
      <point x="1314" y="1636" type="curve"/>
      <point x="1264" y="1638"/>
      <point x="1219" y="1618"/>
      <point x="1187" y="1584" type="curve"/>
      <point x="1205" y="1555"/>
      <point x="1222" y="1507"/>
      <point x="1222" y="1472" type="curve" smooth="yes"/>
      <point x="1222" y="1413"/>
      <point x="1187" y="1372"/>
      <point x="1089" y="1372" type="curve" smooth="yes"/>
      <point x="1074" y="1372" type="line" smooth="yes"/>
      <point x="1048" y="1372"/>
      <point x="1022" y="1370"/>
      <point x="1004" y="1366" type="curve"/>
      <point x="1004" y="466" type="line" smooth="yes"/>
      <point x="1004" y="224"/>
      <point x="878" y="96"/>
      <point x="666" y="96" type="curve" smooth="yes"/>
      <point x="454" y="96"/>
      <point x="328" y="224"/>
      <point x="328" y="466" type="curve" smooth="yes"/>
      <point x="328" y="1278" type="line" smooth="yes"/>
      <point x="328" y="1340"/>
      <point x="318" y="1372"/>
      <point x="254" y="1372" type="curve" smooth="yes"/>
      <point x="196" y="1372" type="line"/>
      <point x="184" y="1360" type="line"/>
    </contour>
  </outline>
</glyph>
<glyph name="uhorn" format="2">
  <advance width="1106"/>
  <unicode hex="01B0"/>
  <anchor x="536" y="0" name="bottom"/>
  <anchor x="900" y="-14" name="ogonek"/>
  <anchor x="538" y="1084" name="top"/>
  <outline>
    <contour>
      <point x="168" y="794" type="curve" smooth="yes"/>
      <point x="168" y="292" type="line" smooth="yes"/>
      <point x="168" y="124"/>
      <point x="234" y="-18"/>
      <point x="424" y="-18" type="curve" smooth="yes"/>
      <point x="570" y="-18"/>
      <point x="724" y="60"/>
      <point x="810" y="170" type="curve"/>
      <point x="810" y="320" type="line"/>
      <point x="744" y="204"/>
      <point x="582" y="108"/>
      <point x="456" y="108" type="curve" smooth="yes"/>
      <point x="338" y="108"/>
      <point x="306" y="176"/>
      <point x="306" y="338" type="curve" smooth="yes"/>
      <point x="306" y="900" type="line" smooth="yes"/>
      <point x="306" y="962"/>
      <point x="286" y="992"/>
      <point x="234" y="992" type="curve" smooth="yes"/>
      <point x="202" y="992"/>
      <point x="166" y="980"/>
      <point x="146" y="962" type="curve"/>
      <point x="164" y="918"/>
      <point x="168" y="858"/>
    </contour>
    <contour>
      <point x="772" y="226" type="line" smooth="yes"/>
      <point x="772" y="122"/>
      <point x="798" y="26"/>
      <point x="900" y="-14" type="curve"/>
      <point x="930" y="0"/>
      <point x="956" y="32"/>
      <point x="966" y="58" type="curve"/>
      <point x="916" y="106"/>
      <point x="910" y="190"/>
      <point x="910" y="276" type="curve" smooth="yes"/>
      <point x="910" y="893" type="line"/>
      <point x="1053" y="909"/>
      <point x="1116" y="992"/>
      <point x="1116" y="1084" type="curve" smooth="yes"/>
      <point x="1116" y="1144"/>
      <point x="1088" y="1207"/>
      <point x="1064" y="1234" type="curve"/>
      <point x="1021" y="1235"/>
      <point x="981" y="1216"/>
      <point x="952" y="1184" type="curve"/>
      <point x="969" y="1157"/>
      <point x="987" y="1119"/>
      <point x="987" y="1085" type="curve" smooth="yes"/>
      <point x="987" y="1027"/>
      <point x="950" y="986"/>
      <point x="856" y="986" type="curve" smooth="yes"/>
      <point x="840" y="986" type="line" smooth="yes"/>
      <point x="814" y="986"/>
      <point x="790" y="984"/>
      <point x="772" y="980" type="curve"/>
    </contour>
  </outline>
</glyph>
<glyph name="oogonek" format="2">
  <advance width="1038"/>
  <unicode hex="01EB"/>
  <anchor x="518" y="-452" name="bottom"/>
  <anchor x="518" y="1084" name="top"/>
  <outline>
    <contour>
      <point x="106" y="487" type="curve" smooth="yes"/>
      <point x="106" y="183"/>
      <point x="251" y="-24"/>
      <point x="527" y="-24" type="curve" smooth="yes"/>
      <point x="534" y="-24"/>
      <point x="547" y="-23"/>
      <point x="549" y="-23" type="curve"/>
      <point x="543" y="9" type="line"/>
      <point x="448" y="-62"/>
      <point x="384" y="-155"/>
      <point x="384" y="-254" type="curve" smooth="yes"/>
      <point x="384" y="-370"/>
      <point x="470" y="-434"/>
      <point x="584" y="-434" type="curve" smooth="yes"/>
      <point x="658" y="-434"/>
      <point x="736" y="-406"/>
      <point x="780" y="-370" type="curve"/>
      <point x="780" y="-336"/>
      <point x="764" y="-310"/>
      <point x="744" y="-294" type="curve"/>
      <point x="710" y="-312"/>
      <point x="664" y="-330"/>
      <point x="617" y="-330" type="curve" smooth="yes"/>
      <point x="554" y="-330"/>
      <point x="510" y="-298"/>
      <point x="510" y="-223" type="curve" smooth="yes"/>
      <point x="510" y="-126"/>
      <point x="598" y="-44"/>
      <point x="688" y="9" type="curve" smooth="yes"/>
      <point x="819" y="85"/>
      <point x="932" y="206"/>
      <point x="932" y="488" type="curve" smooth="yes"/>
      <point x="932" y="801"/>
      <point x="780" y="1004"/>
      <point x="518" y="1004" type="curve" smooth="yes"/>
      <point x="247" y="1004"/>
      <point x="106" y="786"/>
    </contour>
    <contour>
      <point x="250" y="489" type="curve" smooth="yes"/>
      <point x="250" y="688"/>
      <point x="316" y="896"/>
      <point x="519" y="896" type="curve" smooth="yes"/>
      <point x="722" y="896"/>
      <point x="788" y="688"/>
      <point x="788" y="489" type="curve" smooth="yes"/>
      <point x="788" y="290"/>
      <point x="722" y="86"/>
      <point x="519" y="86" type="curve" smooth="yes"/>
      <point x="316" y="86"/>
      <point x="250" y="290"/>
    </contour>
  </outline>
</glyph>
<glyph name="schwa" format="2">
  <advance width="1006"/>
  <unicode hex="0259"/>
  <outline>
    <contour>
      <point x="816" y="532" type="line"/>
      <point x="126" y="532" type="line"/>
      <point x="120" y="484"/>
      <point x="118" y="446"/>
      <point x="118" y="403" type="curve" smooth="yes"/>
      <point x="118" y="141"/>
      <point x="250" y="-24"/>
      <point x="484" y="-24" type="curve" smooth="yes"/>
      <point x="761" y="-24"/>
      <point x="900" y="193"/>
      <point x="900" y="497" type="curve" smooth="yes"/>
      <point x="900" y="762"/>
      <point x="786" y="1004"/>
      <point x="456" y="1004" type="curve" smooth="yes"/>
      <point x="330" y="1004"/>
      <point x="209" y="967"/>
      <point x="126" y="924" type="curve"/>
      <point x="127" y="886"/>
      <point x="145" y="838"/>
      <point x="176" y="814" type="curve"/>
      <point x="250" y="851"/>
      <point x="337" y="884"/>
      <point x="437" y="884" type="curve" smooth="yes"/>
      <point x="674" y="884"/>
      <point x="752" y="712"/>
      <point x="752" y="500" type="curve" smooth="yes"/>
      <point x="752" y="456" type="line" smooth="yes"/>
      <point x="752" y="219"/>
      <point x="657" y="84"/>
      <point x="487" y="84" type="curve" smooth="yes"/>
      <point x="324" y="84"/>
      <point x="260" y="217"/>
      <point x="260" y="380" type="curve" smooth="yes"/>
      <point x="260" y="424" type="line"/>
      <point x="816" y="424" type="line"/>
    </contour>
  </outline>
</glyph>
<glyph name="apostrophemodifier" format="2">
  <advance width="319"/>
  <unicode hex="02BC"/>
  <outline>
    <contour>
      <point x="271" y="1460" type="curve"/>
      <point x="255" y="1472"/>
      <point x="209" y="1480"/>
      <point x="179" y="1480" type="curve" smooth="yes"/>
      <point x="147" y="1480"/>
      <point x="99" y="1470"/>
      <point x="83" y="1460" type="curve"/>
      <point x="73" y="1448"/>
      <point x="67" y="1406"/>
      <point x="67" y="1378" type="curve" smooth="yes"/>
      <point x="67" y="1352"/>
      <point x="75" y="1316"/>
      <point x="83" y="1302" type="curve"/>
      <point x="97" y="1292"/>
      <point x="135" y="1286"/>
      <point x="155" y="1284" type="curve"/>
      <point x="153" y="1220"/>
      <point x="105" y="1164"/>
      <point x="43" y="1130" type="curve"/>
      <point x="41" y="1104"/>
      <point x="59" y="1070"/>
      <point x="85" y="1058" type="curve"/>
      <point x="219" y="1114"/>
      <point x="289" y="1222"/>
      <point x="289" y="1354" type="curve" smooth="yes"/>
      <point x="289" y="1392"/>
      <point x="283" y="1436"/>
    </contour>
  </outline>
</glyph>
<glyph name="verticallinemod" format="2">
  <advance width="338"/>
  <unicode hex="02C8"/>
  <guideline x="93" y="1452" angle="271.9396"/>
  <guideline x="245" y="1446" angle="268.0604"/>
  <outline>
    <contour>
      <point x="100" y="1464" type="curve"/>
      <point x="109" y="908" type="line"/>
      <point x="124" y="904"/>
      <point x="146" y="902"/>
      <point x="169" y="902" type="curve" smooth="yes"/>
      <point x="192" y="902"/>
      <point x="214" y="904"/>
      <point x="229" y="908" type="curve"/>
      <point x="238" y="1464" type="line"/>
      <point x="220" y="1468"/>
      <point x="196" y="1470"/>
      <point x="169" y="1470" type="curve" smooth="yes"/>
      <point x="142" y="1470"/>
      <point x="118" y="1468"/>
    </contour>
  </outline>
</glyph>
<glyph name="circumflexcomb" format="2">
  <unicode hex="0302"/>
  <anchor x="0" y="1084" name="_top"/>
  <anchor x="0" y="1458" name="top"/>
  <outline>
    <contour>
      <point x="64" y="1406" type="line"/>
      <point x="48" y="1411"/>
      <point x="23" y="1414"/>
      <point x="0" y="1414" type="curve" smooth="yes"/>
      <point x="-23" y="1414"/>
      <point x="-48" y="1411"/>
      <point x="-64" y="1406" type="curve"/>
      <point x="-266" y="1154" type="line"/>
      <point x="-250" y="1120"/>
      <point x="-218" y="1094"/>
      <point x="-190" y="1086" type="curve"/>
      <point x="0" y="1274" type="line"/>
      <point x="190" y="1086" type="line"/>
      <point x="218" y="1094"/>
      <point x="250" y="1120"/>
      <point x="266" y="1154" type="curve"/>
    </contour>
  </outline>
</glyph>
<glyph name="macroncomb" format="2">
  <unicode hex="0304"/>
  <anchor x="0" y="1084" name="_top"/>
  <anchor x="0" y="1384" name="top"/>
  <outline>
    <contour>
      <point x="-264" y="1156" type="curve"/>
      <point x="264" y="1156" type="line"/>
      <point x="268" y="1174"/>
      <point x="270" y="1192"/>
      <point x="270" y="1218" type="curve" smooth="yes"/>
      <point x="270" y="1246"/>
      <point x="268" y="1264"/>
      <point x="264" y="1284" type="curve"/>
      <point x="-264" y="1284" type="line"/>
      <point x="-268" y="1264"/>
      <point x="-270" y="1246"/>
      <point x="-270" y="1218" type="curve" smooth="yes"/>
      <point x="-270" y="1192"/>
      <point x="-268" y="1174"/>
    </contour>
  </outline>
</glyph>
<glyph name="hookabovecomb" format="2">
  <unicode hex="0309"/>
  <anchor x="-1" y="1084" name="_top"/>
  <anchor x="-1" y="1475" name="top"/>
  <outline>
    <contour>
      <point x="-69" y="1153" type="curve"/>
      <point x="-67" y="1124"/>
      <point x="-52" y="1089"/>
      <point x="-23" y="1071" type="curve"/>
      <point x="106" y="1114"/>
      <point x="189" y="1189"/>
      <point x="189" y="1290" type="curve" smooth="yes"/>
      <point x="189" y="1390"/>
      <point x="111" y="1456"/>
      <point x="2" y="1456" type="curve" smooth="yes"/>
      <point x="-71" y="1456"/>
      <point x="-135" y="1432"/>
      <point x="-179" y="1404" type="curve"/>
      <point x="-179" y="1372"/>
      <point x="-166" y="1339"/>
      <point x="-145" y="1319" type="curve"/>
      <point x="-113" y="1337"/>
      <point x="-68" y="1352"/>
      <point x="-30" y="1352" type="curve" smooth="yes"/>
      <point x="22" y="1352"/>
      <point x="59" y="1323"/>
      <point x="59" y="1279" type="curve" smooth="yes"/>
      <point x="59" y="1228"/>
      <point x="16" y="1190"/>
    </contour>
  </outline>
</glyph>
<glyph name="ringcomb" format="2">
  <unicode hex="030A"/>
  <anchor x="0" y="1084" name="_top"/>
  <anchor x="0" y="1527" name="top"/>
  <outline>
    <contour>
      <point x="-216" y="1280" type="curve" smooth="yes"/>
      <point x="-216" y="1394"/>
      <point x="-124" y="1488"/>
      <point x="0" y="1488" type="curve" smooth="yes"/>
      <point x="124" y="1488"/>
      <point x="216" y="1394"/>
      <point x="216" y="1280" type="curve" smooth="yes"/>
      <point x="216" y="1166"/>
      <point x="124" y="1072"/>
      <point x="0" y="1072" type="curve" smooth="yes"/>
      <point x="-124" y="1072"/>
      <point x="-216" y="1166"/>
    </contour>
    <contour>
      <point x="-102" y="1280" type="curve" smooth="yes"/>
      <point x="-102" y="1214"/>
      <point x="-58" y="1166"/>
      <point x="0" y="1166" type="curve" smooth="yes"/>
      <point x="58" y="1166"/>
      <point x="102" y="1214"/>
      <point x="102" y="1280" type="curve" smooth="yes"/>
      <point x="102" y="1346"/>
      <point x="58" y="1394"/>
      <point x="0" y="1394" type="curve" smooth="yes"/>
      <point x="-58" y="1394"/>
      <point x="-102" y="1346"/>
    </contour>
  </outline>
</glyph>
<glyph name="hungarumlautcomb" format="2">
  <unicode hex="030B"/>
  <anchor x="0" y="1084" name="_top"/>
  <anchor x="0" y="1493" name="top"/>
  <outline>
    <contour>
      <point x="217" y="1438" type="curve"/>
      <point x="59" y="1130" type="line"/>
      <point x="73" y="1104"/>
      <point x="101" y="1088"/>
      <point x="131" y="1080" type="curve"/>
      <point x="364" y="1367" type="line"/>
      <point x="336" y="1405"/>
      <point x="281" y="1438"/>
    </contour>
    <contour>
      <point x="-80" y="1438" type="curve"/>
      <point x="-220" y="1126" type="line"/>
      <point x="-205" y="1101"/>
      <point x="-176" y="1086"/>
      <point x="-146" y="1080" type="curve"/>
      <point x="70" y="1375" type="line"/>
      <point x="40" y="1411"/>
      <point x="-16" y="1441"/>
    </contour>
  </outline>
</glyph>
<glyph name="caroncomb" format="2">
  <unicode hex="030C"/>
  <anchor x="0" y="1084" name="_top"/>
  <anchor x="0" y="1458" name="top"/>
  <outline>
    <contour>
      <point x="-63" y="1102" type="line"/>
      <point x="-46" y="1097"/>
      <point x="-21" y="1094"/>
      <point x="1" y="1094" type="curve" smooth="yes"/>
      <point x="23" y="1094"/>
      <point x="48" y="1097"/>
      <point x="65" y="1102" type="curve"/>
      <point x="267" y="1354" type="line"/>
      <point x="251" y="1386"/>
      <point x="219" y="1414"/>
      <point x="191" y="1422" type="curve"/>
      <point x="1" y="1234" type="line"/>
      <point x="-189" y="1422" type="line"/>
      <point x="-217" y="1414"/>
      <point x="-249" y="1386"/>
      <point x="-265" y="1354" type="curve"/>
    </contour>
  </outline>
</glyph>
<glyph name="breveinvertedcomb" format="2">
  <unicode hex="0311"/>
  <anchor x="0" y="1084" name="_top"/>
  <anchor x="0" y="1427" name="top"/>
  <outline>
    <contour>
      <point x="298" y="1136" type="curve"/>
      <point x="256" y="1278"/>
      <point x="144" y="1368"/>
      <point x="0" y="1368" type="curve" smooth="yes"/>
      <point x="-144" y="1368"/>
      <point x="-256" y="1278"/>
      <point x="-298" y="1136" type="curve"/>
      <point x="-280" y="1114"/>
      <point x="-246" y="1104"/>
      <point x="-216" y="1102" type="curve"/>
      <point x="-182" y="1186"/>
      <point x="-94" y="1232"/>
      <point x="0" y="1232" type="curve" smooth="yes"/>
      <point x="94" y="1232"/>
      <point x="182" y="1186"/>
      <point x="216" y="1102" type="curve"/>
      <point x="246" y="1104"/>
      <point x="280" y="1114"/>
    </contour>
  </outline>
</glyph>
<glyph name="commaturnedabovecomb" format="2">
  <unicode hex="0312"/>
  <guideline x="397" y="1052" angle="90"/>
  <anchor x="0" y="1084" name="_top"/>
  <anchor x="2" y="1475" name="top_U"/>
  <outline>
    <contour>
      <point x="-66" y="1108" type="curve"/>
      <point x="-50" y="1104"/>
      <point x="-32" y="1102"/>
      <point x="-14" y="1102" type="curve" smooth="yes"/>
      <point x="23" y="1102"/>
      <point x="62" y="1110"/>
      <point x="90" y="1128" type="curve"/>
      <point x="76" y="1156"/>
      <point x="65" y="1195"/>
      <point x="65" y="1230" type="curve" smooth="yes"/>
      <point x="65" y="1303"/>
      <point x="100" y="1359"/>
      <point x="175" y="1412" type="curve"/>
      <point x="169" y="1440"/>
      <point x="150" y="1467"/>
      <point x="126" y="1475" type="curve"/>
      <point x="-1" y="1416"/>
      <point x="-82" y="1314"/>
      <point x="-82" y="1197" type="curve" smooth="yes"/>
      <point x="-82" y="1165"/>
      <point x="-74" y="1126"/>
    </contour>
  </outline>
</glyph>
<glyph name="dotbelowcomb" format="2">
  <unicode hex="0323"/>
  <anchor x="0" y="0" name="_bottom"/>
  <anchor x="0" y="-408" name="bottom"/>
  <outline>
    <contour>
      <point x="-100" y="-214" type="curve" smooth="yes"/>
      <point x="-100" y="-238"/>
      <point x="-94" y="-270"/>
      <point x="-86" y="-286" type="curve"/>
      <point x="-68" y="-298"/>
      <point x="-30" y="-306"/>
      <point x="0" y="-306" type="curve" smooth="yes"/>
      <point x="26" y="-306"/>
      <point x="70" y="-298"/>
      <point x="86" y="-286" type="curve"/>
      <point x="94" y="-270"/>
      <point x="100" y="-238"/>
      <point x="100" y="-214" type="curve" smooth="yes"/>
      <point x="100" y="-190"/>
      <point x="94" y="-158"/>
      <point x="86" y="-142" type="curve"/>
      <point x="72" y="-130"/>
      <point x="26" y="-122"/>
      <point x="0" y="-122" type="curve" smooth="yes"/>
      <point x="-30" y="-122"/>
      <point x="-68" y="-130"/>
      <point x="-86" y="-142" type="curve"/>
      <point x="-94" y="-158"/>
      <point x="-100" y="-190"/>
    </contour>
  </outline>
</glyph>
<glyph name="commaaccentcomb" format="2">
  <unicode hex="0326"/>
  <anchor x="0" y="0" name="_bottom"/>
  <anchor x="0" y="-496" name="bottom_U"/>
  <outline>
    <contour>
      <point x="88" y="-122" type="curve"/>
      <point x="72" y="-117"/>
      <point x="54" y="-115"/>
      <point x="35" y="-115" type="curve" smooth="yes"/>
      <point x="-2" y="-115"/>
      <point x="-41" y="-124"/>
      <point x="-70" y="-142" type="curve"/>
      <point x="-56" y="-170"/>
      <point x="-44" y="-210"/>
      <point x="-44" y="-246" type="curve" smooth="yes"/>
      <point x="-44" y="-320"/>
      <point x="-80" y="-378"/>
      <point x="-156" y="-432" type="curve"/>
      <point x="-150" y="-460"/>
      <point x="-130" y="-488"/>
      <point x="-106" y="-496" type="curve"/>
      <point x="22" y="-436"/>
      <point x="104" y="-332"/>
      <point x="104" y="-212" type="curve" smooth="yes"/>
      <point x="104" y="-180"/>
      <point x="96" y="-140"/>
    </contour>
  </outline>
</glyph>
<glyph name="brevebelowcomb" format="2">
  <unicode hex="032E"/>
  <anchor x="0" y="0" name="_bottom"/>
  <anchor x="0" y="-406" name="bottom"/>
  <outline>
    <contour>
      <point x="298" y="-156" type="curve"/>
      <point x="280" y="-134"/>
      <point x="246" y="-124"/>
      <point x="216" y="-122" type="curve"/>
      <point x="182" y="-206"/>
      <point x="94" y="-252"/>
      <point x="0" y="-252" type="curve" smooth="yes"/>
      <point x="-94" y="-252"/>
      <point x="-182" y="-206"/>
      <point x="-216" y="-122" type="curve"/>
      <point x="-246" y="-124"/>
      <point x="-280" y="-134"/>
      <point x="-298" y="-156" type="curve"/>
      <point x="-256" y="-298"/>
      <point x="-144" y="-388"/>
      <point x="0" y="-388" type="curve" smooth="yes"/>
      <point x="144" y="-388"/>
      <point x="256" y="-298"/>
    </contour>
  </outline>
</glyph>
<glyph name="pi" format="2">
  <advance width="1108"/>
  <unicode hex="03C0"/>
  <outline>
    <contour>
      <point x="716" y="912" type="line"/>
      <point x="716" y="146" type="line" smooth="yes"/>
      <point x="716" y="50"/>
      <point x="760" y="-6"/>
      <point x="854" y="-6" type="curve" smooth="yes"/>
      <point x="898" y="-6"/>
      <point x="964" y="-2"/>
      <point x="996" y="2" type="curve"/>
      <point x="1000" y="22"/>
      <point x="1002" y="36"/>
      <point x="1002" y="54" type="curve" smooth="yes"/>
      <point x="1002" y="72"/>
      <point x="1000" y="88"/>
      <point x="996" y="106" type="curve"/>
      <point x="942" y="106" type="line" smooth="yes"/>
      <point x="880" y="106"/>
      <point x="854" y="122"/>
      <point x="854" y="196" type="curve" smooth="yes"/>
      <point x="854" y="912" type="line"/>
    </contour>
    <contour>
      <point x="64" y="856" type="curve"/>
      <point x="968" y="856" type="line" smooth="yes"/>
      <point x="1026" y="856"/>
      <point x="1056" y="874"/>
      <point x="1056" y="920" type="curve" smooth="yes"/>
      <point x="1056" y="940"/>
      <point x="1052" y="962"/>
      <point x="1046" y="980" type="curve"/>
      <point x="64" y="980" type="line"/>
      <point x="60" y="958"/>
      <point x="58" y="938"/>
      <point x="58" y="918" type="curve" smooth="yes"/>
      <point x="58" y="898"/>
      <point x="60" y="876"/>
    </contour>
    <contour>
      <point x="426" y="912" type="line"/>
      <point x="290" y="912" type="line"/>
      <point x="290" y="866" type="line" smooth="yes"/>
      <point x="290" y="600"/>
      <point x="266" y="304"/>
      <point x="114" y="34" type="curve"/>
      <point x="126" y="22"/>
      <point x="148" y="8"/>
      <point x="172" y="-2" type="curve" smooth="yes"/>
      <point x="200" y="-14"/>
      <point x="230" y="-22"/>
      <point x="252" y="-22" type="curve"/>
      <point x="388" y="230"/>
      <point x="426" y="548"/>
      <point x="426" y="864" type="curve" smooth="yes"/>
    </contour>
  </outline>
</glyph>
<glyph name="Germandbls" format="2">
  <advance width="1269"/>
  <unicode hex="1E9E"/>
  <guideline x="854" y="1073" angle="231.3149"/>
  <guideline x="1094" y="1191" angle="90"/>
  <outline>
    <contour>
      <point x="771" y="-24" type="curve" smooth="yes"/>
      <point x="1008" y="-24"/>
      <point x="1178" y="134"/>
      <point x="1178" y="380" type="curve" smooth="yes"/>
      <point x="1178" y="617"/>
      <point x="1021" y="761"/>
      <point x="803" y="761" type="curve" smooth="yes"/>
      <point x="778" y="761"/>
      <point x="764" y="760"/>
      <point x="724" y="751" type="curve"/>
      <point x="727" y="728" type="line"/>
      <point x="771" y="764"/>
      <point x="804" y="804"/>
      <point x="840" y="848" type="curve" smooth="yes"/>
      <point x="1075" y="1124" type="line" smooth="yes"/>
      <point x="1096" y="1150"/>
      <point x="1114" y="1172"/>
      <point x="1114" y="1208" type="curve" smooth="yes"/>
      <point x="1114" y="1232"/>
      <point x="1103" y="1259"/>
      <point x="1085" y="1299" type="curve"/>
      <point x="967" y="1353"/>
      <point x="816" y="1390"/>
      <point x="655" y="1390" type="curve" smooth="yes"/>
      <point x="368" y="1390"/>
      <point x="184" y="1218"/>
      <point x="184" y="945" type="curve" smooth="yes"/>
      <point x="184" y="0" type="line"/>
      <point x="204" y="-4"/>
      <point x="232" y="-6"/>
      <point x="254" y="-6" type="curve" smooth="yes"/>
      <point x="276" y="-6"/>
      <point x="308" y="-4"/>
      <point x="328" y="0" type="curve"/>
      <point x="328" y="919" type="line" smooth="yes"/>
      <point x="328" y="1151"/>
      <point x="445" y="1268"/>
      <point x="655" y="1268" type="curve" smooth="yes"/>
      <point x="769" y="1268"/>
      <point x="892" y="1238"/>
      <point x="968" y="1198" type="curve"/>
      <point x="970" y="1189" type="line"/>
      <point x="931" y="1152"/>
      <point x="909" y="1124"/>
      <point x="867" y="1073" type="curve" smooth="yes"/>
      <point x="584" y="735" type="line"/>
      <point x="592" y="694"/>
      <point x="609" y="665"/>
      <point x="642" y="641" type="curve"/>
      <point x="671" y="649"/>
      <point x="706" y="655"/>
      <point x="746" y="655" type="curve" smooth="yes"/>
      <point x="906" y="655"/>
      <point x="1034" y="565"/>
      <point x="1034" y="372" type="curve" smooth="yes"/>
      <point x="1034" y="200"/>
      <point x="932" y="95"/>
      <point x="765" y="95" type="curve" smooth="yes"/>
      <point x="696" y="95"/>
      <point x="626" y="114"/>
      <point x="555" y="154" type="curve"/>
      <point x="527" y="130"/>
      <point x="506" y="86"/>
      <point x="500" y="47" type="curve"/>
      <point x="573" y="4"/>
      <point x="676" y="-24"/>
    </contour>
  </outline>
</glyph>
<glyph name="figuredash" format="2">
  <advance width="1080"/>
  <unicode hex="2012"/>
  <outline>
    <contour>
      <point x="159" y="586" type="curve"/>
      <point x="921" y="586" type="line"/>
      <point x="925" y="604"/>
      <point x="927" y="620"/>
      <point x="927" y="646" type="curve" smooth="yes"/>
      <point x="927" y="674"/>
      <point x="925" y="690"/>
      <point x="921" y="710" type="curve"/>
      <point x="159" y="710" type="line"/>
      <point x="155" y="690"/>
      <point x="153" y="674"/>
      <point x="153" y="646" type="curve" smooth="yes"/>
      <point x="153" y="620"/>
      <point x="155" y="604"/>
    </contour>
  </outline>
</glyph>
<glyph name="emdash" format="2">
  <advance width="1576"/>
  <unicode hex="2014"/>
  <outline>
    <contour>
      <point x="166" y="466" type="curve"/>
      <point x="1410" y="466" type="line"/>
      <point x="1414" y="484"/>
      <point x="1416" y="500"/>
      <point x="1416" y="526" type="curve" smooth="yes"/>
      <point x="1416" y="554"/>
      <point x="1414" y="570"/>
      <point x="1410" y="590" type="curve"/>
      <point x="166" y="590" type="line"/>
      <point x="162" y="570"/>
      <point x="160" y="554"/>
      <point x="160" y="526" type="curve" smooth="yes"/>
      <point x="160" y="500"/>
      <point x="162" y="484"/>
    </contour>
  </outline>
</glyph>
<glyph name="quoteright" format="2">
  <advance width="404"/>
  <unicode hex="2019"/>
  <outline>
    <contour>
      <point x="294" y="1464" type="curve"/>
      <point x="278" y="1476"/>
      <point x="228" y="1484"/>
      <point x="196" y="1484" type="curve" smooth="yes"/>
      <point x="162" y="1484"/>
      <point x="110" y="1472"/>
      <point x="94" y="1464" type="curve"/>
      <point x="84" y="1450"/>
      <point x="78" y="1406"/>
      <point x="78" y="1376" type="curve" smooth="yes"/>
      <point x="78" y="1346"/>
      <point x="86" y="1308"/>
      <point x="94" y="1294" type="curve"/>
      <point x="110" y="1282"/>
      <point x="152" y="1276"/>
      <point x="174" y="1274" type="curve"/>
      <point x="172" y="1206"/>
      <point x="122" y="1142"/>
      <point x="54" y="1104" type="curve"/>
      <point x="52" y="1076"/>
      <point x="72" y="1042"/>
      <point x="98" y="1030" type="curve"/>
      <point x="240" y="1092"/>
      <point x="314" y="1206"/>
      <point x="314" y="1348" type="curve" smooth="yes"/>
      <point x="314" y="1390"/>
      <point x="306" y="1440"/>
    </contour>
  </outline>
</glyph>
<glyph name="commercialMinusSign" format="2">
  <advance width="1080"/>
  <unicode hex="2052"/>
  <outline>
    <contour>
      <point x="319" y="-16" type="curve"/>
      <point x="883" y="1338" type="line"/>
      <point x="855" y="1363"/>
      <point x="802" y="1383"/>
      <point x="761" y="1387" type="curve"/>
      <point x="197" y="33" type="line"/>
      <point x="227" y="5"/>
      <point x="276" y="-14"/>
    </contour>
    <contour>
      <point x="211" y="1285" type="curve" smooth="yes"/>
      <point x="211" y="1261"/>
      <point x="217" y="1228"/>
      <point x="225" y="1211" type="curve"/>
      <point x="244" y="1199"/>
      <point x="283" y="1190"/>
      <point x="314" y="1190" type="curve" smooth="yes"/>
      <point x="341" y="1190"/>
      <point x="388" y="1199"/>
      <point x="403" y="1211" type="curve"/>
      <point x="411" y="1228"/>
      <point x="417" y="1261"/>
      <point x="417" y="1285" type="curve" smooth="yes"/>
      <point x="417" y="1310"/>
      <point x="411" y="1343"/>
      <point x="403" y="1359" type="curve"/>
      <point x="386" y="1372"/>
      <point x="341" y="1380"/>
      <point x="314" y="1380" type="curve" smooth="yes"/>
      <point x="283" y="1380"/>
      <point x="244" y="1372"/>
      <point x="225" y="1359" type="curve"/>
      <point x="217" y="1343"/>
      <point x="211" y="1310"/>
    </contour>
    <contour>
      <point x="663" y="81" type="curve" smooth="yes"/>
      <point x="663" y="56"/>
      <point x="669" y="23"/>
      <point x="677" y="7" type="curve"/>
      <point x="696" y="-6"/>
      <point x="735" y="-14"/>
      <point x="766" y="-14" type="curve" smooth="yes"/>
      <point x="793" y="-14"/>
      <point x="840" y="-6"/>
      <point x="855" y="7" type="curve"/>
      <point x="863" y="23"/>
      <point x="869" y="56"/>
      <point x="869" y="81" type="curve" smooth="yes"/>
      <point x="869" y="105"/>
      <point x="863" y="138"/>
      <point x="855" y="155" type="curve"/>
      <point x="838" y="167"/>
      <point x="793" y="176"/>
      <point x="766" y="176" type="curve" smooth="yes"/>
      <point x="735" y="176"/>
      <point x="696" y="167"/>
      <point x="677" y="155" type="curve"/>
      <point x="669" y="138"/>
      <point x="663" y="105"/>
    </contour>
  </outline>
</glyph>
<glyph name="zerosuperior" format="2">
  <advance width="840"/>
  <unicode hex="2070"/>
  <outline>
    <contour>
      <point x="420" y="638" type="curve" smooth="yes"/>
      <point x="499" y="638"/>
      <point x="565" y="663"/>
      <point x="612" y="707" type="curve" smooth="yes"/>
      <point x="686" y="776"/>
      <point x="709" y="887"/>
      <point x="709" y="1062" type="curve" smooth="yes"/>
      <point x="709" y="1234"/>
      <point x="687" y="1346"/>
      <point x="613" y="1416" type="curve" smooth="yes"/>
      <point x="562" y="1464"/>
      <point x="494" y="1485"/>
      <point x="418" y="1485" type="curve" smooth="yes"/>
      <point x="340" y="1485"/>
      <point x="276" y="1463"/>
      <point x="226" y="1415" type="curve" smooth="yes"/>
      <point x="154" y="1346"/>
      <point x="130" y="1250"/>
      <point x="130" y="1066" type="curve" smooth="yes"/>
      <point x="130" y="901"/>
      <point x="150" y="782"/>
      <point x="223" y="710" type="curve" smooth="yes"/>
      <point x="269" y="665"/>
      <point x="338" y="638"/>
    </contour>
    <contour>
      <point x="419" y="742" type="curve" smooth="yes"/>
      <point x="371" y="742"/>
      <point x="336" y="758"/>
      <point x="312" y="785" type="curve" smooth="yes"/>
      <point x="269" y="834"/>
      <point x="258" y="928"/>
      <point x="258" y="1062" type="curve" smooth="yes"/>
      <point x="258" y="1212"/>
      <point x="272" y="1294"/>
      <point x="313" y="1340" type="curve" smooth="yes"/>
      <point x="337" y="1367"/>
      <point x="373" y="1381"/>
      <point x="419" y="1381" type="curve" smooth="yes"/>
      <point x="463" y="1381"/>
      <point x="499" y="1368"/>
      <point x="524" y="1341" type="curve" smooth="yes"/>
      <point x="569" y="1293"/>
      <point x="581" y="1200"/>
      <point x="581" y="1064" type="curve" smooth="yes"/>
      <point x="581" y="907"/>
      <point x="565" y="828"/>
      <point x="526" y="784" type="curve" smooth="yes"/>
      <point x="500" y="755"/>
      <point x="461" y="742"/>
    </contour>
  </outline>
</glyph>
<glyph name="foursuperior" format="2">
  <advance width="840"/>
  <unicode hex="2074"/>
  <outline>
    <contour>
      <point x="142" y="818" type="curve"/>
      <point x="401" y="818" type="line" smooth="yes"/>
      <point x="419" y="818"/>
      <point x="447" y="819"/>
      <point x="463" y="819" type="curve" smooth="yes"/>
      <point x="581" y="819" type="line" smooth="yes"/>
      <point x="599" y="819"/>
      <point x="625" y="818"/>
      <point x="641" y="818" type="curve" smooth="yes"/>
      <point x="710" y="818" type="line"/>
      <point x="716" y="832"/>
      <point x="720" y="862"/>
      <point x="720" y="878" type="curve" smooth="yes"/>
      <point x="720" y="892"/>
      <point x="718" y="914"/>
      <point x="714" y="928" type="curve"/>
      <point x="641" y="928" type="line" smooth="yes"/>
      <point x="625" y="928"/>
      <point x="599" y="927"/>
      <point x="581" y="927" type="curve" smooth="yes"/>
      <point x="360" y="927" type="line" smooth="yes"/>
      <point x="330" y="927"/>
      <point x="291" y="926"/>
      <point x="249" y="924" type="curve"/>
      <point x="247" y="928" type="line"/>
      <point x="271" y="962"/>
      <point x="294" y="1010"/>
      <point x="314" y="1054" type="curve" smooth="yes"/>
      <point x="498" y="1448" type="line"/>
      <point x="476" y="1472"/>
      <point x="418" y="1484"/>
      <point x="382" y="1478" type="curve"/>
      <point x="144" y="978" type="line" smooth="yes"/>
      <point x="131" y="951"/>
      <point x="114" y="908"/>
      <point x="114" y="890" type="curve" smooth="yes"/>
      <point x="114" y="868"/>
      <point x="128" y="838"/>
    </contour>
    <contour>
      <point x="462" y="767" type="curve" smooth="yes"/>
      <point x="462" y="652" type="line"/>
      <point x="478" y="646"/>
      <point x="502" y="644"/>
      <point x="524" y="644" type="curve" smooth="yes"/>
      <point x="544" y="644"/>
      <point x="568" y="646"/>
      <point x="582" y="652" type="curve"/>
      <point x="582" y="767" type="line" smooth="yes"/>
      <point x="582" y="779"/>
      <point x="581" y="805"/>
      <point x="581" y="819" type="curve" smooth="yes"/>
      <point x="581" y="927" type="line" smooth="yes"/>
      <point x="581" y="943"/>
      <point x="582" y="979"/>
      <point x="582" y="995" type="curve" smooth="yes"/>
      <point x="582" y="1158" type="line"/>
      <point x="580" y="1162" type="line"/>
      <point x="536" y="1162" type="line" smooth="yes"/>
      <point x="494" y="1162"/>
      <point x="462" y="1130"/>
      <point x="462" y="1076" type="curve" smooth="yes"/>
      <point x="462" y="996" type="line" smooth="yes"/>
      <point x="462" y="982"/>
      <point x="463" y="939"/>
      <point x="463" y="927" type="curve" smooth="yes"/>
      <point x="463" y="819" type="line" smooth="yes"/>
      <point x="463" y="805"/>
      <point x="462" y="779"/>
    </contour>
  </outline>
</glyph>
<glyph name="fivesuperior" format="2">
  <advance width="840"/>
  <unicode hex="2075"/>
  <outline>
    <contour>
      <point x="383" y="638" type="curve" smooth="yes"/>
      <point x="544" y="638"/>
      <point x="689" y="730"/>
      <point x="689" y="925" type="curve" smooth="yes"/>
      <point x="689" y="1094"/>
      <point x="581" y="1193"/>
      <point x="427" y="1193" type="curve" smooth="yes"/>
      <point x="313" y="1193"/>
      <point x="226" y="1139"/>
      <point x="169" y="1080" type="curve"/>
      <point x="183" y="1060"/>
      <point x="212" y="1040"/>
      <point x="235" y="1036" type="curve"/>
      <point x="279" y="1071"/>
      <point x="332" y="1092"/>
      <point x="391" y="1092" type="curve" smooth="yes"/>
      <point x="474" y="1092"/>
      <point x="561" y="1052"/>
      <point x="561" y="922" type="curve" smooth="yes"/>
      <point x="561" y="801"/>
      <point x="485" y="744"/>
      <point x="383" y="744" type="curve" smooth="yes"/>
      <point x="315" y="744"/>
      <point x="248" y="769"/>
      <point x="191" y="801" type="curve"/>
      <point x="162" y="777"/>
      <point x="144" y="733"/>
      <point x="141" y="710" type="curve"/>
      <point x="192" y="669"/>
      <point x="289" y="638"/>
    </contour>
    <contour>
      <point x="169" y="1080" type="line"/>
      <point x="281" y="1104" type="line"/>
      <point x="292" y="1139"/>
      <point x="296" y="1172"/>
      <point x="298" y="1203" type="curve" smooth="yes"/>
      <point x="303" y="1299" type="line" smooth="yes"/>
      <point x="305" y="1346"/>
      <point x="301" y="1389"/>
      <point x="300" y="1410" type="curve"/>
      <point x="189" y="1461" type="line"/>
    </contour>
    <contour>
      <point x="377" y="1364" type="curve" smooth="yes"/>
      <point x="593" y="1364" type="line" smooth="yes"/>
      <point x="633" y="1364"/>
      <point x="654" y="1384"/>
      <point x="654" y="1421" type="curve" smooth="yes"/>
      <point x="654" y="1436"/>
      <point x="651" y="1452"/>
      <point x="644" y="1470" type="curve"/>
      <point x="197" y="1470" type="line"/>
      <point x="189" y="1461" type="line"/>
      <point x="266" y="1370" type="line"/>
      <point x="305" y="1365"/>
      <point x="346" y="1364"/>
    </contour>
  </outline>
</glyph>
<glyph name="eightsuperior" format="2">
  <advance width="840"/>
  <unicode hex="2078"/>
  <outline>
    <contour>
      <point x="128" y="859" type="curve" smooth="yes"/>
      <point x="128" y="721"/>
      <point x="239" y="631"/>
      <point x="414" y="631" type="curve" smooth="yes"/>
      <point x="585" y="631"/>
      <point x="712" y="717"/>
      <point x="712" y="873" type="curve" smooth="yes"/>
      <point x="712" y="1010"/>
      <point x="600" y="1082"/>
      <point x="467" y="1123" type="curve" smooth="yes"/>
      <point x="441" y="1131" type="line" smooth="yes"/>
      <point x="380" y="1150"/>
      <point x="278" y="1179"/>
      <point x="278" y="1272" type="curve" smooth="yes"/>
      <point x="278" y="1345"/>
      <point x="330" y="1396"/>
      <point x="418" y="1396" type="curve" smooth="yes"/>
      <point x="502" y="1396"/>
      <point x="561" y="1349"/>
      <point x="561" y="1265" type="curve" smooth="yes"/>
      <point x="561" y="1192"/>
      <point x="510" y="1134"/>
      <point x="402" y="1107" type="curve"/>
      <point x="501" y="1069" type="line"/>
      <point x="599" y="1096"/>
      <point x="688" y="1167"/>
      <point x="688" y="1273" type="curve" smooth="yes"/>
      <point x="688" y="1405"/>
      <point x="574" y="1492"/>
      <point x="423" y="1492" type="curve" smooth="yes"/>
      <point x="267" y="1492"/>
      <point x="151" y="1400"/>
      <point x="151" y="1266" type="curve" smooth="yes"/>
      <point x="151" y="1151"/>
      <point x="252" y="1072"/>
      <point x="383" y="1038" type="curve" smooth="yes"/>
      <point x="406" y="1032" type="line" smooth="yes"/>
      <point x="494" y="1009"/>
      <point x="583" y="961"/>
      <point x="583" y="868" type="curve" smooth="yes"/>
      <point x="583" y="782"/>
      <point x="516" y="725"/>
      <point x="414" y="725" type="curve" smooth="yes"/>
      <point x="323" y="725"/>
      <point x="255" y="773"/>
      <point x="255" y="869" type="curve" smooth="yes"/>
      <point x="255" y="961"/>
      <point x="327" y="1028"/>
      <point x="444" y="1062" type="curve"/>
      <point x="339" y="1099" type="line"/>
      <point x="224" y="1065"/>
      <point x="128" y="978"/>
    </contour>
  </outline>
</glyph>
<glyph name="colonsign" format="2">
  <advance width="1080"/>
  <unicode hex="20A1"/>
  <guideline x="659" y="1359" angle="255.1037"/>
  <guideline x="929" y="1359" angle="255.1037"/>
  <outline>
    <contour>
      <point x="286" y="-110" type="curve" smooth="yes"/>
      <point x="306" y="-110"/>
      <point x="324" y="-107"/>
      <point x="338" y="-104" type="curve"/>
      <point x="409" y="188" type="line"/>
      <point x="293" y="188" type="line"/>
      <point x="224" y="-93" type="line"/>
      <point x="230" y="-102" type="line"/>
      <point x="244" y="-107"/>
      <point x="266" y="-110"/>
    </contour>
    <contour>
      <point x="556" y="-110" type="curve" smooth="yes"/>
      <point x="576" y="-110"/>
      <point x="594" y="-107"/>
      <point x="608" y="-104" type="curve"/>
      <point x="662" y="118" type="line"/>
      <point x="546" y="118" type="line"/>
      <point x="494" y="-93" type="line"/>
      <point x="500" y="-102" type="line"/>
      <point x="514" y="-107"/>
      <point x="536" y="-110"/>
    </contour>
    <contour>
      <point x="489" y="1156" type="line"/>
      <point x="605" y="1156" type="line"/>
      <point x="659" y="1359" type="line"/>
      <point x="653" y="1368" type="line"/>
      <point x="637" y="1374"/>
      <point x="613" y="1376"/>
      <point x="597" y="1376" type="curve" smooth="yes"/>
      <point x="581" y="1376"/>
      <point x="562" y="1374"/>
      <point x="545" y="1370" type="curve"/>
    </contour>
    <contour>
      <point x="745" y="1104" type="line"/>
      <point x="861" y="1104" type="line"/>
      <point x="929" y="1359" type="line"/>
      <point x="923" y="1368" type="line"/>
      <point x="907" y="1374"/>
      <point x="883" y="1376"/>
      <point x="867" y="1376" type="curve" smooth="yes"/>
      <point x="851" y="1376"/>
      <point x="832" y="1374"/>
      <point x="815" y="1370" type="curve"/>
    </contour>
    <contour>
      <point x="836" y="784" type="curve"/>
      <point x="861" y="776"/>
      <point x="875" y="774"/>
      <point x="890" y="774" type="curve" smooth="yes"/>
      <point x="960" y="774"/>
      <point x="976" y="810"/>
      <point x="976" y="865" type="curve" smooth="yes"/>
      <point x="976" y="1023"/>
      <point x="831" y="1206"/>
      <point x="593" y="1206" type="curve" smooth="yes"/>
      <point x="315" y="1206"/>
      <point x="136" y="995"/>
      <point x="136" y="628" type="curve" smooth="yes"/>
      <point x="136" y="331"/>
      <point x="254" y="60"/>
      <point x="579" y="60" type="curve" smooth="yes"/>
      <point x="747" y="60"/>
      <point x="882" y="148"/>
      <point x="964" y="252" type="curve"/>
      <point x="952" y="286"/>
      <point x="918" y="323"/>
      <point x="882" y="340" type="curve"/>
      <point x="782" y="227"/>
      <point x="690" y="181"/>
      <point x="596" y="181" type="curve" smooth="yes"/>
      <point x="400" y="181"/>
      <point x="288" y="341"/>
      <point x="288" y="636" type="curve" smooth="yes"/>
      <point x="288" y="928"/>
      <point x="398" y="1089"/>
      <point x="593" y="1089" type="curve" smooth="yes"/>
      <point x="775" y="1089"/>
      <point x="836" y="917"/>
    </contour>
  </outline>
</glyph>
<glyph name="lira" format="2">
  <advance width="1080"/>
  <unicode hex="20A4"/>
  <guideline x="146" y="94" angle="90"/>
  <guideline x="780" y="827" angle="90"/>
  <outline>
    <contour>
      <point x="169" y="0" type="curve"/>
      <point x="858" y="0" type="line" smooth="yes"/>
      <point x="916" y="0"/>
      <point x="951" y="17"/>
      <point x="951" y="126" type="curve"/>
      <point x="590" y="126" type="line" smooth="yes"/>
      <point x="481" y="126"/>
      <point x="373" y="120"/>
      <point x="297" y="118" type="curve"/>
      <point x="292" y="123" type="line"/>
      <point x="385" y="206"/>
      <point x="477" y="322"/>
      <point x="477" y="480" type="curve" smooth="yes"/>
      <point x="477" y="648"/>
      <point x="395" y="794"/>
      <point x="395" y="938" type="curve" smooth="yes"/>
      <point x="395" y="1089"/>
      <point x="493" y="1168"/>
      <point x="611" y="1168" type="curve" smooth="yes"/>
      <point x="696" y="1168"/>
      <point x="782" y="1132"/>
      <point x="858" y="1060" type="curve"/>
      <point x="898" y="1080"/>
      <point x="927" y="1125"/>
      <point x="934" y="1164" type="curve"/>
      <point x="872" y="1221"/>
      <point x="765" y="1293"/>
      <point x="610" y="1293" type="curve" smooth="yes"/>
      <point x="363" y="1293"/>
      <point x="242" y="1108"/>
      <point x="242" y="939" type="curve" smooth="yes"/>
      <point x="242" y="785"/>
      <point x="337" y="628"/>
      <point x="337" y="471" type="curve" smooth="yes"/>
      <point x="337" y="363"/>
      <point x="287" y="291"/>
      <point x="219" y="214" type="curve" smooth="yes"/>
      <point x="194" y="186" type="line" smooth="yes"/>
      <point x="172" y="162"/>
      <point x="147" y="134"/>
      <point x="147" y="96" type="curve" smooth="yes"/>
      <point x="147" y="79"/>
      <point x="150" y="58"/>
    </contour>
    <contour>
      <point x="152" y="430" type="curve"/>
      <point x="406" y="432" type="line"/>
      <point x="780" y="430" type="line"/>
      <point x="784" y="446"/>
      <point x="786" y="467"/>
      <point x="786" y="486" type="curve" smooth="yes"/>
      <point x="786" y="507"/>
      <point x="784" y="524"/>
      <point x="780" y="539" type="curve"/>
      <point x="406" y="538" type="line"/>
      <point x="152" y="539" type="line"/>
      <point x="148" y="520"/>
      <point x="146" y="502"/>
      <point x="146" y="483" type="curve" smooth="yes"/>
      <point x="146" y="463"/>
      <point x="148" y="447"/>
    </contour>
    <contour>
      <point x="142" y="722" type="curve"/>
      <point x="356" y="724" type="line"/>
      <point x="780" y="722" type="line"/>
      <point x="784" y="738"/>
      <point x="786" y="759"/>
      <point x="786" y="778" type="curve" smooth="yes"/>
      <point x="786" y="799"/>
      <point x="784" y="816"/>
      <point x="780" y="831" type="curve"/>
      <point x="336" y="830" type="line"/>
      <point x="142" y="831" type="line"/>
      <point x="138" y="812"/>
      <point x="136" y="794"/>
      <point x="136" y="775" type="curve" smooth="yes"/>
      <point x="136" y="755"/>
      <point x="138" y="739"/>
    </contour>
  </outline>
</glyph>
<glyph name="peseta" format="2">
  <advance width="1080"/>
  <unicode hex="20A7"/>
  <guideline x="864" y="-11" angle="0"/>
  <guideline x="904" y="577" angle="307.77570000000003"/>
  <guideline x="848" y="450" angle="307.77570000000003"/>
  <outline>
    <contour>
      <point x="123" y="-6" type="curve" smooth="yes"/>
      <point x="141" y="-6"/>
      <point x="170" y="-4"/>
      <point x="188" y="0" type="curve"/>
      <point x="188" y="1168" type="line"/>
      <point x="203" y="1168" type="line" smooth="yes"/>
      <point x="266" y="1168"/>
      <point x="308" y="1106"/>
      <point x="308" y="773" type="curve" smooth="yes"/>
      <point x="308" y="445"/>
      <point x="270" y="376"/>
      <point x="212" y="376" type="curve" smooth="yes"/>
      <point x="134" y="376" type="line"/>
      <point x="134" y="270" type="line"/>
      <point x="223" y="270" type="line" smooth="yes"/>
      <point x="353" y="270"/>
      <point x="430" y="413"/>
      <point x="430" y="776" type="curve" smooth="yes"/>
      <point x="430" y="1243"/>
      <point x="318" y="1274"/>
      <point x="198" y="1274" type="curve" smooth="yes"/>
      <point x="81" y="1274" type="line"/>
      <point x="69" y="1263" type="line"/>
      <point x="69" y="0" type="line"/>
      <point x="82" y="-3"/>
      <point x="101" y="-6"/>
    </contour>
    <contour>
      <point x="630" y="-10" type="curve" smooth="yes"/>
      <point x="701" y="-10"/>
      <point x="746" y="20"/>
      <point x="784" y="74" type="curve"/>
      <point x="727" y="131" type="line"/>
      <point x="711" y="106"/>
      <point x="688" y="86"/>
      <point x="654" y="86" type="curve" smooth="yes"/>
      <point x="623" y="86"/>
      <point x="609" y="110"/>
      <point x="609" y="149" type="curve" smooth="yes"/>
      <point x="609" y="1114" type="line"/>
      <point x="597" y="1125" type="line"/>
      <point x="561" y="1125" type="line" smooth="yes"/>
      <point x="519" y="1125"/>
      <point x="494" y="1104"/>
      <point x="494" y="1057" type="curve" smooth="yes"/>
      <point x="494" y="136" type="line" smooth="yes"/>
      <point x="494" y="36"/>
      <point x="549" y="-10"/>
    </contour>
    <contour>
      <point x="868" y="-11" type="curve" smooth="yes"/>
      <point x="989" y="-11"/>
      <point x="1047" y="67"/>
      <point x="1047" y="212" type="curve" smooth="yes"/>
      <point x="1047" y="338"/>
      <point x="1010" y="415"/>
      <point x="938" y="501" type="curve" smooth="yes"/>
      <point x="908" y="537" type="line" smooth="yes"/>
      <point x="867" y="586"/>
      <point x="829" y="643"/>
      <point x="829" y="732" type="curve" smooth="yes"/>
      <point x="829" y="804"/>
      <point x="850" y="832"/>
      <point x="882" y="832" type="curve" smooth="yes"/>
      <point x="918" y="832"/>
      <point x="930" y="791"/>
      <point x="930" y="726" type="curve" smooth="yes"/>
      <point x="930" y="644" type="line"/>
      <point x="944" y="641"/>
      <point x="964" y="639"/>
      <point x="989" y="639" type="curve" smooth="yes"/>
      <point x="1014" y="639"/>
      <point x="1034" y="641"/>
      <point x="1043" y="644" type="curve"/>
      <point x="1043" y="751" type="line" smooth="yes"/>
      <point x="1043" y="875"/>
      <point x="987" y="933"/>
      <point x="884" y="933" type="curve" smooth="yes"/>
      <point x="773" y="933"/>
      <point x="714" y="858"/>
      <point x="712" y="737" type="curve" smooth="yes"/>
      <point x="710" y="611"/>
      <point x="759" y="536"/>
      <point x="826" y="453" type="curve" smooth="yes"/>
      <point x="855" y="417" type="line" smooth="yes"/>
      <point x="888" y="376"/>
      <point x="929" y="324"/>
      <point x="929" y="210" type="curve" smooth="yes"/>
      <point x="929" y="137"/>
      <point x="915" y="84"/>
      <point x="873" y="84" type="curve" smooth="yes"/>
      <point x="824" y="84"/>
      <point x="817" y="146"/>
      <point x="817" y="203" type="curve" smooth="yes"/>
      <point x="817" y="300" type="line"/>
      <point x="799" y="304"/>
      <point x="780" y="305"/>
      <point x="760" y="305" type="curve" smooth="yes"/>
      <point x="739" y="305"/>
      <point x="720" y="304"/>
      <point x="703" y="300" type="curve"/>
      <point x="703" y="184" type="line" smooth="yes"/>
      <point x="703" y="54"/>
      <point x="756" y="-11"/>
    </contour>
    <contour>
      <point x="372" y="749" type="line"/>
      <point x="550" y="753" type="line"/>
      <point x="770" y="748" type="line"/>
      <point x="770" y="857" type="line"/>
      <point x="550" y="850" type="line"/>
      <point x="372" y="854" type="line"/>
    </contour>
  </outline>
</glyph>
<glyph name="won" format="2">
  <advance width="1080"/>
  <unicode hex="20A9"/>
  <guideline x="898" y="1366" angle="262.4581"/>
  <guideline x="453" y="1336" angle="263.2667"/>
  <guideline x="627" y="1336" angle="276.0919"/>
  <guideline x="642" y="65" angle="276.0919"/>
  <guideline x="414" y="2" angle="263.2667"/>
  <guideline x="188" y="1322" angle="276.7869"/>
  <outline>
    <contour>
      <point x="315" y="-7" type="curve" smooth="yes"/>
      <point x="343" y="-7"/>
      <point x="393" y="-5"/>
      <point x="429" y="2" type="curve"/>
      <point x="483" y="530" type="line" smooth="yes"/>
      <point x="500" y="698"/>
      <point x="514" y="868"/>
      <point x="534" y="1090" type="curve"/>
      <point x="542" y="1090" type="line"/>
      <point x="560" y="866"/>
      <point x="570" y="696"/>
      <point x="585" y="530" type="curve" smooth="yes"/>
      <point x="627" y="65" type="line" smooth="yes"/>
      <point x="632" y="10"/>
      <point x="659" y="-7"/>
      <point x="713" y="-7" type="curve" smooth="yes"/>
      <point x="740" y="-7"/>
      <point x="791" y="-5"/>
      <point x="826" y="2" type="curve"/>
      <point x="978" y="1259" type="line"/>
      <point x="973" y="1269" type="line"/>
      <point x="953" y="1274"/>
      <point x="932" y="1276"/>
      <point x="912" y="1276" type="curve" smooth="yes"/>
      <point x="891" y="1276"/>
      <point x="870" y="1274"/>
      <point x="853" y="1270" type="curve"/>
      <point x="770" y="523" type="line" smooth="yes"/>
      <point x="758" y="419"/>
      <point x="743" y="289"/>
      <point x="732" y="151" type="curve"/>
      <point x="725" y="151"/>
      <point x="722" y="153"/>
      <point x="721" y="170" type="curve" smooth="yes"/>
      <point x="630" y="1266" type="line"/>
      <point x="613" y="1270"/>
      <point x="568" y="1272"/>
      <point x="541" y="1272" type="curve" smooth="yes"/>
      <point x="516" y="1272"/>
      <point x="475" y="1270"/>
      <point x="450" y="1266" type="curve"/>
      <point x="343" y="151" type="line"/>
      <point x="337" y="151"/>
      <point x="336" y="151"/>
      <point x="334" y="170" type="curve" smooth="yes"/>
      <point x="322" y="283"/>
      <point x="310" y="419"/>
      <point x="300" y="522" type="curve" smooth="yes"/>
      <point x="232" y="1230" type="line" smooth="yes"/>
      <point x="229" y="1261"/>
      <point x="213" y="1282"/>
      <point x="177" y="1282" type="curve" smooth="yes"/>
      <point x="156" y="1282"/>
      <point x="130" y="1279"/>
      <point x="102" y="1269" type="curve"/>
      <point x="230" y="65" type="line" smooth="yes"/>
      <point x="236" y="4"/>
      <point x="268" y="-7"/>
    </contour>
    <contour>
      <point x="40" y="428" type="curve"/>
      <point x="235" y="428" type="line"/>
      <point x="235" y="537" type="line"/>
      <point x="40" y="537" type="line"/>
      <point x="36" y="518"/>
      <point x="34" y="497"/>
      <point x="34" y="481" type="curve" smooth="yes"/>
      <point x="34" y="461"/>
      <point x="36" y="445"/>
    </contour>
    <contour>
      <point x="40" y="720" type="curve"/>
      <point x="235" y="720" type="line"/>
      <point x="235" y="829" type="line"/>
      <point x="40" y="829" type="line"/>
      <point x="36" y="808"/>
      <point x="34" y="790"/>
      <point x="34" y="773" type="curve" smooth="yes"/>
      <point x="34" y="756"/>
      <point x="36" y="736"/>
    </contour>
    <contour>
      <point x="846" y="428" type="line"/>
      <point x="1040" y="428" type="line"/>
      <point x="1044" y="446"/>
      <point x="1046" y="465"/>
      <point x="1046" y="483" type="curve" smooth="yes"/>
      <point x="1046" y="502"/>
      <point x="1044" y="520"/>
      <point x="1040" y="537" type="curve"/>
      <point x="846" y="537" type="line"/>
    </contour>
    <contour>
      <point x="846" y="720" type="line"/>
      <point x="1040" y="720" type="line"/>
      <point x="1044" y="737"/>
      <point x="1046" y="758"/>
      <point x="1046" y="775" type="curve" smooth="yes"/>
      <point x="1046" y="793"/>
      <point x="1044" y="812"/>
      <point x="1040" y="829" type="curve"/>
      <point x="846" y="829" type="line"/>
    </contour>
  </outline>
</glyph>
<glyph name="euro" format="2">
  <advance width="1080"/>
  <unicode hex="20AC"/>
  <outline>
    <contour>
      <point x="663" y="-24" type="curve" smooth="yes"/>
      <point x="789" y="-24"/>
      <point x="914" y="18"/>
      <point x="1025" y="106" type="curve"/>
      <point x="1015" y="140"/>
      <point x="991" y="182"/>
      <point x="956" y="206" type="curve"/>
      <point x="873" y="144"/>
      <point x="772" y="104"/>
      <point x="673" y="104" type="curve" smooth="yes"/>
      <point x="472" y="104"/>
      <point x="369" y="282"/>
      <point x="369" y="633" type="curve" smooth="yes"/>
      <point x="369" y="983"/>
      <point x="472" y="1162"/>
      <point x="673" y="1162" type="curve" smooth="yes"/>
      <point x="772" y="1162"/>
      <point x="870" y="1122"/>
      <point x="953" y="1060" type="curve"/>
      <point x="987" y="1084"/>
      <point x="1012" y="1126"/>
      <point x="1022" y="1160" type="curve"/>
      <point x="911" y="1248"/>
      <point x="789" y="1290"/>
      <point x="666" y="1290" type="curve" smooth="yes"/>
      <point x="339" y="1290"/>
      <point x="221" y="988"/>
      <point x="221" y="633" type="curve" smooth="yes"/>
      <point x="221" y="279"/>
      <point x="338" y="-24"/>
    </contour>
    <contour>
      <point x="61" y="428" type="curve"/>
      <point x="342" y="430" type="line"/>
      <point x="765" y="428" type="line"/>
      <point x="769" y="446"/>
      <point x="771" y="465"/>
      <point x="771" y="483" type="curve" smooth="yes"/>
      <point x="771" y="502"/>
      <point x="769" y="520"/>
      <point x="765" y="537" type="curve"/>
      <point x="337" y="535" type="line"/>
      <point x="61" y="537" type="line"/>
      <point x="57" y="519"/>
      <point x="55" y="500"/>
      <point x="55" y="482" type="curve" smooth="yes"/>
      <point x="55" y="463"/>
      <point x="57" y="445"/>
    </contour>
    <contour>
      <point x="61" y="720" type="curve"/>
      <point x="340" y="722" type="line"/>
      <point x="765" y="720" type="line"/>
      <point x="769" y="738"/>
      <point x="771" y="757"/>
      <point x="771" y="775" type="curve" smooth="yes"/>
      <point x="771" y="794"/>
      <point x="769" y="812"/>
      <point x="765" y="829" type="curve"/>
      <point x="346" y="827" type="line"/>
      <point x="61" y="829" type="line"/>
      <point x="57" y="811"/>
      <point x="55" y="792"/>
      <point x="55" y="774" type="curve" smooth="yes"/>
      <point x="55" y="755"/>
      <point x="57" y="737"/>
    </contour>
  </outline>
</glyph>
<glyph name="kip" format="2">
  <advance width="1080"/>
  <unicode hex="20AD"/>
  <guideline x="1060" y="19" angle="125.263"/>
  <guideline x="1021" y="1256" angle="236.5332"/>
  <guideline x="854" y="67" angle="125.263"/>
  <guideline x="825" y="1207" angle="236.5332"/>
  <outline>
    <contour>
      <point x="207" y="1270" type="curve"/>
      <point x="207" y="0" type="line"/>
      <point x="226" y="-4"/>
      <point x="253" y="-6"/>
      <point x="277" y="-6" type="curve" smooth="yes"/>
      <point x="302" y="-6"/>
      <point x="330" y="-4"/>
      <point x="351" y="0" type="curve"/>
      <point x="351" y="1270" type="line"/>
      <point x="331" y="1274"/>
      <point x="306" y="1276"/>
      <point x="277" y="1276" type="curve" smooth="yes"/>
      <point x="250" y="1276"/>
      <point x="225" y="1274"/>
    </contour>
    <contour>
      <point x="785" y="1207" type="curve" smooth="yes"/>
      <point x="494" y="757" type="line" smooth="yes"/>
      <point x="460" y="705"/>
      <point x="446" y="699"/>
      <point x="397" y="699" type="curve" smooth="yes"/>
      <point x="317" y="699" type="line"/>
      <point x="317" y="670" type="line"/>
      <point x="449" y="670" type="line" smooth="yes"/>
      <point x="568" y="670"/>
      <point x="611" y="693"/>
      <point x="669" y="781" type="curve" smooth="yes"/>
      <point x="983" y="1256" type="line"/>
      <point x="971" y="1270" type="line"/>
      <point x="946" y="1272"/>
      <point x="916" y="1274"/>
      <point x="889" y="1274" type="curve" smooth="yes"/>
      <point x="830" y="1274"/>
      <point x="811" y="1248"/>
    </contour>
    <contour>
      <point x="44" y="598" type="curve"/>
      <point x="984" y="598" type="line"/>
      <point x="988" y="615"/>
      <point x="990" y="632"/>
      <point x="990" y="649" type="curve" smooth="yes"/>
      <point x="990" y="666"/>
      <point x="988" y="684"/>
      <point x="984" y="699" type="curve"/>
      <point x="44" y="699" type="line"/>
      <point x="40" y="683"/>
      <point x="38" y="665"/>
      <point x="38" y="648" type="curve" smooth="yes"/>
      <point x="38" y="630"/>
      <point x="40" y="614"/>
    </contour>
    <contour>
      <point x="812" y="67" type="line" smooth="yes"/>
      <point x="841" y="25"/>
      <point x="861" y="0"/>
      <point x="919" y="0" type="curve" smooth="yes"/>
      <point x="946" y="0"/>
      <point x="981" y="2"/>
      <point x="1010" y="4" type="curve"/>
      <point x="1022" y="19" type="line"/>
      <point x="672" y="514" type="line" smooth="yes"/>
      <point x="613" y="598"/>
      <point x="567" y="628"/>
      <point x="449" y="628" type="curve" smooth="yes"/>
      <point x="317" y="628" type="line"/>
      <point x="317" y="598" type="line"/>
      <point x="391" y="598" type="line" smooth="yes"/>
      <point x="445" y="598"/>
      <point x="458" y="582"/>
      <point x="487" y="540" type="curve" smooth="yes"/>
    </contour>
  </outline>
</glyph>
<glyph name="cedi" format="2">
  <advance width="1080"/>
  <unicode hex="20B5"/>
  <outline>
    <contour>
      <point x="591" y="-131" type="curve" smooth="yes"/>
      <point x="613" y="-131"/>
      <point x="639" y="-129"/>
      <point x="655" y="-125" type="curve"/>
      <point x="655" y="107" type="line"/>
      <point x="527" y="107" type="line"/>
      <point x="527" y="-125" type="line"/>
      <point x="543" y="-129"/>
      <point x="569" y="-131"/>
    </contour>
    <contour>
      <point x="522" y="1152" type="line"/>
      <point x="650" y="1152" type="line"/>
      <point x="650" y="1390" type="line"/>
      <point x="632" y="1394"/>
      <point x="607" y="1396"/>
      <point x="586" y="1396" type="curve" smooth="yes"/>
      <point x="565" y="1396"/>
      <point x="540" y="1394"/>
      <point x="522" y="1390" type="curve"/>
    </contour>
    <contour>
      <point x="836" y="784" type="curve"/>
      <point x="861" y="776"/>
      <point x="875" y="774"/>
      <point x="890" y="774" type="curve" smooth="yes"/>
      <point x="960" y="774"/>
      <point x="976" y="810"/>
      <point x="976" y="865" type="curve" smooth="yes"/>
      <point x="976" y="1023"/>
      <point x="831" y="1206"/>
      <point x="593" y="1206" type="curve" smooth="yes"/>
      <point x="315" y="1206"/>
      <point x="136" y="995"/>
      <point x="136" y="628" type="curve" smooth="yes"/>
      <point x="136" y="331"/>
      <point x="254" y="60"/>
      <point x="579" y="60" type="curve" smooth="yes"/>
      <point x="747" y="60"/>
      <point x="882" y="148"/>
      <point x="964" y="252" type="curve"/>
      <point x="952" y="286"/>
      <point x="918" y="323"/>
      <point x="882" y="340" type="curve"/>
      <point x="782" y="227"/>
      <point x="690" y="181"/>
      <point x="596" y="181" type="curve" smooth="yes"/>
      <point x="400" y="181"/>
      <point x="288" y="341"/>
      <point x="288" y="636" type="curve" smooth="yes"/>
      <point x="288" y="928"/>
      <point x="398" y="1089"/>
      <point x="593" y="1089" type="curve" smooth="yes"/>
      <point x="775" y="1089"/>
      <point x="836" y="917"/>
    </contour>
  </outline>
</glyph>
<glyph name="manat" format="2">
  <advance width="1080"/>
  <unicode hex="20BC"/>
  <outline>
    <contour>
      <point x="191" y="-6" type="curve" smooth="yes"/>
      <point x="240" y="-6"/>
      <point x="230" y="-4"/>
      <point x="263" y="0" type="curve"/>
      <point x="263" y="607" type="line" smooth="yes"/>
      <point x="263" y="723"/>
      <point x="263" y="917"/>
      <point x="355" y="1020" type="curve" smooth="yes"/>
      <point x="398" y="1068"/>
      <point x="457" y="1092"/>
      <point x="540" y="1092" type="curve" smooth="yes"/>
      <point x="623" y="1092"/>
      <point x="682" y="1068"/>
      <point x="725" y="1020" type="curve" smooth="yes"/>
      <point x="817" y="917"/>
      <point x="817" y="723"/>
      <point x="817" y="607" type="curve" smooth="yes"/>
      <point x="817" y="0" type="line"/>
      <point x="850" y="-4"/>
      <point x="840" y="-6"/>
      <point x="889" y="-6" type="curve" smooth="yes"/>
      <point x="933" y="-6"/>
      <point x="931" y="-4"/>
      <point x="959" y="0" type="curve"/>
      <point x="959" y="592" type="line" smooth="yes"/>
      <point x="959" y="762"/>
      <point x="959" y="977"/>
      <point x="820" y="1107" type="curve" smooth="yes"/>
      <point x="748" y="1174"/>
      <point x="650" y="1209"/>
      <point x="541" y="1209" type="curve" smooth="yes"/>
      <point x="426" y="1209"/>
      <point x="325" y="1170"/>
      <point x="255" y="1102" type="curve" smooth="yes"/>
      <point x="122" y="972"/>
      <point x="121" y="764"/>
      <point x="121" y="592" type="curve" smooth="yes"/>
      <point x="121" y="0" type="line"/>
      <point x="149" y="-4"/>
      <point x="147" y="-6"/>
    </contour>
    <contour>
      <point x="540" y="227" type="curve" smooth="yes"/>
      <point x="561" y="227"/>
      <point x="587" y="229"/>
      <point x="602" y="233" type="curve"/>
      <point x="602" y="1124" type="line"/>
      <point x="478" y="1124" type="line"/>
      <point x="478" y="233" type="line"/>
      <point x="494" y="229"/>
      <point x="519" y="227"/>
    </contour>
    <contour>
      <point x="476" y="1177" type="line"/>
      <point x="604" y="1177" type="line"/>
      <point x="604" y="1390" type="line"/>
      <point x="588" y="1394"/>
      <point x="562" y="1396"/>
      <point x="540" y="1396" type="curve" smooth="yes"/>
      <point x="518" y="1396"/>
      <point x="492" y="1394"/>
      <point x="476" y="1390" type="curve"/>
    </contour>
  </outline>
</glyph>
<glyph name="trademark" format="2">
  <advance width="1588"/>
  <unicode hex="2122"/>
  <outline>
    <contour>
      <point x="-10" y="1258" type="curve"/>
      <point x="544" y="1258" type="line" smooth="yes"/>
      <point x="596" y="1258"/>
      <point x="620" y="1272"/>
      <point x="620" y="1318" type="curve" smooth="yes"/>
      <point x="620" y="1336"/>
      <point x="616" y="1354"/>
      <point x="612" y="1370" type="curve"/>
      <point x="-10" y="1370" type="line"/>
      <point x="-14" y="1348"/>
      <point x="-16" y="1330"/>
      <point x="-16" y="1314" type="curve" smooth="yes"/>
      <point x="-16" y="1296"/>
      <point x="-14" y="1278"/>
    </contour>
    <contour>
      <point x="234" y="1170" type="curve" smooth="yes"/>
      <point x="234" y="550" type="line"/>
      <point x="256" y="546"/>
      <point x="282" y="544"/>
      <point x="302" y="544" type="curve" smooth="yes"/>
      <point x="322" y="544"/>
      <point x="350" y="546"/>
      <point x="372" y="550" type="curve"/>
      <point x="372" y="1170" type="line" smooth="yes"/>
      <point x="372" y="1202"/>
      <point x="372" y="1224"/>
      <point x="372" y="1258" type="curve" smooth="yes"/>
      <point x="372" y="1314" type="line"/>
      <point x="234" y="1314" type="line"/>
      <point x="234" y="1258" type="line" smooth="yes"/>
      <point x="234" y="1224"/>
      <point x="234" y="1202"/>
    </contour>
    <contour>
      <point x="740" y="1364" type="curve"/>
      <point x="674" y="552" type="line"/>
      <point x="700" y="546"/>
      <point x="728" y="544"/>
      <point x="752" y="544" type="curve" smooth="yes"/>
      <point x="772" y="544"/>
      <point x="794" y="546"/>
      <point x="810" y="548" type="curve"/>
      <point x="836" y="966" type="line" smooth="yes"/>
      <point x="840" y="1034"/>
      <point x="844" y="1144"/>
      <point x="846" y="1216" type="curve"/>
      <point x="856" y="1216" type="line"/>
      <point x="1022" y="674" type="line"/>
      <point x="1042" y="672"/>
      <point x="1066" y="670"/>
      <point x="1086" y="670" type="curve" smooth="yes"/>
      <point x="1112" y="670"/>
      <point x="1138" y="672"/>
      <point x="1158" y="674" type="curve"/>
      <point x="1324" y="1216" type="line"/>
      <point x="1334" y="1216" type="line"/>
      <point x="1336" y="1144"/>
      <point x="1340" y="1034"/>
      <point x="1344" y="966" type="curve" smooth="yes"/>
      <point x="1370" y="548" type="line"/>
      <point x="1386" y="546"/>
      <point x="1408" y="544"/>
      <point x="1428" y="544" type="curve" smooth="yes"/>
      <point x="1452" y="544"/>
      <point x="1480" y="546"/>
      <point x="1506" y="552" type="curve"/>
      <point x="1440" y="1364" type="line"/>
      <point x="1408" y="1368"/>
      <point x="1368" y="1370"/>
      <point x="1344" y="1370" type="curve" smooth="yes"/>
      <point x="1318" y="1370"/>
      <point x="1286" y="1368"/>
      <point x="1252" y="1364" type="curve"/>
      <point x="1146" y="1004" type="line" smooth="yes"/>
      <point x="1124" y="932"/>
      <point x="1106" y="864"/>
      <point x="1096" y="810" type="curve"/>
      <point x="1084" y="810" type="line"/>
      <point x="1074" y="864"/>
      <point x="1056" y="932"/>
      <point x="1034" y="1004" type="curve" smooth="yes"/>
      <point x="928" y="1364" type="line"/>
      <point x="896" y="1368"/>
      <point x="862" y="1370"/>
      <point x="836" y="1370" type="curve" smooth="yes"/>
      <point x="812" y="1370"/>
      <point x="772" y="1368"/>
    </contour>
  </outline>
</glyph>
<glyph name="upArrow" format="2">
  <advance width="1904"/>
  <unicode hex="2191"/>
  <outline>
    <contour>
      <point x="952" y="-8" type="curve" smooth="yes"/>
      <point x="972" y="-8"/>
      <point x="1004" y="-4"/>
      <point x="1020" y="0" type="curve"/>
      <point x="1020" y="824" type="line" smooth="yes"/>
      <point x="1020" y="848"/>
      <point x="1020" y="876"/>
      <point x="1018" y="908" type="curve"/>
      <point x="1048" y="868"/>
      <point x="1084" y="828"/>
      <point x="1116" y="796" type="curve" smooth="yes"/>
      <point x="1427" y="477" type="line"/>
      <point x="1463" y="501"/>
      <point x="1503" y="537"/>
      <point x="1525" y="571" type="curve"/>
      <point x="1004" y="1092" type="line"/>
      <point x="994" y="1096"/>
      <point x="970" y="1100"/>
      <point x="952" y="1100" type="curve" smooth="yes"/>
      <point x="934" y="1100"/>
      <point x="910" y="1096"/>
      <point x="900" y="1092" type="curve"/>
      <point x="379" y="571" type="line"/>
      <point x="401" y="537"/>
      <point x="441" y="501"/>
      <point x="477" y="477" type="curve"/>
      <point x="788" y="796" type="line" smooth="yes"/>
      <point x="820" y="829"/>
      <point x="856" y="868"/>
      <point x="886" y="908" type="curve"/>
      <point x="884" y="876"/>
      <point x="884" y="848"/>
      <point x="884" y="824" type="curve" smooth="yes"/>
      <point x="884" y="0" type="line"/>
      <point x="900" y="-4"/>
      <point x="932" y="-8"/>
    </contour>
  </outline>
</glyph>
